<?xml version="1.0" encoding="UTF-8" standalone="no"?>
<!-- Created with Inkscape (http://www.inkscape.org/) -->

<svg
   xmlns:dc="http://purl.org/dc/elements/1.1/"
   xmlns:cc="http://creativecommons.org/ns#"
   xmlns:rdf="http://www.w3.org/1999/02/22-rdf-syntax-ns#"
   xmlns:svg="http://www.w3.org/2000/svg"
   xmlns="http://www.w3.org/2000/svg"
   xmlns:sodipodi="http://sodipodi.sourceforge.net/DTD/sodipodi-0.dtd"
   xmlns:inkscape="http://www.inkscape.org/namespaces/inkscape"
   width="512"
   height="512"
   viewBox="0 0 512 512"
   version="1.1"
   id="svg8"
   inkscape:version="0.92.4 (5da689c313, 2019-01-14)"
   sodipodi:docname="U+52DE.svg">
  <defs
     id="defs2" />
  <sodipodi:namedview
     id="base"
     pagecolor="#ffffff"
     bordercolor="#666666"
     borderopacity="1.0"
     inkscape:pageopacity="0.0"
     inkscape:pageshadow="2"
     inkscape:zoom="1.1208333"
     inkscape:cx="-300.94411"
     inkscape:cy="498.53334"
     inkscape:document-units="px"
     inkscape:current-layer="layer1"
     showgrid="false"
     units="px"
     inkscape:window-width="1920"
     inkscape:window-height="1001"
     inkscape:window-x="-9"
     inkscape:window-y="-9"
     inkscape:window-maximized="1" />
  <metadata
     id="metadata5">
    <rdf:RDF>
      <cc:Work
         rdf:about="">
        <dc:format>image/svg+xml</dc:format>
        <dc:type
           rdf:resource="http://purl.org/dc/dcmitype/StillImage" />
        <dc:title></dc:title>
      </cc:Work>
    </rdf:RDF>
  </metadata>
  <g
     inkscape:label="圖層 1"
     inkscape:groupmode="layer"
     id="layer1"
     transform="translate(0,-161.53332)">
    <path
       style="fill:#000000;fill-rule:evenodd;stroke:none;stroke-width:1px;stroke-linecap:butt;stroke-linejoin:miter;stroke-opacity:1;fill-opacity:1"
       d="M -299.33085,-39.32913 -294.86989,-22.37746 C -294.86989,-22.37746 -290.40892,-13.45553 -289.96283,-8.54846 -289.51673,-3.6414 -281.93309,4.38834 -279.25651,3.49615 -276.57993,2.60395 -268.10409,-5.87188 -268.55019,-9.88675 -268.99628,-13.90162 -271.22677,-19.25478 -277.02602,-26.39233 -282.82528,-33.52988 -286.84015,-39.32913 -292.19331,-39.32913 -297.54647,-39.32913 -299.33085,-39.32913 -299.33085,-39.32913 Z"
       id="path828"
       inkscape:connector-curvature="0" />
    <path
       style="fill:#000000;fill-rule:evenodd;stroke:none;stroke-width:1px;stroke-linecap:butt;stroke-linejoin:miter;stroke-opacity:1;fill-opacity:1"
       d="M -263.0855,-71.782669 C -252.93681,-68.213896 -249.81413,-58.95739 -249.81413,-56.7269 -249.81413,-54.49642 -243.67702,-54.05032 -253.49114,-28.17672 -263.30527,-2.30311 -253.97117,-8.5646388 -274.11518,22.308748 -293.58456,52.148169 -289.39071,52.872932 -333.6803,85.57793 -377.74847,118.11943 -391.22677,121.26566 -391.22677,121.26566 -391.22677,121.26566 -368.92193,119.92737 -355.09294,111.89763 -341.26394,103.86789 -284.16357,69.51845 -275.68773,52.12068 -267.2119,34.72291 -248.92193,0.37347 -242.67658,-23.26965 -236.43123,-46.91278 -231.25479,-44.637222 -231.97026,-55.83471 -232.67582,-66.877028 -253.829,-80.81612 -253.829,-80.81612 -253.829,-80.81612 -270.72135,-85.352857 -272.56505,-79.366313 -273.75609,-75.49898 -263.0855,-71.782669 -263.0855,-71.782669 Z"
       id="path830"
       inkscape:connector-curvature="0"
       sodipodi:nodetypes="csssscsssscsc" />
    <path
       style="fill:#000000;fill-rule:evenodd;stroke:none;stroke-width:1px;stroke-linecap:butt;stroke-linejoin:miter;stroke-opacity:1;fill-opacity:1"
       d="M -203.42007,-69.21761 -206.98885,-46.46668 C -206.98885,-46.46668 -215.46468,-34.86817 -215.91078,-32.19159 -216.35688,-29.51501 -223.94052,-15.23991 -223.94052,-15.23991 L -202.97398,-22.37746 -189.14498,-37.99084 C -189.14498,-37.99084 -173.9777,-44.2362 -174.86989,-46.46668 -175.76208,-48.69716 -182.00743,-60.74177 -182.00743,-60.74177 L -194.49814,-71.002 -202.97398,-72.34029 Z"
       id="path832"
       inkscape:connector-curvature="0" />
    <path
       style="fill:#000000;fill-rule:evenodd;stroke:none;stroke-width:1px;stroke-linecap:butt;stroke-linejoin:miter;stroke-opacity:1;fill-opacity:1"
       d="M -236.87732,7.95711 C -227.50929,9.2954 -215.01859,13.75637 -215.01859,13.75637 -215.01859,13.75637 -205.65056,16.87905 -205.65056,24.01659 -205.65056,31.15414 -202.52788,44.98313 -206.09665,44.53704 -209.66543,44.09094 -220.37175,42.30655 -223.49442,34.72291 -226.6171,27.13927 -230.18587,18.21734 -231.97026,16.87905 -233.75465,15.54076 -236.87732,7.95711 -236.87732,7.95711 Z"
       id="path834"
       inkscape:connector-curvature="0" />
    <path
       style="fill:#000000;fill-rule:evenodd;stroke:none;stroke-width:1px;stroke-linecap:butt;stroke-linejoin:miter;stroke-opacity:1;fill-opacity:1"
       d="M -157.02602,-97.76779 C -157.02602,-97.76779 -142.75093,-82.15441 -140.52045,-79.03174 -138.28996,-75.90906 -134.27509,-67.43322 -134.27509,-67.43322 -134.27509,-67.43322 -144.08922,-43.7901 -144.08922,-41.55962 -144.08922,-39.32913 -148.55019,-17.91649 -148.99628,-16.13211 -149.44238,-14.34772 -159.25651,13.75637 -159.25651,15.54076 -159.25651,17.32514 -170.85502,34.72291 -173.0855,36.95339 -175.31599,39.18388 -195.83643,58.36603 -198.06691,62.827001 -200.2974,67.287967 -182.89963,64.611387 -182.89963,64.611387 -182.89963,64.611387 -150.78067,48.998 -144.53532,23.1244 -138.28996,-2.74921 -137.39777,-24.60794 -137.39777,-24.60794 L -131.59851,-41.55962 C -131.59851,-41.55962 -117.76952,-46.46668 -117.76952,-50.48155 -117.76952,-54.49642 -117.32342,-66.09493 -119.10781,-68.77151 -120.89219,-71.44809 -128.92193,-85.27709 -130.70632,-85.27709 -132.49071,-85.27709 -144.08922,-94.64512 -144.08922,-94.64512 L -154.34944,-100.89047 Z"
       id="path836"
       inkscape:connector-curvature="0" />
    <path
       style="fill:#000000;fill-rule:evenodd;stroke:none;stroke-width:1px;stroke-linecap:butt;stroke-linejoin:miter;stroke-opacity:1;fill-opacity:1"
       d="M -85.204461,-50.92765 C -84.535316,-49.14326 -82.527881,-42.22876 -82.750929,-40.66742 -82.973978,-39.10609 -84.981413,-32.41464 -85.204461,-30.8533 -85.427509,-29.29196 -93.457249,-17.0243 -95.018587,-16.13211 -96.579926,-15.23991 -103.71747,-8.77151 -104.83271,-8.32542 -105.94796,-7.87932 -113.0855,-0.07263 -113.0855,-0.07263 L -76.951673,-15.01687 C -76.951673,-15.01687 -56.654275,-24.60794 -56.431227,-25.50014 -56.208178,-26.39233 -55.092937,-34.86817 -55.539033,-36.42951 -55.98513,-37.99084 -61.784387,-46.24363 -61.784387,-47.58192 -61.784387,-48.92021 -65.799257,-52.48898 -66.914498,-52.93508 -68.02974,-53.38118 -82.081784,-57.84214 -82.081784,-57.84214 L -84.981413,-53.60423 Z"
       id="path838"
       inkscape:connector-curvature="0" />
    <path
       style="fill:#000000;fill-rule:evenodd;stroke:none;stroke-width:1px;stroke-linecap:butt;stroke-linejoin:miter;stroke-opacity:1;fill-opacity:1"
       d="M -116.87732,17.77124 C -116.87732,17.77124 -109.51673,17.32514 -89.888476,26.02403 -70.260223,34.72291 -66.022305,32.93852 -63.791822,41.41436 -61.561338,49.8902 -58.438662,52.12068 -61.115242,53.68202 -63.791822,55.24336 -70.70632,59.25823 -74.498141,55.9125 -78.289963,52.56678 -98.141264,38.51473 -98.141264,38.51473 -98.141264,38.51473 -106.39405,30.70804 -107.28625,30.70804 -108.17844,30.70804 -117.99257,23.57049 -117.99257,23.57049 L -120.22305,19.55562 -116.65428,18.44038 Z"
       id="path840"
       inkscape:connector-curvature="0" />
    <path
       style="fill:#000000;fill-rule:evenodd;stroke:none;stroke-width:1px;stroke-linecap:butt;stroke-linejoin:miter;stroke-opacity:1;fill-opacity:1"
       d="M -242.5718,77.04012 -223.64552,79.879062 C -223.64552,79.879062 -152.0411,70.415923 -89.268945,64.422601 -26.496789,58.42928 -24.288724,58.11384 -21.134344,58.11384 -17.979964,58.11384 -0.63087594,63.16085 4.4161316,69.469609 9.4631391,75.778368 19.557154,88.395887 16.718212,93.758333 13.879271,99.120778 9.1477011,111.7383 4.4161316,113.63093 -0.31543797,115.52355 -5.0470075,118.67793 -9.778577,115.83899 -14.510147,113.00005 -22.396096,102.90603 -20.818906,95.65096 -19.241716,88.395887 -15.141023,90.288515 -14.510147,84.610631 -13.879271,78.932748 -20.818906,72.623989 -31.859235,71.677675 -42.899564,70.731361 -70.027229,72.939427 -72.550733,72.939427 -75.074237,72.939427 -129.96044,77.04012 -133.11482,78.301872 -136.2692,79.563624 -188.00103,84.926069 -190.52453,86.187821 -193.04804,87.449573 -225.53815,94.073771 -225.53815,94.073771 L -232.47778,97.22815 -243.51811,86.818697 Z"
       id="path842"
       inkscape:connector-curvature="0" />
    <path
       style="fill:#000000;fill-rule:evenodd;stroke:none;stroke-width:1px;stroke-linecap:butt;stroke-linejoin:miter;stroke-opacity:1;fill-opacity:1"
       d="M -283.2633,79.879062 C -283.2633,81.140814 -280.10892,112.68461 -291.14925,120.886 -302.18957,129.08739 -316.06885,144.54385 -324.58567,142.33578 -333.1025,140.12771 -335.626,140.75859 -335.626,140.75859 L -328.37093,152.11436 C -328.37093,152.11436 -318.90779,184.91991 -319.22322,186.18166 -319.53866,187.44341 -317.64604,190.91323 -312.91447,183.02728 -308.1829,175.14133 -277.90085,142.33578 -275.06191,130.34914 -272.22297,118.36249 -270.33034,101.95972 -270.33034,101.95972 L -272.22297,83.34888 -282.63242,67.261543 Z"
       id="path844"
       inkscape:connector-curvature="0" />
    <path
       style="fill:#000000;fill-rule:evenodd;stroke:none;stroke-width:1px;stroke-linecap:butt;stroke-linejoin:miter;stroke-opacity:1;fill-opacity:1"
       d="M -230.90059,146.12104 -121.12818,131.92633 -115.76573,122.14775 -104.09453,119.30881 C -104.09453,119.30881 -79.490368,131.92633 -78.228616,131.92633 -76.966864,131.92633 -67.188287,145.17472 -67.188287,145.17472 L -127.58364,322.00916 -142.26252,340.74626 -152.0411,324.97436 -150.77935,305.73265 C -150.77935,305.73265 -154.24917,292.79969 -153.93373,290.27619 -153.61829,287.75268 -154.24917,271.98079 -154.24917,271.98079 L -142.8934,286.49093 -103.77909,168.51713 -100.62471,157.16136 C -100.62471,157.16136 -97.78577,147.69823 -121.44362,148.95998 -145.10147,150.22173 -164.02774,156.21505 -166.55125,156.53049 -169.07475,156.84593 -178.85333,161.26206 -181.69227,161.89293 -184.53121,162.52381 -201.24942,168.20169 -203.45749,168.83257 -205.66556,169.46345 -216.07501,172.93326 -216.07501,172.93326 -216.07501,172.93326 -223.33008,167.88626 -223.33008,166.6245 -223.33008,165.36275 -225.53815,154.9533 -225.53815,154.9533 L -233.73954,149.90629 Z"
       id="path846"
       inkscape:connector-curvature="0" />
    <path
       style="fill:#000000;fill-rule:evenodd;stroke:none;stroke-width:1px;stroke-linecap:butt;stroke-linejoin:miter;stroke-opacity:1;fill-opacity:1"
       d="M -166.39405,109.66715 C -163.27138,110.55934 -155.68773,124.83444 -155.68773,124.83444 L -177.10037,172.56678 C -177.10037,172.56678 -202.97398,213.60767 -233.75465,242.15786 -264.53532,270.70804 -307.36059,306.39577 -321.63569,316.2099 -335.91078,326.02403 -337.24907,333.60767 -337.24907,333.60767 -337.24907,333.60767 -263.19703,294.35116 -236.43123,268.47756 -209.66543,242.60395 -185.57621,214.49986 -161.93309,172.12068 -138.28996,129.7415 -143.64312,107.43667 -143.64312,107.43667 L -156.57993,103.4218 -166.84015,101.19131 Z"
       id="path848"
       inkscape:connector-curvature="0" />
  </g>
</svg>
