<?xml version="1.0" encoding="UTF-8" standalone="no"?>
<!-- Created with Inkscape (http://www.inkscape.org/) -->

<svg
   xmlns:dc="http://purl.org/dc/elements/1.1/"
   xmlns:cc="http://creativecommons.org/ns#"
   xmlns:rdf="http://www.w3.org/1999/02/22-rdf-syntax-ns#"
   xmlns:svg="http://www.w3.org/2000/svg"
   xmlns="http://www.w3.org/2000/svg"
   xmlns:sodipodi="http://sodipodi.sourceforge.net/DTD/sodipodi-0.dtd"
   xmlns:inkscape="http://www.inkscape.org/namespaces/inkscape"
   width="512"
   height="512"
   viewBox="0 0 512 512"
   version="1.1"
   id="svg8"
   inkscape:version="0.92.4 (5da689c313, 2019-01-14)"
   sodipodi:docname="U+5BDF1.svg">
  <defs
     id="defs2" />
  <sodipodi:namedview
     id="base"
     pagecolor="#ffffff"
     bordercolor="#666666"
     borderopacity="1.0"
     inkscape:pageopacity="0.0"
     inkscape:pageshadow="2"
     inkscape:zoom="0.98994949"
     inkscape:cx="204.83448"
     inkscape:cy="271.38028"
     inkscape:document-units="px"
     inkscape:current-layer="layer1"
     showgrid="false"
     units="px"
     inkscape:window-width="1920"
     inkscape:window-height="1001"
     inkscape:window-x="-9"
     inkscape:window-y="-9"
     inkscape:window-maximized="1">
    <sodipodi:guide
       position="0,0"
       orientation="0,512"
       id="guide826"
       inkscape:locked="false" />
    <sodipodi:guide
       position="512,0"
       orientation="-512,0"
       id="guide828"
       inkscape:locked="false" />
    <sodipodi:guide
       position="512,512"
       orientation="0,-512"
       id="guide830"
       inkscape:locked="false" />
    <sodipodi:guide
       position="0,512"
       orientation="512,0"
       id="guide832"
       inkscape:locked="false" />
  </sodipodi:namedview>
  <metadata
     id="metadata5">
    <rdf:RDF>
      <cc:Work
         rdf:about="">
        <dc:format>image/svg+xml</dc:format>
        <dc:type
           rdf:resource="http://purl.org/dc/dcmitype/StillImage" />
        <dc:title></dc:title>
      </cc:Work>
    </rdf:RDF>
  </metadata>
  <g
     inkscape:label="圖層 1"
     inkscape:groupmode="layer"
     id="layer1"
     transform="translate(0,-161.53331)"
     style="fill:#000000;fill-opacity:1;stroke:none">
    <path
       style="fill:#000000;fill-rule:evenodd;stroke:none;stroke-width:1px;stroke-linecap:butt;stroke-linejoin:miter;stroke-opacity:1;fill-opacity:1"
       d="M 125.25892,301.03956 C 108.84394,344.98119 102.02541,361.64871 102.02541,361.64871 102.02541,361.64871 94.702407,364.59045 91.923882,362.65886 88.922999,360.57269 89.145962,352.05226 89.145962,352.05226 89.145962,352.05226 100.74827,327.13977 105.53031,314.24551 108.52183,306.17917 113.38962,289.67534 113.38962,289.67534 L 120.71323,265.93676 C 120.71323,265.93676 126.00491,258.3165 129.8046,258.86569 133.80452,259.44382 136.87567,268.71468 136.87567,268.71468 Z"
       id="path838"
       inkscape:connector-curvature="0"
       sodipodi:nodetypes="ccscsccscc" />
    <path
       style="fill:#000000;fill-rule:evenodd;stroke:none;stroke-width:1px;stroke-linecap:butt;stroke-linejoin:miter;stroke-opacity:1;fill-opacity:1"
       d="M 167.81531,253.53175 C 201.15034,247.47084 221.71419,244.79489 251.45882,240.26716 260.638,238.8699 275.29952,235.68103 284.61048,235.91535 291.08204,236.07822 300.72556,242.90417 303.55084,239.67279 307.39284,235.27856 299.69472,226.08336 293.95439,225.02558 271.09505,220.81327 219.2031,232.60172 219.2031,232.60172 L 178.08271,239.93802 C 178.08271,239.93802 152.43539,242.54974 151.27252,251.90231 150.56608,257.58399 167.81531,253.53175 167.81531,253.53175 Z"
       id="path840"
       inkscape:connector-curvature="0"
       sodipodi:nodetypes="cssssccsc" />
    <path
       style="fill:#000000;fill-rule:evenodd;stroke:none;stroke-width:1.16151226px;stroke-linecap:butt;stroke-linejoin:miter;stroke-opacity:1;fill-opacity:1"
       d="M 432.8124,260.25835 C 415.30642,282.69879 408.1146,288.90001 409.39365,297.07851 410.36093,303.26335 429.81905,293.62898 434.00022,288.14506 441.86723,277.82689 449.05385,272.97865 456.25081,261.98 460.87004,254.92072 464.42227,239.64988 453.09505,241.67063 442.01037,243.64812 442.16216,248.27314 432.8124,260.25835 Z"
       id="path842"
       inkscape:connector-curvature="0"
       sodipodi:nodetypes="ssssss" />
    <path
       style="fill:#000000;fill-rule:evenodd;stroke:none;stroke-width:1px;stroke-linecap:butt;stroke-linejoin:miter;stroke-opacity:1;fill-opacity:1"
       d="M 201.02036,197.75146 C 202.70828,198.97115 225.13775,211.64106 227.66313,219.72228 230.18851,227.8035 227.14286,231.39045 231.07143,242.10474 235,252.81902 240,254.78331 243.57143,248.53331 247.14286,242.28331 262.85714,226.56902 264.28571,222.46188 265.71429,218.35474 268.57143,208.53331 259.46429,201.39045 250.35714,194.24759 241.60714,183.71188 234.46429,182.28331 227.32143,180.85474 220,181.39045 213.21429,184.78331 206.42857,188.17617 203.35696,188.41076 199.46242,191.43192 197.01999,195.33697 199.41723,196.59304 201.02036,197.75146 Z"
       id="path844"
       inkscape:connector-curvature="0"
       sodipodi:nodetypes="sssscssscs" />
    <path
       style="fill:#000000;fill-rule:evenodd;stroke:none;stroke-width:1px;stroke-linecap:butt;stroke-linejoin:miter;stroke-opacity:1;fill-opacity:1"
       d="M 173.21429,293.89045 C 158.21429,340.31902 165.57744,326.57193 157.5,341.03331 150.98879,352.69059 131.78571,371.7476 131.78571,371.7476 131.78571,371.7476 129.28571,384.96188 143.57143,373.89045 157.85714,362.81902 173.21429,348.17617 178.92857,338.17617 184.64286,328.17617 191.42857,324.60474 189.28571,321.7476 187.14286,318.89045 186.07143,311.7476 180,302.10474 173.92857,292.46188 173.21429,293.89045 173.21429,293.89045 Z"
       id="path846"
       inkscape:connector-curvature="0"
       sodipodi:nodetypes="cscsscsc" />
    <path
       style="fill:#000000;fill-rule:evenodd;stroke:none;stroke-width:1px;stroke-linecap:butt;stroke-linejoin:miter;stroke-opacity:1;fill-opacity:1"
       d="M 212.14286,309.96188 C 216.42857,302.10474 217.85714,298.53331 222.14286,299.60474 226.42857,300.67617 233.21429,303.89045 235.35714,312.81902 237.5,321.7476 241.42857,338.17617 234.64286,339.60474 227.85714,341.03331 222.13914,342.38266 222.13914,342.38266 222.13914,342.38266 219.35791,358.08395 207.58294,375.90704 194.9677,395.00201 173.66072,415.22974 155.80358,438.08688 137.94643,460.94403 128.14929,477.56648 112.07787,491.13791 96.006435,504.70934 81.428572,519.96188 59.285714,529.60474 37.142857,539.2476 23.571429,544.60474 20.714286,543.53331 17.857143,542.46188 12.142857,539.60474 19.285714,534.60474 26.428571,529.60474 48.928572,520.31902 63.571429,509.2476 78.214286,498.17617 104.28571,475.31902 104.28571,475.31902 L 133.92857,445.31902 151.80366,425.67617 C 151.80366,425.67617 169.70563,400.03451 180.31223,385.3873 190.91883,370.74008 200.0102,354.83018 203.04066,347.25404 206.07112,339.67789 210.61681,334.37459 206.32366,330.33398 202.03051,326.29337 195.96959,323.26291 195.96959,323.26291 195.96959,323.26291 192.18152,319.47484 197.73736,316.44438 203.2932,313.41393 212.14286,309.96188 212.14286,309.96188 Z"
       id="path848"
       inkscape:connector-curvature="0"
       sodipodi:nodetypes="cssscssssssscccsssccc" />
    <path
       style="fill:#000000;fill-rule:evenodd;stroke:none;stroke-width:1px;stroke-linecap:butt;stroke-linejoin:miter;stroke-opacity:1;fill-opacity:1"
       d="M 173.36743,355.20899 C 174.73488,354.0753 179.42835,356.21914 183.34269,357.48183 187.25703,358.74452 189.90868,358.74452 191.92898,360.63856 193.94929,362.53259 195.93803,364.5529 195.8749,366.06813 195.24354,368.12 194.07556,371.4977 192.30779,371.37143 190.54002,371.24516 186.62568,371.75024 184.35284,370.48755 182.08,369.22486 176.90296,365.05798 174.88266,362.40633 172.86235,359.75468 171.97412,356.36413 173.36743,355.20899 Z"
       id="path850"
       inkscape:connector-curvature="0"
       sodipodi:nodetypes="ssccsscs" />
    <path
       style="fill:#000000;fill-rule:evenodd;stroke:none;stroke-width:1px;stroke-linecap:butt;stroke-linejoin:miter;stroke-opacity:1;fill-opacity:1"
       d="M 120.08188,401.80227 C 123.34969,398.72668 127.34514,407.51248 131.69864,407.86319 139.83129,408.51834 154.93215,400.16078 154.93215,400.16078 154.93215,400.16078 171.47339,392.07956 172.10474,392.20583 172.73609,392.33209 180.05969,388.67029 180.05969,388.67029 L 170.84205,410.13603 C 170.84205,410.13603 157.09525,418.85062 150.07079,422.88921 142.98018,426.96583 128.54191,434.44283 128.54191,434.44283 128.54191,434.44283 118.56666,432.86447 115.40993,425.28832 112.2532,417.71218 112.19417,411.23815 115.78874,405.84288 116.9014,404.17283 120.08188,401.80227 120.08188,401.80227 Z"
       id="path852"
       inkscape:connector-curvature="0"
       sodipodi:nodetypes="ssccccscsss" />
    <path
       style="fill:#000000;fill-rule:evenodd;stroke:none;stroke-width:1px;stroke-linecap:butt;stroke-linejoin:miter;stroke-opacity:1;fill-opacity:1"
       d="M 304.82143,327.64045 C 301.59817,336.64825 298.39286,341.56902 298.39286,341.56902 298.39286,341.56902 298.39286,341.56902 285.44008,354.86625 277.80493,362.70445 246.78571,376.7476 246.78571,376.7476 246.78571,376.7476 241.96429,379.78331 239.82143,381.92617 237.67857,384.06902 243.57143,389.42617 253.57143,385.14045 263.57143,380.85474 276.60714,376.21188 283.03571,373.17617 289.46429,370.14045 298.03571,365.31902 305.71429,361.03331 313.39286,356.7476 322.32143,353.53331 322.32143,352.10474 322.32143,350.67617 330,347.9976 326.07143,343.35474 322.14286,338.71188 312.32143,329.96188 312.32143,329.96188 L 305.53571,327.28331 Z"
       id="path854"
       inkscape:connector-curvature="0"
       sodipodi:nodetypes="ccsccsssssccc" />
    <path
       style="fill:#000000;fill-rule:evenodd;stroke:none;stroke-width:1px;stroke-linecap:butt;stroke-linejoin:miter;stroke-opacity:1;fill-opacity:1"
       d="M 255.71429,345.57156 C 260.94219,344.54397 258.21429,341.7476 267.5,344.2476 276.78571,346.7476 292.5,357.10474 302.14286,362.10474 311.78571,367.10474 326.78571,375.67617 338.21429,387.10474 349.64286,398.53331 373.21429,416.03331 381.07143,428.17617 388.92857,440.31902 398.57143,448.89045 408.57143,459.60474 418.57143,470.31902 426.07143,472.10474 443.92857,470.31902 461.78572,468.53331 478,468.89045 495,466.03331 512,463.17617 519.64286,461.39045 519.64286,461.39045 519.64286,461.39045 519.64286,457.81902 496.07143,452.81902 472.5,447.81902 474.28572,452.46188 450,441.03331 425.71429,429.60474 406.78571,422.46188 393.92857,413.17617 381.07143,403.89045 353.92857,382.46188 341.42857,373.17617 328.92857,363.89045 324.64286,360.67617 307.85714,349.96188 291.07143,339.2476 282.85714,335.31902 268.92857,328.53331 255,321.7476 251.42857,319.96188 249.28571,329.2476 247.14286,338.53331 246.07143,346.39045 250.71429,346.39045 255.35714,346.39045 253.5083,346.42387 253.5083,346.42387 254.8261,345.93935 254.84298,345.74282 255.71429,345.57156 Z"
       id="path858"
       inkscape:connector-curvature="0"
       sodipodi:nodetypes="sssssssscsssssssscs" />
    <path
       style="fill:#000000;fill-rule:evenodd;stroke:none;stroke-width:1px;stroke-linecap:butt;stroke-linejoin:miter;stroke-opacity:1;fill-opacity:1"
       d="M 182.45881,453.9514 C 211.31975,443.04528 231.32493,435.64239 245.97214,438.67284 260.61936,441.7033 266.1752,443.21853 264.65997,447.76422 263.14474,452.3099 263.64981,455.84544 254.55844,456.35051 245.46707,456.85559 246.22468,456.60306 232.08255,462.15889 217.94041,467.71473 211.12188,470.49265 206.07112,474.02818 199.37886,477.31118 194.57366,478.52482 189.90868,472.38669 185.11045,466.07324 173.45699,457.35304 182.45881,453.9514 Z"
       id="path860"
       inkscape:connector-curvature="0"
       sodipodi:nodetypes="ssscscss" />
    <path
       style="fill:#000000;fill-rule:evenodd;stroke:none;stroke-width:1px;stroke-linecap:butt;stroke-linejoin:miter;stroke-opacity:1;fill-opacity:1"
       d="M 149.75512,521.00028 C 186.83847,513.34329 228.29448,504.5853 229.55717,504.33276 230.81986,504.08022 263.39728,497.76677 263.39728,497.76677 L 290.16632,491.70585 299.00515,486.15001 312.38967,485.89747 C 312.38967,485.89747 331.58257,493.22108 332.59273,493.47362 333.60288,493.72616 342.18918,496.75661 341.93664,499.53453 341.6841,502.31245 329.81481,506.6056 321.98612,506.35306 314.15744,506.10053 294.96454,507.11068 294.96454,507.11068 294.96454,507.11068 275.01403,506.85814 261.12443,510.64621 247.23484,514.43428 236.75451,515.82324 225.76909,519.73758 215.16249,524.53581 204.80843,525.29342 190.91883,532.86957 177.02923,540.44571 175.00893,543.22363 172.98862,542.71856 170.96832,542.21348 158.56516,537.45268 153.79573,531.85942 151.28978,528.92061 142.60112,522.47744 149.75512,521.00028 Z"
       id="path862"
       inkscape:connector-curvature="0"
       sodipodi:nodetypes="sscccccsccscscss" />
    <path
       style="fill:#000000;fill-rule:evenodd;stroke:none;stroke-width:1px;stroke-linecap:butt;stroke-linejoin:miter;stroke-opacity:1;fill-opacity:1"
       d="M 237.5,516.92617 C 235.97161,518.64561 244.19643,532.72974 245.53571,548.89045 245.71429,549.60474 246.74107,556.90385 247.85714,558.17617 249.28571,559.06902 256.28481,565.64496 261.07143,564.60474 265.82293,563.57215 270.35714,553.35474 270.35714,553.35474 270.35714,553.35474 270.4264,544.40069 269.55357,539.96188 268.46162,534.40876 266.93752,528.86232 263.92857,524.06902 261.37398,519.99952 258.15174,516.2079 254.28571,513.35474 251.43576,511.25145 244.64286,508.89045 244.64286,508.89045 Z"
       id="path864"
       inkscape:connector-curvature="0"
       sodipodi:nodetypes="sccscssscs" />
    <path
       style="fill:#000000;fill-rule:evenodd;stroke:none;stroke-width:1px;stroke-linecap:butt;stroke-linejoin:miter;stroke-opacity:1;fill-opacity:1"
       d="M 171.97847,563.93176 C 163.89725,571.76044 157.83634,579.33659 157.83634,579.33659 157.83634,579.33659 153.54319,588.17542 154.3008,592.21603 155.05842,596.25664 154.80588,605.85309 156.32111,607.87339 157.83634,609.8937 163.39217,614.18685 165.41248,610.90385 167.43278,607.62086 172.23101,598.02441 173.74624,593.73126 175.26147,589.43811 178.03939,583.62973 179.55462,581.35689 181.06984,579.08405 181.32238,570.75029 179.80715,566.45714 178.29192,562.16399 177.53431,558.62846 176.52416,559.38607 175.514,560.14369 171.97847,563.93176 171.97847,563.93176 Z"
       id="path866"
       inkscape:connector-curvature="0" />
    <path
       style="fill:#000000;fill-rule:evenodd;stroke:none;stroke-width:1px;stroke-linecap:butt;stroke-linejoin:miter;stroke-opacity:1;fill-opacity:1"
       d="M 300.52038,552.315 319.96582,573.78075 C 319.96582,573.78075 333.82545,583.22345 340.16887,588.6805 344.50078,592.40711 347.30919,598.00276 352.2907,600.80233 355.0851,602.37276 358.88496,604.72271 361.63461,603.07517 366.25826,600.30477 365.67522,587.41781 365.67522,587.41781 365.67522,587.41781 363.12291,574.73095 359.61431,569.4876 356.69448,565.12413 347.74501,559.13353 347.74501,559.13353 347.74501,559.13353 307.63162,544.84564 301.02546,544.73886 298.4948,544.69796 300.52038,552.315 300.52038,552.315 Z"
       id="path868"
       inkscape:connector-curvature="0"
       sodipodi:nodetypes="ccssscscsc" />
  </g>
</svg>
