<?xml version="1.0" encoding="UTF-8" standalone="no"?>
<!-- Created with Inkscape (http://www.inkscape.org/) -->

<svg
   xmlns:dc="http://purl.org/dc/elements/1.1/"
   xmlns:cc="http://creativecommons.org/ns#"
   xmlns:rdf="http://www.w3.org/1999/02/22-rdf-syntax-ns#"
   xmlns:svg="http://www.w3.org/2000/svg"
   xmlns="http://www.w3.org/2000/svg"
   xmlns:sodipodi="http://sodipodi.sourceforge.net/DTD/sodipodi-0.dtd"
   xmlns:inkscape="http://www.inkscape.org/namespaces/inkscape"
   width="512"
   height="512"
   viewBox="0 0 512 512"
   version="1.1"
   id="svg8"
   inkscape:version="0.92.4 (5da689c313, 2019-01-14)"
   sodipodi:docname="U+5EB8.svg">
  <defs
     id="defs2" />
  <sodipodi:namedview
     id="base"
     pagecolor="#ffffff"
     bordercolor="#666666"
     borderopacity="1.0"
     inkscape:pageopacity="0.0"
     inkscape:pageshadow="2"
     inkscape:zoom="0.7"
     inkscape:cx="178.61658"
     inkscape:cy="194.59932"
     inkscape:document-units="px"
     inkscape:current-layer="layer1"
     showgrid="false"
     units="px"
     inkscape:window-width="1920"
     inkscape:window-height="1001"
     inkscape:window-x="-9"
     inkscape:window-y="-9"
     inkscape:window-maximized="1">
    <sodipodi:guide
       position="0,0"
       orientation="0,512"
       id="guide826"
       inkscape:locked="false" />
    <sodipodi:guide
       position="512,0"
       orientation="-512,0"
       id="guide828"
       inkscape:locked="false" />
    <sodipodi:guide
       position="512,512"
       orientation="0,-512"
       id="guide830"
       inkscape:locked="false" />
    <sodipodi:guide
       position="0,512"
       orientation="512,0"
       id="guide832"
       inkscape:locked="false" />
  </sodipodi:namedview>
  <metadata
     id="metadata5">
    <rdf:RDF>
      <cc:Work
         rdf:about="">
        <dc:format>image/svg+xml</dc:format>
        <dc:type
           rdf:resource="http://purl.org/dc/dcmitype/StillImage" />
        <dc:title></dc:title>
      </cc:Work>
    </rdf:RDF>
  </metadata>
  <g
     inkscape:label="圖層 1"
     inkscape:groupmode="layer"
     id="layer1"
     transform="translate(2.9828568,-183.24759)">
    <path
       style="fill:#000000;fill-rule:evenodd;stroke:none;stroke-width:1px;stroke-linecap:butt;stroke-linejoin:miter;stroke-opacity:1;fill-opacity:1"
       d="M 192.37428,385.96188 C 238.44571,372.39045 300.23143,361.31902 300.23143,361.31902 L 334.51714,353.10473 389.51714,345.60473 396.66,339.89045 C 396.66,339.89045 415.58857,345.60473 424.51714,352.74759 433.44571,359.89045 442.73143,364.17616 435.94571,364.17616 429.16,364.17616 418.69144,363.89107 410.23143,362.39045 405.59428,361.56792 401.85805,358.1264 396.66,358.46188 384.52141,359.24531 365.23143,361.67616 365.23143,361.67616 365.23143,361.67616 338.44571,364.17616 317.37428,368.10473 296.30285,372.0333 277.01714,375.60473 254.87428,381.31902 232.73143,387.0333 229.51714,387.39045 217.01714,393.81902 204.51714,400.24759 197.37428,404.17616 195.23143,400.60473 193.08857,397.0333 192.37428,385.96188 192.37428,385.96188 Z"
       id="path844"
       inkscape:connector-curvature="0"
       sodipodi:nodetypes="cccccsssscssscc" />
    <path
       style="fill:#000000;fill-rule:evenodd;stroke:none;stroke-width:1px;stroke-linecap:butt;stroke-linejoin:miter;stroke-opacity:1;fill-opacity:1"
       d="M 170.58857,332.39045 C 165.23143,379.5333 149.51714,423.10473 149.51714,423.10473 149.51714,423.10473 142.01714,449.5333 134.16,469.5333 126.30285,489.5333 126.66,481.31902 111.66,513.46188 96.66,545.60473 89.16,557.0333 74.16,573.46188 59.16,589.89045 56.66,596.67616 37.017143,613.10473 17.374286,629.5333 -0.4828568,637.74759 11.302857,635.60473 23.088572,633.46188 48.445715,625.24759 59.16,615.60473 69.874286,605.96188 87.374286,589.5333 95.231429,578.46188 103.08857,567.39045 113.08857,550.24759 125.23143,523.81902 137.37428,497.39045 152.37428,457.39045 160.23143,434.89045 168.08857,412.39045 170.23143,396.67616 177.73143,380.60473 185.23143,364.5333 184.51714,354.5333 184.51714,354.5333 Z"
       id="path846"
       inkscape:connector-curvature="0" />
    <path
       style="fill:#000000;fill-rule:evenodd;stroke:none;stroke-width:1px;stroke-linecap:butt;stroke-linejoin:miter;stroke-opacity:1;fill-opacity:1"
       d="M 200.23143,464.89045 C 211.15864,469.13284 214.83096,477.53838 214.83096,477.53838 214.83096,477.53838 219.16,495.24759 218.08857,529.89045 217.01714,564.5333 218.08857,579.5333 213.08857,583.81902 208.08857,588.10473 203.79055,586.77222 201.66,590.96188 199.638,594.93807 200.17667,601.24241 197.24035,605.29223 195.68065,607.44339 190.32071,607.12259 199.87429,616.76545 203.71937,620.64646 215.94571,619.89045 217.73143,619.89045 219.51714,619.89045 226.30285,608.10473 227.01714,596.67616 227.73143,585.24759 228.44571,522.0333 228.44571,522.0333 228.44571,522.0333 227.40667,517.61492 226.95586,499.02822 226.49617,480.07522 224.16,467.74759 224.16,467.74759 224.16,467.74759 213.08857,455.24759 210.58857,455.60473 208.08857,455.96188 203.80285,455.60473 203.80285,455.60473 Z"
       id="path848"
       inkscape:connector-curvature="0"
       sodipodi:nodetypes="ccscssssscscccc" />
    <path
       style="fill:#000000;fill-rule:evenodd;stroke:none;stroke-width:1px;stroke-linecap:butt;stroke-linejoin:miter;stroke-opacity:1;fill-opacity:1"
       d="M 231.83857,458.10473 C 246.66,459.35473 277.37428,450.42616 278.08857,450.24759 278.80285,450.06902 318.08857,443.99759 318.08857,443.99759 L 328.62428,434.5333 338.62428,434.35473 350.41,440.24759 362.01714,454.71188 359.87428,468.46188 354.51714,472.0333 C 354.51714,472.0333 353.80286,504.89045 352.55286,517.56902 351.30286,530.24759 347.73143,552.74759 350.05286,569.17616 352.37428,585.60473 355.94571,600.42616 356.30286,612.56902 356.66,624.71188 358.26714,630.60473 356.12428,633.64045 353.98143,636.67616 349.69571,642.0333 342.01714,627.56902 334.33857,613.10473 327.01714,599.5333 327.01714,599.5333 327.01714,599.5333 331.12428,589.5333 332.01714,585.06902 332.91,580.60473 333.08857,530.06902 333.80285,512.56902 334.51714,495.06902 338.98143,489.71188 333.08857,472.56902 327.19571,455.42616 327.73143,456.31902 321.66,454.5333 315.58857,452.74759 292.55285,460.7833 292.55285,460.7833 292.55285,460.7833 260.05285,467.0333 259.33857,467.0333 258.62428,467.0333 248.98143,471.14045 248.98143,471.14045 L 229.51714,461.85473 Z"
       id="path850"
       inkscape:connector-curvature="0" />
    <path
       style="fill:#000000;fill-rule:evenodd;stroke:none;stroke-width:1px;stroke-linecap:butt;stroke-linejoin:miter;stroke-opacity:1;fill-opacity:1"
       d="M 269.69571,467.39045 C 276.83857,470.96188 277.55285,474.17616 277.55285,474.17616 L 276.12428,492.56902 278.62428,522.74759 276.83857,538.99759 V 549.17616 L 286.30285,555.24759 293.44571,545.60473 C 293.44571,545.60473 295.23143,526.14045 295.05285,513.46188 294.87428,500.7833 297.91,477.56902 297.55285,470.96188 297.19571,464.35473 292.55285,460.7833 292.55285,460.7833 L 281.30285,456.85473 Z"
       id="path852"
       inkscape:connector-curvature="0" />
    <path
       style="fill:#000000;fill-rule:evenodd;stroke:none;stroke-width:1px;stroke-linecap:butt;stroke-linejoin:miter;stroke-opacity:1;fill-opacity:1"
       d="M 242.91,506.49759 C 264.16,502.0333 278.98143,497.21188 278.98143,497.21188 L 300.41,490.24759 C 300.41,490.24759 308.26714,488.64045 309.16,489.17616 310.05285,489.71188 317.01714,495.42616 317.01714,495.42616 317.01714,495.42616 319.16,500.24759 318.44571,500.42616 317.73143,500.60473 304.33857,503.99759 303.26714,503.99759 302.19571,503.99759 282.19571,511.14045 282.19571,511.14045 282.19571,511.14045 270.05285,515.06902 268.98143,515.06902 267.91,515.06902 258.26714,521.14045 258.26714,521.14045 258.26714,521.14045 238.26714,513.64045 242.91,506.49759 Z"
       id="path854"
       inkscape:connector-curvature="0" />
    <path
       style="fill:#000000;fill-rule:evenodd;stroke:none;stroke-width:1px;stroke-linecap:butt;stroke-linejoin:miter;stroke-opacity:1;fill-opacity:1"
       d="M 233.62428,558.99759 C 268.80285,552.21188 290.41,547.56902 290.41,547.56902 290.41,547.56902 313.26714,543.2833 313.98143,543.10473 314.69571,542.92616 324.87428,547.0333 324.87428,547.0333 L 336.48143,552.0333 334.69571,555.96188 C 334.69571,555.96188 295.76714,560.24759 288.80285,560.96188 281.83857,561.67616 270.76714,564.89045 262.37428,569.17616 253.98143,573.46188 250.76714,575.7833 250.76714,575.7833 L 235.05285,568.46188 223.98143,562.0333 Z"
       id="path856"
       inkscape:connector-curvature="0" />
  </g>
  <path
     style="fill:#000000;fill-rule:evenodd;stroke:none;stroke-width:1px;stroke-linecap:butt;stroke-linejoin:miter;stroke-opacity:1;fill-opacity:1"
     d="M 198.01528,66.793212 C 196.74508,59.860043 275.38386,46.436972 279.42447,44.921743 283.46508,43.406514 291.93409,39.248609 291.93409,39.248609 291.93409,39.248609 312.64221,38.743532 317.69298,43.289219 322.74374,47.834905 325.7742,57.431354 320.21836,57.431354 314.66252,57.431354 268.90979,61.237373 252.24227,66.793212 235.57476,72.349051 229.17372,77.654942 219.55499,79.772006 210.83901,81.690377 198.01528,66.793212 198.01528,66.793212 Z"
     id="path834"
     inkscape:connector-curvature="0"
     sodipodi:nodetypes="sscsssss" />
  <path
     style="fill:#000000;fill-rule:evenodd;stroke:none;stroke-width:1px;stroke-linecap:butt;stroke-linejoin:miter;stroke-opacity:1;fill-opacity:1"
     d="M 264.65997,62.482117 C 270.72088,72.583643 271.73103,137.99102 271.73103,137.99102 L 270.72088,213.49992 270.21581,230.41998 H 278.04449 L 282.0851,188.24611 284.1054,112.48467 286.63079,60.966888 277.77874,61.577375 Z"
     id="path836"
     inkscape:connector-curvature="0"
     sodipodi:nodetypes="cccccccccc" />
  <path
     style="fill:#000000;fill-rule:evenodd;stroke:none;stroke-width:1px;stroke-linecap:butt;stroke-linejoin:miter;stroke-opacity:1;fill-opacity:1"
     d="M 127.53176,125.11157 C 168.69548,111.47452 187.13076,107.68644 187.13076,107.68644 187.13076,107.68644 211.62696,101.62553 230.06224,99.605223 248.49753,97.584918 271.73103,89.756236 291.17647,87.988469 310.62191,86.220702 342.94679,82.43263 347.99755,82.43263 353.04831,82.43263 371.73614,76.624252 374.26152,76.119176 376.7869,75.6141 391.18157,78.897096 401.78818,83.947858 412.39478,88.998621 414.66762,91.524003 414.66762,91.524003 414.66762,91.524003 405.07117,98.59507 381.83766,97.079842 358.60415,95.564613 316.93536,97.837456 316.93536,97.837456 316.93536,97.837456 275.26657,104.40345 260.61936,107.18137 245.97215,109.95929 226.27417,110.7169 216.17264,114.50497 206.07112,118.29305 197.23228,121.3235 179.04954,127.88949 160.86679,134.45549 149.25004,133.44533 149.25004,133.44533 Z"
     id="path838"
     inkscape:connector-curvature="0" />
  <path
     style="fill:#000000;fill-rule:evenodd;stroke:none;stroke-width:1px;stroke-linecap:butt;stroke-linejoin:miter;stroke-opacity:1;fill-opacity:1"
     d="M 226.77925,152.13316 C 251.52798,146.32478 286.37825,139.00117 286.37825,139.00117 L 324.51151,132.18264 332.84526,128.39457 337.89603,120.06081 348.75517,117.28289 C 348.75517,117.28289 361.63461,131.17249 362.8973,131.9301 364.15999,132.68772 376.53436,141.27402 376.53436,141.27402 376.53436,141.27402 379.56482,149.60777 379.56482,150.61793 379.56482,151.62808 353.55339,212.48977 353.55339,212.48977 L 340.42141,219.05576 332.84526,212.23723 C 332.84526,212.23723 338.14856,211.47962 341.6841,189.00372 345.21963,166.52783 345.72471,156.17377 342.94679,152.13316 340.16887,148.09255 335.62318,144.05193 330.57242,145.31463 325.52166,146.57732 315.67267,147.84001 302.28815,151.123 288.90363,154.406 273.75134,156.17377 264.15489,160.21438 254.55844,164.25499 251.02291,170.06336 245.21453,168.04306 239.40615,166.02275 227.7894,159.45676 227.7894,159.45676 227.7894,159.45676 218.44549,155.92123 226.77925,152.13316 Z"
     id="path840"
     inkscape:connector-curvature="0" />
  <path
     style="fill:#000000;fill-rule:evenodd;stroke:none;stroke-width:1px;stroke-linecap:butt;stroke-linejoin:miter;stroke-opacity:1;fill-opacity:1"
     d="M 192.32143,246.82143 C 186.5042,245.15383 238.39286,227.53571 266.60714,222.53571 294.82143,217.53571 328.92857,210.21429 328.92857,210.21429 L 348.57143,209.32143 C 348.57143,209.32143 359.82143,209.85714 366.60714,213.60714 373.39286,217.35714 372.85714,221.28571 372.85714,221.28571 L 356.78572,225.92857 C 356.78572,225.92857 342.5,224.32143 328.57143,226.46429 314.64286,228.60714 307.32143,230.57143 287.85714,233.25 268.39286,235.92857 266.96429,236.82143 244.64286,245.21429 222.32143,253.60714 226.90887,254.72063 217.85714,255.03571 208.57457,255.35884 192.32143,246.82143 192.32143,246.82143 Z"
     id="path842"
     inkscape:connector-curvature="0"
     sodipodi:nodetypes="ssccsccsssss" />
</svg>
