<?xml version="1.0" encoding="UTF-8" standalone="no"?>
<!-- Created with Inkscape (http://www.inkscape.org/) -->

<svg
   xmlns:dc="http://purl.org/dc/elements/1.1/"
   xmlns:cc="http://creativecommons.org/ns#"
   xmlns:rdf="http://www.w3.org/1999/02/22-rdf-syntax-ns#"
   xmlns:svg="http://www.w3.org/2000/svg"
   xmlns="http://www.w3.org/2000/svg"
   xmlns:sodipodi="http://sodipodi.sourceforge.net/DTD/sodipodi-0.dtd"
   xmlns:inkscape="http://www.inkscape.org/namespaces/inkscape"
   width="512"
   height="512"
   viewBox="0 0 512 512"
   version="1.1"
   id="svg970"
   inkscape:version="0.92.4 (5da689c313, 2019-01-14)"
   sodipodi:docname="U+5EB6.svg">
  <defs
     id="defs964" />
  <sodipodi:namedview
     id="base"
     pagecolor="#ffffff"
     bordercolor="#666666"
     borderopacity="1.0"
     inkscape:pageopacity="0.0"
     inkscape:pageshadow="2"
     inkscape:zoom="0.7"
     inkscape:cx="149.05087"
     inkscape:cy="283.84791"
     inkscape:document-units="px"
     inkscape:current-layer="layer1-4"
     showgrid="false"
     units="px"
     inkscape:window-width="1050"
     inkscape:window-height="735"
     inkscape:window-x="98"
     inkscape:window-y="148"
     inkscape:window-maximized="0">
    <sodipodi:guide
       position="0,0"
       orientation="0,512"
       id="guide1551"
       inkscape:locked="false" />
    <sodipodi:guide
       position="512,0"
       orientation="-512,0"
       id="guide1553"
       inkscape:locked="false" />
    <sodipodi:guide
       position="512,512"
       orientation="0,-512"
       id="guide1555"
       inkscape:locked="false" />
    <sodipodi:guide
       position="0,512"
       orientation="512,0"
       id="guide1557"
       inkscape:locked="false" />
  </sodipodi:namedview>
  <metadata
     id="metadata967">
    <rdf:RDF>
      <cc:Work
         rdf:about="">
        <dc:format>image/svg+xml</dc:format>
        <dc:type
           rdf:resource="http://purl.org/dc/dcmitype/StillImage" />
        <dc:title></dc:title>
      </cc:Work>
    </rdf:RDF>
  </metadata>
  <g
     inkscape:label="圖層 1"
     inkscape:groupmode="layer"
     id="layer1"
     transform="translate(0,-161.53332)">
    <g
       transform="translate(0,1.0063477e-5)"
       id="layer1-4"
       inkscape:label="圖層 1">
      <path
         sodipodi:nodetypes="csssssssccccccscsssscsscssscsc"
         inkscape:connector-curvature="0"
         id="path33"
         d="M 202.875,201.15831 C 202.875,201.15831 218.98437,203.34581 220.10937,203.34581 221.23437,203.34581 226.10785,203.26241 233.9375,202.84581 241.97321,202.41823 243.20581,202.23283 245.70581,202.51186 248.23958,202.79466 256,204.78331 258.75,205.28331 261.5,205.78331 256.125,204.53331 262.25,206.03331 268.375,207.53331 273.875,208.90831 276.125,209.65831 278.375,210.40831 285.375,213.15831 286.125,213.65831 286.875,214.15831 293.125,217.78331 293.125,217.78331 L 298.125,221.65831 301.875,226.90831 304.125,232.03331 303.75,237.15831 302.25,239.90831 C 302.25,239.90831 298.625,242.40831 298.125,242.40831 297.625,242.40831 292.75,243.03331 292.75,243.03331 292.75,243.03331 288.09441,242.27685 285.75,242.03331 283.83954,241.83485 281.84766,242.18308 280,241.65831 278.54764,241.24581 277.49911,240.30614 276,239.53331 274.50089,238.76048 272.70141,238.08942 271,237.03331 269.29859,235.9772 265.875,233.15831 265.875,233.15831 265.875,233.15831 264.03375,232.08485 262.17969,231.06364 260.74157,230.27153 259.34706,230.1112 257.86719,229.18864 255.74892,227.8681 251.55459,224.86542 251.55459,224.86542 251.55459,224.86542 244.62532,221.65739 241,220.40831 235.91711,218.65703 230.61725,217.44143 225.75,215.15831 223.27866,213.99906 221.11371,212.27369 218.75,210.90831 213.27608,207.74635 202.875,201.15831 202.875,201.15831 Z"
         style="fill:#000000;fill-opacity:1;fill-rule:evenodd;stroke:none;stroke-width:1px;stroke-linecap:butt;stroke-linejoin:miter;stroke-opacity:1" />
      <path
         sodipodi:nodetypes="csssscsccscssscccccscc"
         inkscape:connector-curvature="0"
         id="path4546"
         d="M 163,258.03331 C 163,258.03331 172.5,258.03331 193.5,255.03331 214.5,252.03331 232,249.53331 244.5,248.03331 257,246.53331 275.59487,243.25884 276.8323,243.25884 278.06974,243.25884 310.59665,239.90008 315.01607,239.36975 319.43549,238.83942 332.16341,237.60198 334.28473,236.89487 336.40605,236.18777 345.77521,231.59157 356.02826,231.59157 366.28131,231.59157 373.35238,231.94513 374.76659,231.59157 376.18081,231.23802 391.3836,232.65223 394.56558,233.00579 397.74756,233.35934 419.4911,235.83421 417.01622,248.73891 414.54135,261.64361 383.0751,251.56734 383.0751,251.56734 383.0751,251.56734 370.63475,247.12965 364.12874,246.43101 352.52357,245.1848 344.00745,247.50148 329.15821,248.20858 314.30896,248.91569 287.79246,250.68346 283.7266,250.68346 279.66073,250.68346 257.56364,256.51709 257.56364,256.51709 L 229.63293,260.9365 200.46477,270.836 196.75246,277.90707 C 196.75246,277.90707 190.56528,283.91747 187.3833,281.08905 184.20132,278.26062 177.30702,278.61417 171.11984,272.25021 164.93266,265.88625 158.92225,261.99716 158.92225,261.99716 158.92225,261.99716 155.76404,256.89789 163,258.03331 Z"
         style="fill:#000000;fill-opacity:1;fill-rule:evenodd;stroke:none;stroke-width:1px;stroke-linecap:butt;stroke-linejoin:miter;stroke-opacity:1" />
      <path
         sodipodi:nodetypes="csccccccscccccccccscc"
         inkscape:connector-curvature="0"
         id="path4556"
         d="M 196.75246,277.90707 C 195.82706,279.20033 199.0321,272.04532 207.35906,291.51887 215.67301,310.96199 182.43355,394.57969 182.43355,394.57969 L 141.75,501.53331 101.5,566.53331 58,614.53331 43,627.53331 24,637.03331 C 24,637.03331 29.5625,625.84581 34,623.09581 38.4375,620.34581 51.667893,606.63686 51.667893,606.63686 L 67.75,584.40831 80.625,569.03331 99.702056,541.30434 118.5,508.03331 138,471.78331 161,414.28331 177,365.78331 187,316.53331 C 187,316.53331 191.20842,300.77701 191.0625,292.72081 190.9944,288.96126 189,281.78331 189,281.78331 Z"
         style="fill:#000000;fill-opacity:1;fill-rule:evenodd;stroke:none;stroke-width:1px;stroke-linecap:butt;stroke-linejoin:miter;stroke-opacity:1" />
      <path
         sodipodi:nodetypes="csscscssccc"
         inkscape:connector-curvature="0"
         id="path4558"
         d="M 248.90159,297.3525 C 248.19448,300.18093 255.7991,310.72805 258.09397,317.8586 261.70519,329.07927 264.33597,340.74855 265.16504,352.50683 265.71312,360.27998 263.75083,375.84136 263.75083,375.84136 263.75083,375.84136 264.41602,385.30463 267.99347,387.15506 272.10663,389.28259 281.4285,383.61953 281.4285,383.61953 281.4285,383.61953 282.94527,360.05501 283.54982,348.26419 284.11759,337.1907 287.88867,325.72554 284.96403,315.03017 283.48104,309.6069 275.77164,300.88804 275.77164,300.88804 L 256.67976,293.81697 Z"
         style="fill:#000000;fill-opacity:1;fill-rule:evenodd;stroke:none;stroke-width:1px;stroke-linecap:butt;stroke-linejoin:miter;stroke-opacity:1" />
      <path
         sodipodi:nodetypes="ssccczzssss"
         inkscape:connector-curvature="0"
         id="path4560"
         d="M 323.8549,265.5327 C 321.10721,271.35784 330.34403,277.0164 331.21519,283.39787 332.39473,292.03835 328.09755,309.37332 328.09755,309.37332 L 321.73358,348.26419 315.36962,375.13425 C 315.36962,375.13425 319.82084,381.62335 328.80465,376.54846 337.78846,371.47357 343.81634,346.30963 349.31075,332.70784 354.80516,319.10605 363.13055,308.63318 362.15999,295.23118 361.37445,284.38403 356.46387,273.64605 347.89653,266.94691 343.84128,263.77595 338.19484,262.65228 333.04729,262.70427 329.84156,262.73665 325.22259,262.63318 323.8549,265.5327 Z"
         style="fill:#000000;fill-opacity:1;fill-rule:evenodd;stroke:none;stroke-width:1px;stroke-linecap:butt;stroke-linejoin:miter;stroke-opacity:1" />
      <path
         inkscape:connector-curvature="0"
         id="path4562"
         d="M 332.34019,283.21037 C 332.34019,283.21037 332.34019,283.21037 332.34019,283.21037 Z"
         style="fill:none;fill-rule:evenodd;stroke:#000000;stroke-width:1px;stroke-linecap:butt;stroke-linejoin:miter;stroke-opacity:1" />
      <path
         sodipodi:nodetypes="cscccsscccccsccsscsscc"
         inkscape:connector-curvature="0"
         id="path4564"
         d="M 219.2031,331.64718 C 219.2031,331.64718 226.95531,333.20127 230.87036,333.0614 239.50905,332.75276 256.32621,328.11165 256.32621,328.11165 L 263.39728,326.34388 284.43371,323.51545 C 284.43371,323.51545 297.97057,319.22315 304.76302,318.02649 309.75376,317.14725 316.58251,317.09423 321.60729,316.4368 335.5742,314.6094 360.80123,306.27973 360.80123,306.27973 L 374.85498,298.94349 381.13055,297.70606 408.70772,307.252 417.54655,313.26241 C 417.54655,313.26241 424.61762,322.10124 406.23284,320.68703 387.84807,319.27281 363.45288,322.80835 363.45288,322.80835 L 347.54298,323.86901 C 347.54298,323.86901 330.33165,327.53613 320.67292,329.52586 316.11829,330.46413 311.42385,330.6383 306.88434,331.64718 297.05496,333.8317 277.89296,340.13246 277.89296,340.13246 277.89296,340.13246 257.8265,344.71532 247.84093,347.20353 245.59422,347.76337 243.42237,349.24684 241.12341,348.9713 233.00802,347.99864 219.55665,337.30404 219.55665,337.30404 Z"
         style="fill:#000000;fill-opacity:1;fill-rule:evenodd;stroke:none;stroke-width:1px;stroke-linecap:butt;stroke-linejoin:miter;stroke-opacity:1" />
      <path
         sodipodi:nodetypes="csscssssccccccc"
         inkscape:connector-curvature="0"
         id="path4578"
         d="M 204.00031,389.62994 C 206.82873,388.56928 208.24295,386.0944 230.87036,383.61953 253.49778,381.14466 270.84647,374.97697 287.43891,374.07359 305.80591,373.07359 314.7951,373.80842 328.01176,370.34872 337.5577,368.58095 352.13918,368.77029 362.74578,368.06318 373.35238,367.35607 402.69731,362.75988 403.40442,362.05277 404.11152,361.34567 416.48589,360.99211 428.86026,371.59872 441.23463,382.20532 444.06306,396.34745 423.91051,389.98349 L 383.60543,377.25557 359.91735,376.90202 331.21887,379.56623 306.88434,383.97308 269.71834,390.61477 231.57747,406.24695 C 231.57747,406.24695 208.24295,398.46877 204.00031,389.62994 Z"
         style="fill:#000000;fill-opacity:1;fill-rule:evenodd;stroke:none;stroke-width:1px;stroke-linecap:butt;stroke-linejoin:miter;stroke-opacity:1" />
      <path
         sodipodi:nodetypes="ssccssssss"
         inkscape:connector-curvature="0"
         id="path4580"
         d="M 211.12315,423.84251 C 214.72439,435.96962 214.08026,443.55571 217.31033,457.25331 220.37946,470.26841 224.06446,480.05122 223.88769,480.9351 223.71091,481.81899 223.26897,487.741 219.91021,491.27654 216.42645,495.12457 212.21448,502.46887 208.5965,499.58504 204.53952,496.35129 199.22734,491.63009 196.57568,487.21067 193.92403,482.79126 194.38078,476.48947 195.78647,471.41505 197.04744,466.86305 198.914,463.20087 200.13083,458.4166 201.59888,452.64458 202.3574,448.01302 203.91636,441.89334 205.66256,435.03865 209.21175,417.40589 211.12315,423.84251 Z"
         style="fill:#000000;fill-opacity:1;fill-rule:evenodd;stroke:none;stroke-width:1px;stroke-linecap:butt;stroke-linejoin:miter;stroke-opacity:1" />
      <path
         sodipodi:nodetypes="csssssssc"
         inkscape:connector-curvature="0"
         id="path4582"
         d="M 280.5,428.28331 C 280.5,428.28331 292.25,433.28331 295.25,449.28331 298.25,465.28331 298.78133,461.19279 298.5,467.28331 298.35633,470.39358 298.18171,474.06191 296,476.28331 293.74604,478.57828 291,481.78331 286.75,479.03331 282.5,476.28331 275.75,471.53331 275,464.53331 274.25,457.53331 273.11873,447.48453 273.75,442.78331 274.36612,438.19492 273.66421,436.34397 276,432.03331 278.36415,427.67031 280.5,428.28331 280.5,428.28331 Z"
         style="fill:#000000;fill-opacity:1;fill-rule:evenodd;stroke:none;stroke-width:1px;stroke-linecap:butt;stroke-linejoin:miter;stroke-opacity:1" />
      <path
         sodipodi:nodetypes="cssscscscscc"
         inkscape:connector-curvature="0"
         id="path4584"
         d="M 328.22255,423.06738 C 335.29361,437.3863 333.99462,448.33112 339.94158,458.2193 342.43597,462.36679 342.77001,466.35102 349.6643,469.00267 356.55859,471.65432 357.79603,472.36143 359.91735,472.00788 362.03867,471.65432 365.39743,464.93681 365.39743,464.93681 365.39743,464.93681 365.05552,458.44297 364.69032,455.21409 364.42901,452.90369 363.62966,448.3198 363.62966,448.3198 363.62966,448.3198 361.13858,441.06755 358.85669,438.06675 357.26279,435.97068 352.84628,432.94023 352.84628,432.94023 352.84628,432.94023 346.67545,428.69244 343.30034,427.1066 339.18514,425.17302 330.39564,422.68718 330.39564,422.68718 Z"
         style="fill:#000000;fill-opacity:1;fill-rule:evenodd;stroke:none;stroke-width:1px;stroke-linecap:butt;stroke-linejoin:miter;stroke-opacity:1" />
      <path
         sodipodi:nodetypes="sssscsssccccsss"
         inkscape:connector-curvature="0"
         id="path4586"
         d="M 399.16178,418.44454 C 409.06127,420.74264 417.04281,423.1044 424.97117,427.63693 428.6391,429.73383 431.49087,433.01342 434.69389,435.76866 437.7953,438.4365 441.37317,440.67232 443.88628,443.90038 446.41188,447.14447 449.54313,454.86054 449.54313,454.86054 449.54313,454.86054 451.3109,464.2297 451.3109,464.93681 451.3109,465.64392 450.43146,470.83798 449.36636,473.59887 448.63504,475.49456 448.28842,478.25865 446.36115,478.90217 442.58151,480.16421 435.401,474.1292 435.401,474.1292 L 426.38539,463.69937 418.60721,450.6179 412.95036,441.07196 C 412.95036,441.07196 409.74141,436.63766 407.91222,434.35444 405.59231,431.45869 401.9594,429.5468 400.31082,426.22271 399.22186,424.02701 390.26583,416.3794 399.16178,418.44454 Z"
         style="fill:#000000;fill-opacity:1;fill-rule:evenodd;stroke:none;stroke-width:1px;stroke-linecap:butt;stroke-linejoin:miter;stroke-opacity:1" />
    </g>
  </g>
</svg>
