<?xml version="1.0" encoding="UTF-8" standalone="no"?>
<!-- Created with Inkscape (http://www.inkscape.org/) -->

<svg
   xmlns:dc="http://purl.org/dc/elements/1.1/"
   xmlns:cc="http://creativecommons.org/ns#"
   xmlns:rdf="http://www.w3.org/1999/02/22-rdf-syntax-ns#"
   xmlns:svg="http://www.w3.org/2000/svg"
   xmlns="http://www.w3.org/2000/svg"
   xmlns:sodipodi="http://sodipodi.sourceforge.net/DTD/sodipodi-0.dtd"
   xmlns:inkscape="http://www.inkscape.org/namespaces/inkscape"
   width="512"
   height="512"
   viewBox="0 0 512 512"
   version="1.1"
   id="svg8"
   inkscape:version="0.92.4 (5da689c313, 2019-01-14)">
  <defs
     id="defs2" />
  <sodipodi:namedview
     id="base"
     pagecolor="#ffffff"
     bordercolor="#666666"
     borderopacity="1.0"
     inkscape:pageopacity="0.0"
     inkscape:pageshadow="2"
     inkscape:zoom="0.98994949"
     inkscape:cx="316.48391"
     inkscape:cy="337.95419"
     inkscape:document-units="px"
     inkscape:current-layer="g946"
     showgrid="false"
     units="px"
     inkscape:window-width="1194"
     inkscape:window-height="991"
     inkscape:window-x="-7"
     inkscape:window-y="0"
     inkscape:window-maximized="0">
    <sodipodi:guide
       position="0,0"
       orientation="0,512"
       id="guide948"
       inkscape:locked="false" />
    <sodipodi:guide
       position="512,0"
       orientation="-512,0"
       id="guide950"
       inkscape:locked="false" />
    <sodipodi:guide
       position="512,512"
       orientation="0,-512"
       id="guide952"
       inkscape:locked="false" />
    <sodipodi:guide
       position="0,512"
       orientation="512,0"
       id="guide954"
       inkscape:locked="false" />
    <sodipodi:guide
       position="0,0"
       orientation="0,512"
       id="guide956"
       inkscape:locked="false" />
    <sodipodi:guide
       position="512,0"
       orientation="-512,0"
       id="guide958"
       inkscape:locked="false" />
    <sodipodi:guide
       position="512,512"
       orientation="0,-512"
       id="guide960"
       inkscape:locked="false" />
    <sodipodi:guide
       position="0,512"
       orientation="512,0"
       id="guide962"
       inkscape:locked="false" />
  </sodipodi:namedview>
  <metadata
     id="metadata5">
    <rdf:RDF>
      <cc:Work
         rdf:about="">
        <dc:format>image/svg+xml</dc:format>
        <dc:type
           rdf:resource="http://purl.org/dc/dcmitype/StillImage" />
        <dc:title></dc:title>
      </cc:Work>
    </rdf:RDF>
  </metadata>
  <g
     inkscape:label="圖層 1"
     inkscape:groupmode="layer"
     id="layer1"
     transform="translate(0,-161.53334)">
    <g
       id="g946"
       transform="translate(0,161.53334)">
      <g
         transform="translate(0,-161.53331)"
         id="layer1-0"
         inkscape:label="圖層 1" />
      <path
         sodipodi:nodetypes="sscsssssccassscscscczcscsscsssccssscss"
         inkscape:connector-curvature="0"
         id="path4539"
         d="M 166.51786,66.464285 C 161.33386,70.464537 175.23877,79.791182 171.60715,85.125 160.08348,102.04995 134.64286,132.71429 134.64286,132.71429 134.64286,132.71429 121.98022,135.58519 117.5,139.85714 113.87726,143.31147 111.42027,148.43507 111.07143,153.42857 110.51515,161.39157 113.21428,175.21429 118.21428,176.28572 123.21428,177.35715 161.96428,154.67858 165.89286,154.14286 169.80146,153.60987 175.17857,153.07142 174.46428,155.57143 173.75,158.07142 168.75,161.10714 165.89286,163.96428 163.03571,166.82142 127.14286,193.42857 127.14286,193.42857 127.14286,193.42857 120.28423,198.25492 119.28571,202 117.74552,207.77672 118.07889,216.43891 123.21429,219.5 131.5017,224.43992 139.28571,218.42858 151.07143,211.64286 162.85714,204.85715 163.48849,201.28571 170.98849,197.71429 178.48849,194.14286 195.71429,186.28571 195.71429,186.28571 195.71429,186.28571 200.86064,183.04727 200,180.92857 199.27757,179.15011 194.28571,180.21429 194.28571,180.21429 194.28571,180.21429 186.25934,182.28502 182.24746,183.15436 178.72615,183.91741 171.78571,185.21429 171.78571,185.21429 L 165.52674,186.61222 C 165.52674,186.61222 159.43561,190.34875 157.70921,188.26269 155.98281,186.17663 162.85714,177.35714 162.85714,177.35714 162.85714,177.35714 166.99336,172.34499 169.20278,170.10968 182.26044,156.89897 212.5,135.57143 212.5,135.57143 212.5,135.57143 216.55274,131.97845 217.14286,129.5 218.04062,125.7295 216.90268,121.44818 215,118.07143 213.51006,115.42718 208.21429,112 208.21429,112 208.21429,112 204.00339,107.87923 201.78571,108.78571 194.32803,111.83404 198.84876,125.26312 193.92857,131.64286 192.61791,133.34232 190.59694,134.50484 188.57143,135.21429 178.08383,138.88768 155.35714,138.07143 155.35714,138.07143 L 153.92857,137 C 153.92857,137 171.78571,113.42857 180.35714,105.92857 188.92857,98.428571 189.44038,99.52082 192.14286,94.857142 193.43134,92.633605 194.48712,89.865593 193.92857,87.357142 191.833,77.945959 181.07143,61.999999 181.07143,61.999999 181.07143,61.999999 180.07303,59.026123 178.30357,58.785714 173.57278,58.142959 166.51786,66.464285 166.51786,66.464285 Z"
         style="fill:#000000;fill-opacity:1;fill-rule:evenodd;stroke:none;stroke-width:1px;stroke-linecap:butt;stroke-linejoin:miter;stroke-opacity:1" />
      <path
         sodipodi:nodetypes="sscssccccsss"
         inkscape:connector-curvature="0"
         id="path4543"
         d="M 209.64286,160.21429 C 211.97151,157.54864 214.64286,156.64286 219.64286,163.78571 224.64286,170.92857 231.42857,180.21429 231.42857,180.21429 231.42857,180.21429 235.86903,185.79445 236.07143,189.14286 236.19417,191.17344 232.91842,193.42857 232.91842,194.85714 232.91842,196.28571 227.20414,195.57143 227.20414,195.57143 L 222.14286,194.85714 216.51151,189.5 213.08802,184.41706 C 213.08802,184.41706 208.33034,177.53401 207.5,173.78571 207.18996,172.38612 207.03063,169.27868 207.22579,167.8585 207.6549,164.7359 207.28461,162.91382 209.64286,160.21429 Z"
         style="fill:#000000;fill-opacity:1;fill-rule:evenodd;stroke:none;stroke-width:1px;stroke-linecap:butt;stroke-linejoin:miter;stroke-opacity:1" />
      <path
         sodipodi:nodetypes="scssssscscssssss"
         inkscape:connector-curvature="0"
         id="path4553"
         d="M 235.87062,77.634405 C 240.66228,72.77772 270.21581,146.82985 270.21581,146.82985 270.21581,146.82985 267.69042,172.58874 270.21581,191.78164 272.74119,210.97454 289.81141,264.4564 292.43916,268.3007 295.84843,273.28833 321.22851,319.06086 327.7945,333.203 334.36049,347.34514 354.05847,367.54819 374.26152,394.8223 394.46457,422.09642 420.14206,443.24835 426.70805,443.24835 433.27405,443.24835 449.20099,429.06071 449.20099,429.06071 449.20099,429.06071 464.90682,417.32105 465.94555,419.36183 472.35551,431.95548 453.11469,474.52193 453.11469,474.52193 453.11469,474.52193 447.98725,492.26256 444.46712,490.7868 425.49231,482.83192 403.64987,452.12268 398.0001,445.32993 391.84728,437.93236 357.43834,404.71117 338.69697,380.23637 319.7693,355.51827 293.84775,320.74322 278.38369,278.86398 255.51287,216.92603 241.84301,168.34053 237.38584,133.1928 231.06536,83.351503 226.88305,86.743944 235.87062,77.634405 Z"
         style="fill:#000000;fill-opacity:1;fill-rule:evenodd;stroke:none;stroke-width:1px;stroke-linecap:butt;stroke-linejoin:miter;stroke-opacity:1" />
      <path
         sodipodi:nodetypes="cscccsscsscsscsssssscsscsccccscsssc"
         inkscape:connector-curvature="0"
         id="path4555"
         d="M 328.29958,67.027803 C 328.29958,67.027803 335.37065,68.79557 340.42141,76.876791 345.47217,84.958011 339.91633,93.796846 339.91633,93.796846 L 321.73359,107.18137 301.77038,125.82586 C 301.77038,125.82586 301.78307,129.40472 317.44044,128.39457 333.0978,127.38442 334.90539,129.99488 342.44171,126.37427 353.28445,121.16518 367.19045,100.1103 367.19045,100.1103 367.19045,100.1103 368.43705,96.773654 369.71583,97.079842 375.5942,98.487346 373.5039,103.89837 373.75644,114.75751 374.00898,125.61665 349.0077,139.75879 349.0077,139.75879 349.0077,139.75879 324.03736,157.15522 321.03725,165.04323 319.31038,169.58359 323.24881,168.54813 334.36049,166.78037 345.47217,165.0126 363.65492,161.7296 363.65492,161.7296 363.65492,161.7296 365.17015,162.49991 365.92776,159.46945 366.68537,156.43899 360.877,145.8197 362.8973,145.8197 364.91761,145.8197 374.51406,147.33493 382.0902,152.89077 389.66634,158.44661 400.52548,167.53798 403.05087,171.07352 405.57625,174.60905 412.14224,203.65094 396.73741,191.02403 381.33259,178.39712 375.01913,167.03291 369.21076,166.78037 363.40238,166.52783 321.22851,181.68012 315.16759,183.70042 309.10668,185.72073 289.66124,204.40855 287.64094,194.8121 285.62063,185.21565 285.6946,167.05085 291.75552,164.52547 297.81643,162.00009 307.39493,159.77058 312.95077,154.97235 318.50661,150.17413 325.24949,149.30321 328.81734,143.14638 329.5198,141.93419 327.7945,139.25371 327.7945,139.25371 L 321.48105,139.50625 304.30845,145.06209 294.45947,148.85016 C 294.45947,148.85016 275.01403,152.38569 278.54956,140.01132 282.0851,127.63696 290.16632,123.59635 290.16632,123.59635 290.16632,123.59635 305.87683,104.43269 312.3284,93.692241 315.55003,88.328933 318.9081,83.840696 320.97597,76.876791 322.588,71.447994 328.29958,67.027803 328.29958,67.027803 Z"
         style="fill:#000000;fill-opacity:1;fill-rule:evenodd;stroke:none;stroke-width:1px;stroke-linecap:butt;stroke-linejoin:miter;stroke-opacity:1" />
      <path
         sodipodi:nodetypes="ssssccssssssssss"
         inkscape:connector-curvature="0"
         id="path4557"
         d="M 14.231872,264.62255 C 60.829168,255.36984 77.5,249.85714 113.92857,243.42857 150.35714,237 150.71429,233.42857 190,228.07143 229.28571,222.71429 275,217.71429 289.28571,217 303.57143,216.28571 354.64286,214.5 361.07143,214.14286 367.5,213.78571 375.77675,208.44916 375.77675,208.44916 375.77675,208.44916 388.40365,209.96439 403.05087,219.05576 417.69808,228.14713 427.7996,241.78419 416.68793,241.27912 405.57625,240.77404 381.83766,233.70297 370.22091,232.18774 358.60415,230.67252 346.9874,228.65221 331.83511,228.65221 316.68282,228.65221 317.87155,224.99938 299.00515,226.12683 280.24192,227.24812 286.37825,227.64206 243.44676,231.68267 200.51528,235.72328 196.47467,236.22835 164.65486,244.30958 132.83506,252.3908 148.49242,245.31973 108.5914,263.50247 68.690373,281.68522 74.256336,289.99728 66.164992,287.24106 51.126801,282.11848 -3.3361823,268.111 14.231872,264.62255 Z"
         style="fill:#000000;fill-opacity:1;fill-rule:evenodd;stroke:none;stroke-width:1px;stroke-linecap:butt;stroke-linejoin:miter;stroke-opacity:1" />
      <path
         sodipodi:nodetypes="ccssccssssscccsscsssccsscsccc"
         inkscape:connector-curvature="0"
         id="path4559"
         d="M 203.92857,200.92857 C 205.71429,201.28571 221.07143,207 221.07143,207 221.07143,207 233.92857,217.35714 232.5,223.78571 231.07143,230.21429 226.42857,242.71429 217.85714,256.64286 209.28571,270.57143 207.85714,273.78571 207.85714,273.78571 207.85714,273.78571 243.57143,260.57143 248.21429,261.28571 252.85714,262 271.78571,274.85714 269.28571,282.71429 266.78571,290.57143 251.78571,318.78571 241.78571,336.28571 231.78571,353.78571 223.21429,367.71429 212.14286,383.07143 201.07143,398.42857 184.28571,413.42857 177.85714,418.07143 171.42857,422.71429 153.57143,424.85714 156.07143,417 158.57143,409.14286 160.71429,397.71429 160.71429,397.71429 L 147.14286,372.35714 V 367.35714 C 147.14286,367.35714 157.14286,368.78571 167.85714,373.78571 178.57143,378.78571 185.35714,382 190,376.28571 194.64286,370.57143 204.64286,362 208.92857,355.57143 213.21429,349.14286 221.78571,334.5 235.35714,313.42857 248.92857,292.35714 260.71429,273.78571 236.78571,279.5 212.85714,285.21429 190,288.78571 183.92857,293.42857 177.85714,298.07143 165.35714,304.85714 160.35714,309.14286 155.35714,313.42857 147.14286,319.5 143.21429,314.5 139.28571,309.5 126.42857,301.28571 130,295.92857 133.57143,290.57143 139.64286,294.85714 152.85714,289.5 166.07143,284.14286 191.42857,275.92858 191.42857,275.92858 191.42857,275.92858 204.1281,248.46042 205,242.35714 L 208.21429,219.85714 203.21429,205.57143 Z"
         style="fill:#000000;fill-opacity:1;fill-rule:evenodd;stroke:none;stroke-width:1px;stroke-linecap:butt;stroke-linejoin:miter;stroke-opacity:1" />
      <path
         inkscape:connector-curvature="0"
         id="path4561"
         d="M 348.21429,251.28571 C 348.21429,251.28571 357.85714,250.21429 368.57143,259.5 379.28571,268.78571 382.14286,288.07143 375.71429,288.78571 369.28571,289.5 366.78571,288.42857 359.28571,274.14286 351.78571,259.85714 348.21429,251.28571 348.21429,251.28571 Z"
         style="fill:#000000;fill-opacity:1;fill-rule:evenodd;stroke:none;stroke-width:1px;stroke-linecap:butt;stroke-linejoin:miter;stroke-opacity:1" />
    </g>
  </g>
</svg>
