<?xml version="1.0" encoding="UTF-8" standalone="no"?>
<!-- Created with Inkscape (http://www.inkscape.org/) -->

<svg
   xmlns:dc="http://purl.org/dc/elements/1.1/"
   xmlns:cc="http://creativecommons.org/ns#"
   xmlns:rdf="http://www.w3.org/1999/02/22-rdf-syntax-ns#"
   xmlns:svg="http://www.w3.org/2000/svg"
   xmlns="http://www.w3.org/2000/svg"
   xmlns:sodipodi="http://sodipodi.sourceforge.net/DTD/sodipodi-0.dtd"
   xmlns:inkscape="http://www.inkscape.org/namespaces/inkscape"
   width="512"
   height="512"
   viewBox="0 0 512 512"
   version="1.1"
   id="svg8"
   inkscape:version="0.92.4 (5da689c313, 2019-01-14)"
   sodipodi:docname="U+6555.svg">
  <defs
     id="defs2" />
  <sodipodi:namedview
     id="base"
     pagecolor="#ffffff"
     bordercolor="#666666"
     borderopacity="1.0"
     inkscape:pageopacity="0.0"
     inkscape:pageshadow="2"
     inkscape:zoom="0.98994949"
     inkscape:cx="241.90433"
     inkscape:cy="299.22944"
     inkscape:document-units="px"
     inkscape:current-layer="layer1"
     showgrid="false"
     units="px"
     inkscape:window-width="1920"
     inkscape:window-height="1001"
     inkscape:window-x="-9"
     inkscape:window-y="-9"
     inkscape:window-maximized="1" />
  <metadata
     id="metadata5">
    <rdf:RDF>
      <cc:Work
         rdf:about="">
        <dc:format>image/svg+xml</dc:format>
        <dc:type
           rdf:resource="http://purl.org/dc/dcmitype/StillImage" />
        <dc:title></dc:title>
      </cc:Work>
    </rdf:RDF>
  </metadata>
  <g
     inkscape:label="圖層 1"
     inkscape:groupmode="layer"
     id="layer1"
     transform="translate(0,-161.53331)">
    <path
       style="fill:#000000;fill-rule:evenodd;stroke:none;stroke-width:1px;stroke-linecap:butt;stroke-linejoin:miter;stroke-opacity:1;fill-opacity:1"
       d="M 174.75639,191.69055 C 174.75639,191.69055 186.37314,205.32761 188.39345,209.36821 190.41375,213.40883 196.47467,243.20833 196.47467,243.20833 L 181.82746,391.19567 178.03939,493.97869 175.514,561.91145 C 175.514,561.91145 164.9074,560.64876 160.10918,556.60815 155.31095,552.56754 153.29065,552.315 153.29065,552.315 L 154.80588,565.44699 C 154.80588,565.44699 171.97847,604.84294 172.23101,605.85309 172.48355,606.86324 184.35284,616.71223 185.36299,616.96477 186.37314,617.21731 192.6866,610.14624 192.6866,610.14624 L 193.69675,586.66019 187.63584,561.15384 185.11045,513.67667 185.61553,465.69442 194.45437,353.06241 203.54574,297.25149 C 203.54574,297.25149 206.82873,250.53193 208.84904,248.00655 210.86934,245.48117 220.97087,231.59157 221.98102,231.0865 222.99117,230.58142 220.97087,217.95451 221.72848,216.94436 222.4861,215.93421 206.32366,192.19562 206.32366,192.19562 L 195.46452,183.60933 181.32238,176.53826 179.04954,176.7908 Z"
       id="path837"
       inkscape:connector-curvature="0" />
    <path
       style="fill:#000000;fill-rule:evenodd;stroke:none;stroke-width:1px;stroke-linecap:butt;stroke-linejoin:miter;stroke-opacity:1;fill-opacity:1"
       d="M 111.36932,278.05859 C 111.36932,278.05859 134.09775,277.30097 186.62568,266.94691 239.15362,256.59285 248.49753,248.76416 254.05337,250.78447 259.6092,252.80477 275.26657,260.12838 275.77165,261.13853 276.27672,262.14869 282.0851,268.2096 282.0851,268.2096 282.0851,268.2096 274.76149,274.77559 272.48865,275.53321 270.21581,276.29082 255.56859,270.48244 238.14346,271.24006 220.71833,271.99767 204.55589,273.5129 179.04954,282.85681 153.54319,292.20072 137.12821,298.76672 136.11806,298.76672 135.1079,298.76672 132.07745,300.02941 131.06729,299.77687 130.05714,299.52433 109.09648,280.58397 109.09648,280.58397 Z"
       id="path839"
       inkscape:connector-curvature="0" />
    <path
       style="fill:#000000;fill-rule:evenodd;stroke:none;stroke-width:1px;stroke-linecap:butt;stroke-linejoin:miter;stroke-opacity:1;fill-opacity:1"
       d="M 103.03556,332.85936 140.66374,345.73881 157.07872,367.20455 162.12948,378.31623 C 162.12948,378.31623 162.38202,388.92283 161.87695,389.93298 161.37187,390.94314 150.76527,396.24644 150.76527,396.24644 L 145.20943,377.30608 C 145.20943,377.30608 139.40105,364.67917 136.87567,364.67917 134.35029,364.67917 112.63201,357.6081 112.63201,357.6081 L 95.459416,332.35429 Z"
       id="path841"
       inkscape:connector-curvature="0" />
    <path
       style="fill:#000000;fill-rule:evenodd;stroke:none;stroke-width:1px;stroke-linecap:butt;stroke-linejoin:miter;stroke-opacity:1;fill-opacity:1"
       d="M 242.94169,303.3124 C 242.43661,304.32255 229.55717,348.01165 228.54701,349.0218 227.53686,350.03196 212.13203,379.07384 212.13203,379.07384 L 219.96072,381.59922 228.54701,362.15379 254.81098,338.16266 C 254.81098,338.16266 272.99373,330.83906 270.97342,326.54591 268.95312,322.25276 278.29703,316.69692 262.38712,308.36316 246.47722,300.02941 242.94169,303.3124 242.94169,303.3124 Z"
       id="path843"
       inkscape:connector-curvature="0" />
    <path
       style="fill:#000000;fill-rule:evenodd;stroke:none;stroke-width:1px;stroke-linecap:butt;stroke-linejoin:miter;stroke-opacity:1;fill-opacity:1"
       d="M 29.285714,422.81902 C 29.285714,422.81902 34.642857,411.39045 107.5,401.03331 180.35714,390.67617 228.57143,382.81902 232.14286,381.7476 235.71429,380.67617 251.78571,375.31902 251.78571,375.31902 L 262.5,371.39045 289.64286,375.67617 299.64286,381.03331 301.07143,388.89045 285,397.10474 260,390.31902 C 260,390.31902 231.42857,391.7476 228.57143,392.10474 225.71429,392.46188 198.21429,396.7476 196.78571,397.10474 195.35714,397.46188 165,397.81902 122.85714,412.10474 80.714286,426.39045 62.5,438.53331 62.5,438.53331 L 54.642857,442.46188 28.571429,426.7476 Z"
       id="path845"
       inkscape:connector-curvature="0" />
    <path
       style="fill:#000000;fill-rule:evenodd;stroke:none;stroke-width:1px;stroke-linecap:butt;stroke-linejoin:miter;stroke-opacity:1;fill-opacity:1"
       d="M 199.28571,377.10474 C 199.28571,377.10474 208.92857,395.31902 160.71429,440.67617 112.5,486.03331 102.85714,499.96188 63.928572,519.96188 25,539.96188 24.285714,541.39045 24.285714,541.39045 L 54.285714,544.96188 C 54.285714,544.96188 94.642857,533.53331 129.64286,502.81902 164.64286,472.10474 190,440.31902 195,425.31902 200,410.31902 208.92857,391.7476 208.92857,391.7476 L 212.13203,379.07384 200.71429,376.03331 Z"
       id="path847"
       inkscape:connector-curvature="0" />
    <path
       style="fill:#000000;fill-rule:evenodd;stroke:none;stroke-width:1px;stroke-linecap:butt;stroke-linejoin:miter;stroke-opacity:1;fill-opacity:1"
       d="M 190,452.10474 208.92857,453.17617 C 208.92857,453.17617 222.85714,453.53331 236.78571,464.96188 250.71429,476.39045 255.35714,468.17617 253.57143,485.31902 251.78571,502.46188 248.92857,510.31902 241.78571,503.53331 234.64286,496.7476 213.21429,477.10474 211.78571,476.7476 210.35714,476.39045 200.71429,466.39045 199.28571,465.67617 197.85714,464.96188 190,458.89045 190,458.89045 L 176.78571,452.10474 Z"
       id="path849"
       inkscape:connector-curvature="0" />
    <path
       style="fill:#000000;fill-rule:evenodd;stroke:none;stroke-width:1px;stroke-linecap:butt;stroke-linejoin:miter;stroke-opacity:1;fill-opacity:1"
       d="M 361.07143,415.31902 401.07143,395.31902 444.28571,384.96188 457.5,388.53331 C 457.5,388.53331 460,397.81902 460.35714,399.96188 460.71429,402.10474 412.5,514.96188 412.5,514.96188 L 392.5,552.10474 C 392.5,552.10474 388.57143,556.03331 386.07143,556.03331 383.57143,556.03331 363.92857,538.53331 363.92857,538.53331 L 349.28571,532.46188 363.57143,566.39045 370.71429,592.46188 374.64286,598.17617 389.64286,588.89045 C 389.64286,588.89045 419.64286,547.81902 440.71429,500.67617 461.78572,453.53331 481.07143,408.89045 481.07143,408.89045 481.07143,408.89045 487.5,407.46188 489.28572,402.81902 491.07143,398.17617 494.64286,393.53331 493.21429,392.46188 491.78572,391.39045 472.14286,381.39045 472.14286,381.39045 L 453.57143,362.81902 443.92857,363.17617 423.21429,374.2476 368.21429,387.81902 333.21429,385.31902 C 333.21429,385.31902 335.35714,394.60474 336.42857,396.7476 337.5,398.89045 346.42857,411.39045 346.42857,411.39045 Z"
       id="path851"
       inkscape:connector-curvature="0" />
    <path
       style="fill:#000000;fill-rule:evenodd;stroke:none;stroke-width:1px;stroke-linecap:butt;stroke-linejoin:miter;stroke-opacity:1;fill-opacity:1"
       d="M 370.71429,332.10474 366.78571,344.60474 377.85714,357.10474 380.71429,370.67617 C 380.71429,370.67617 367.5,422.46188 354.64286,441.7476 341.78571,461.03331 325.71429,488.89045 298.92857,514.60474 272.14286,540.31902 250,563.17617 248.57143,563.53331 247.14286,563.89045 227.85714,577.46188 227.85714,577.46188 L 258.92857,568.17617 C 258.92857,568.17617 287.14286,556.03331 313.57143,529.96188 340,503.89045 362.5,486.39045 377.14286,451.39045 391.78571,416.39045 401.07143,395.31902 401.07143,395.31902 L 416.07143,370.67617 402.5,347.10474 386.07143,334.60474 372.85714,327.10474 Z"
       id="path853"
       inkscape:connector-curvature="0" />
  </g>
</svg>
