<?xml version="1.0" encoding="UTF-8" standalone="no"?>
<!-- Created with Inkscape (http://www.inkscape.org/) -->

<svg
   xmlns:dc="http://purl.org/dc/elements/1.1/"
   xmlns:cc="http://creativecommons.org/ns#"
   xmlns:rdf="http://www.w3.org/1999/02/22-rdf-syntax-ns#"
   xmlns:svg="http://www.w3.org/2000/svg"
   xmlns="http://www.w3.org/2000/svg"
   xmlns:sodipodi="http://sodipodi.sourceforge.net/DTD/sodipodi-0.dtd"
   xmlns:inkscape="http://www.inkscape.org/namespaces/inkscape"
   width="512"
   height="512"
   viewBox="0 0 512 512"
   version="1.1"
   id="svg8"
   inkscape:version="0.92.4 (5da689c313, 2019-01-14)"
   sodipodi:docname="U+7406.svg">
  <defs
     id="defs2" />
  <sodipodi:namedview
     id="base"
     pagecolor="#ffffff"
     bordercolor="#666666"
     borderopacity="1.0"
     inkscape:pageopacity="0.0"
     inkscape:pageshadow="2"
     inkscape:zoom="2.8"
     inkscape:cx="93.954236"
     inkscape:cy="411.36351"
     inkscape:document-units="px"
     inkscape:current-layer="layer1-2"
     showgrid="false"
     units="px"
     inkscape:window-width="1920"
     inkscape:window-height="1001"
     inkscape:window-x="-9"
     inkscape:window-y="-9"
     inkscape:window-maximized="1" />
  <metadata
     id="metadata5">
    <rdf:RDF>
      <cc:Work
         rdf:about="">
        <dc:format>image/svg+xml</dc:format>
        <dc:type
           rdf:resource="http://purl.org/dc/dcmitype/StillImage" />
        <dc:title></dc:title>
      </cc:Work>
    </rdf:RDF>
  </metadata>
  <g
     inkscape:label="圖層 1"
     inkscape:groupmode="layer"
     id="layer1"
     transform="translate(0,-161.53332)">
    <g
       transform="matrix(3.7795276,0,0,3.7795276,-0.71430269,-448.27207)"
       id="layer1-2"
       inkscape:label="圖層 1">
      <g
         inkscape:label="圖層 1"
         id="layer1-1"
         transform="matrix(0.26458333,0,0,0.26458333,-0.02570229,118.63774)">
        <path
           style="fill:#000000;fill-opacity:1;fill-rule:evenodd;stroke:none;stroke-width:1px;stroke-linecap:butt;stroke-linejoin:miter;stroke-opacity:1"
           d="M 84.107143,273.53332 C 81.199229,270.38508 110,272.81903 112.85714,272.10475 115.71429,271.39046 165,255.67618 165,255.67618 L 178.57143,254.96189 C 178.57143,254.96189 183.57143,256.39046 184.28571,259.96189 185,263.53332 186.42857,268.53332 183.57143,269.96189 180.71429,271.39046 148.49409,283.278 130.71429,289.24761 122.45012,292.02233 114.13087,299.19702 105.71429,296.92617 95.465811,294.16106 84.107143,273.53332 84.107143,273.53332 Z"
           id="path826"
           inkscape:connector-curvature="0"
           sodipodi:nodetypes="sscccssss" />
        <path
           style="fill:#000000;fill-opacity:1;fill-rule:evenodd;stroke:none;stroke-width:1px;stroke-linecap:butt;stroke-linejoin:miter;stroke-opacity:1"
           d="M 128.57143,304.24761 C 124.99424,312.07321 123.36588,319.08376 122.14286,329.24761 120.91984,339.41146 121.3139,364.72839 121.3139,364.72839 L 121.2093,390.49761 C 121.2093,390.49761 120.80357,426.52202 116.76033,443.99507 114.63688,453.17166 109.28571,470.67618 109.28571,470.67618 109.28571,470.67618 106.09668,479.97198 102.14286,482.10475 93.980914,486.50747 80.757614,485.7554 74.329043,481.46969 67.900471,477.18397 63.452885,465.74173 63.788072,456.34714 64.114689,447.19275 69.615992,439.15327 75.714286,432.81903 84.215069,423.98934 96.608631,419.82992 107.85714,414.96189 121.4329,409.08669 135.45645,406.47276 150.12255,401.43379 153.50019,400.27331 153.60061,393.22227 152.14286,389.96189 149.66516,384.42031 144.27408,379.89939 138.57143,377.81903 131.18672,375.12505 122.4257,375.95449 115,378.53332 104.34147,382.23486 96.015417,391.17381 87.18247,398.19412 80.345299,403.62821 73.089864,408.91421 68.570115,416.29352 65.673673,421.02248 63.601507,425.88822 61.832985,430.78844 59.227237,438.00844 55.553371,444.44889 55,452.10475 54.58236,457.88278 56.785714,469.42618 56.785714,469.42618 L 63.077745,482.61449 C 63.077745,482.61449 66.146265,488.77622 71.973369,492.71601 L 79.770484,497.98775 C 79.770484,497.98775 80.054589,499.28201 89.903577,502.81754 L 99.752564,506.35307 C 99.752564,506.35307 108.33886,507.61576 110.86424,505.34292 110.86424,505.34292 112.61638,503.89754 113.38962,503.07008 117.11486,499.08365 121.15338,495.12052 123.49115,490.19063 125.63501,485.66965 126.31248,480.52562 126.77414,475.54342 127.20936,470.84649 127.05604,466.62333 127.02668,461.90637 127.00415,458.28575 126.66048,454.21432 126.74481,450.58679 126.86299,445.50314 127.27922,435.38986 127.27922,435.38986 L 126.90939,426.44642 126.55224,415.51331 126.73082,399.85595 126.52161,375.79086 C 126.52161,375.79086 126.01653,367.20456 128.54191,349.77943 L 131.06729,332.3543 C 131.06729,332.3543 130.46895,334.88668 132.14058,327.49294 133.78207,320.23247 134.09775,319.47485 134.09775,319.47485 134.09775,319.47485 134.60283,314.92917 138.3909,305.58525 142.17897,296.24134 144.27652,298.71407 142.17897,295.98881 140.42125,293.70508 136.0629,295.51473 133.59267,296.99896 131.07318,298.51279 129.79341,301.57436 128.57143,304.24761 Z"
           id="path828"
           inkscape:connector-curvature="0"
           sodipodi:nodetypes="szccscscsssssssssssccscscsssssscccccscscssss" />
        <path
           style="fill:#000000;fill-opacity:1;fill-rule:evenodd;stroke:none;stroke-width:1px;stroke-linecap:butt;stroke-linejoin:miter;stroke-opacity:1"
           d="M 60.089286,556.83689 C 66.55445,555.03373 66.932708,560.07191 70.591734,559.18075 L 93.214286,537.46189 125.71429,505.31903 150.35714,477.81903 C 150.35714,477.81903 161.19399,467.20749 170.41842,454.72916 179.24877,442.78393 175.5249,446.58541 179.01786,442.28332 179.97825,441.10046 182.53011,438.34491 183.57143,439.96189 187.48104,446.03279 173.21429,464.60475 173.21429,464.60475 L 133.21429,525.31903 86.071429,583.89046 C 86.071429,583.89046 82.142857,592.10475 76.428572,589.60475 L 70.714286,587.10475 C 70.714286,587.10475 63.214286,581.74761 60,575.67618 L 56.785714,569.60475 C 56.785714,569.60475 54.910715,561.03332 60.089286,556.83689 Z"
           id="path830"
           inkscape:connector-curvature="0"
           sodipodi:nodetypes="cccccssscccscscc" />
        <path
           style="fill:#000000;fill-opacity:1;fill-rule:evenodd;stroke:none;stroke-width:1px;stroke-linecap:butt;stroke-linejoin:miter;stroke-opacity:1"
           d="M 271.73103,270.22992 C 287.74347,267.56734 287.13586,278.81621 331.58257,269.72484 376.02928,260.63347 402.04071,256.34032 402.04071,256.34032 L 409.61686,248.2591 421.23361,249.77433 C 421.23361,249.77433 438.91128,256.34032 450.52804,269.4723 462.14479,282.60428 461.63971,291.19058 461.63971,291.19058 461.63971,291.19058 461.13464,286.64489 432.34529,342.20328 403.55594,397.76167 392.44426,400.79213 392.44426,400.79213 L 377.29198,389.17538 C 377.29198,389.17538 413.15239,297.2515 414.16254,290.18043 415.1727,283.10936 416.68793,271.49261 389.91888,275.02814 363.14984,278.56367 322.74374,288.16013 322.74374,288.16013 322.74374,288.16013 296.47977,298.76673 292.94424,298.76673 289.4087,298.76673 275.77165,294.72612 275.77165,294.72612 275.77165,294.72612 260.61936,284.37205 265.16504,277.80606 269.71073,271.24007 268.38362,270.78653 271.73103,270.22992 Z"
           id="path834"
           inkscape:connector-curvature="0"
           sodipodi:nodetypes="sscccscscccscsccs" />
        <path
           style="fill:#000000;fill-opacity:1;fill-rule:evenodd;stroke:none;stroke-width:1px;stroke-linecap:butt;stroke-linejoin:miter;stroke-opacity:1"
           d="M 233.34524,306.34287 C 241.91241,305.35291 253.54829,322.50531 253.54829,322.50531 L 261.62951,332.60684 266.1752,345.23374 271.22596,387.66015 273.24626,410.38858 257.08382,414.93427 C 257.08382,414.93427 251.59751,389.28819 248.49753,376.54847 246.15137,366.90664 252.05035,366.98188 240.92138,347.75912 L 229.8097,328.56623 227.7894,313.41394 C 227.7894,313.41394 230.36751,306.68696 233.34524,306.34287 Z"
           id="path836"
           inkscape:connector-curvature="0"
           sodipodi:nodetypes="sccccccssccs" />
        <path
           style="fill:#000000;fill-opacity:1;fill-rule:evenodd;stroke:none;stroke-width:1px;stroke-linecap:butt;stroke-linejoin:miter;stroke-opacity:1"
           d="M 307.08637,286.13982 316.17775,303.31241 319.2082,334.12206 320.21836,386.65 316.17775,446.249 314.66252,499.78708 313.14729,532.11196 C 313.14729,532.11196 326.78435,554.33532 328.29958,537.6678 L 329.81481,521.00029 330.31988,455.34037 334.86557,386.65 C 334.86557,386.65 330.82496,355.33527 334.86557,328.56623 338.90618,301.79718 338.4011,301.79718 338.4011,301.79718 L 334.36049,289.67535 318.19805,278.56367 Z"
           id="path838"
           inkscape:connector-curvature="0"
           sodipodi:nodetypes="cccccccscccscccc" />
        <path
           style="fill:#000000;fill-opacity:1;fill-rule:evenodd;stroke:none;stroke-width:1px;stroke-linecap:butt;stroke-linejoin:miter;stroke-opacity:1"
           d="M 285.87317,344.72867 300.52038,345.23374 355.5737,332.10176 377.29198,325.03069 397.49503,331.09161 C 397.49503,331.09161 408.70371,334.82952 406.08132,337.15252 394.54256,347.37394 369.2041,347.01059 351.02801,352.80989 337.58466,357.09915 324.88033,363.795 311.12698,366.95202 306.66925,367.97527 305.41784,379.11352 293.44931,368.71979 L 283.85287,360.38603 C 283.85287,360.38603 275.23983,352.68058 276.7818,348.2642 277.85362,345.19439 285.87317,344.72867 285.87317,344.72867 Z"
           id="path840"
           inkscape:connector-curvature="0"
           sodipodi:nodetypes="cccccsssscsc" />
        <path
           style="fill:#000000;fill-opacity:1;fill-rule:evenodd;stroke:none;stroke-width:1px;stroke-linecap:butt;stroke-linejoin:miter;stroke-opacity:1"
           d="M 246.9823,415.69188 C 248.29909,412.58259 257.08382,414.93427 257.08382,414.93427 L 293.19678,403.06498 325.01658,399.02437 363.40238,393.72106 377.29198,389.17538 C 377.29198,389.17538 382.34274,385.13477 388.15112,388.6703 L 393.95949,392.20584 402.04071,396.24645 C 402.04071,396.24645 409.61686,404.32767 401.03056,405.33782 392.44426,406.34797 372.74629,404.5802 361.63461,405.08528 361.63461,405.08528 354.18405,405.00437 350.52293,405.59036 337.83773,407.62072 313.39983,415.94442 313.39983,415.94442 L 289.91378,425.03579 274.00388,432.61194 C 274.00388,432.61194 262.91658,432.0769 258.34651,429.32894 253.27549,426.27976 244.67478,421.14056 246.9823,415.69188 Z"
           id="path842"
           inkscape:connector-curvature="0"
           sodipodi:nodetypes="sccccccccssscccss" />
        <path
           style="fill:#000000;fill-opacity:1;fill-rule:evenodd;stroke:none;stroke-width:1px;stroke-linecap:butt;stroke-linejoin:miter;stroke-opacity:1"
           d="M 254.55844,466.19951 C 262.13094,464.16561 277.28687,472.26043 277.28687,472.26043 L 316.17775,466.19951 C 316.17775,466.19951 336.63334,460.39113 351.53309,456.60306 L 366.43284,452.81499 C 366.43284,452.81499 374.76659,452.30991 382.0902,454.83529 L 389.41381,457.36068 392.44426,462.41144 C 392.44426,462.41144 394.46457,469.48251 392.44426,471.25027 390.42396,473.01804 369.96837,476.0485 369.96837,476.0485 L 336.3808,482.10941 C 336.3808,482.10941 317.44044,491.70586 297.995,495.74647 278.54956,499.78708 278.54956,499.53454 278.54956,499.53454 278.54956,499.53454 280.06479,504.83784 265.16504,495.2414 L 250.26529,485.64495 C 250.26529,485.64495 244.45692,481.09926 243.6993,477.05865 242.94169,473.01804 249.61461,467.52738 254.55844,466.19951 Z"
           id="path844"
           inkscape:connector-curvature="0"
           sodipodi:nodetypes="sccscccccccscsccs" />
        <path
           style="fill:#000000;fill-opacity:1;fill-rule:evenodd;stroke:none;stroke-width:1px;stroke-linecap:butt;stroke-linejoin:miter;stroke-opacity:1"
           d="M 215.41503,546.75918 260.11428,543.98126 321.98612,533.37465 369.21076,532.3645 397.24249,529.83912 406.33386,527.0612 423.00138,531.85943 443.20443,542.21349 454.31611,548.77948 458.86179,555.34547 C 458.86179,555.34547 462.9024,561.40639 456.84149,563.17415 450.78057,564.94192 425.02168,559.63862 425.02168,559.63862 L 396.73741,551.5574 362.8973,546.50664 327.03689,544.73887 295.21708,551.80994 262.63966,560.1437 232.58762,571.50791 C 232.58762,571.50791 220.71833,582.36705 219.70818,576.0536 218.69803,569.74015 213.39473,569.99268 215.41503,546.75918 Z"
           id="path846"
           inkscape:connector-curvature="0"
           sodipodi:nodetypes="ccccccccccccccccccsc" />
        <path
           sodipodi:nodetypes="cccccccc"
           style="fill:#000000;fill-opacity:1;fill-rule:evenodd;stroke:none;stroke-width:1px;stroke-linecap:butt;stroke-linejoin:miter;stroke-opacity:1"
           d="M 121.2183,376.92728 124.375,375.40832 126.52636,376.07742 126.8835,404.64885 126.74107,408.95742 124.64286,411.21189 120.82918,410.0904 Z"
           id="path848"
           inkscape:connector-curvature="0" />
      </g>
    </g>
  </g>
</svg>
