<?xml version="1.0" encoding="UTF-8" standalone="no"?>
<!-- Created with Inkscape (http://www.inkscape.org/) -->

<svg
   xmlns:dc="http://purl.org/dc/elements/1.1/"
   xmlns:cc="http://creativecommons.org/ns#"
   xmlns:rdf="http://www.w3.org/1999/02/22-rdf-syntax-ns#"
   xmlns:svg="http://www.w3.org/2000/svg"
   xmlns="http://www.w3.org/2000/svg"
   xmlns:sodipodi="http://sodipodi.sourceforge.net/DTD/sodipodi-0.dtd"
   xmlns:inkscape="http://www.inkscape.org/namespaces/inkscape"
   width="512"
   height="512"
   viewBox="0 0 512 512"
   version="1.1"
   id="svg8"
   sodipodi:docname="U+7683.svg"
   inkscape:version="0.92.4 (5da689c313, 2019-01-14)">
  <defs
     id="defs2" />
  <sodipodi:namedview
     id="base"
     pagecolor="#ffffff"
     bordercolor="#666666"
     borderopacity="1.0"
     inkscape:pageopacity="0.0"
     inkscape:pageshadow="2"
     inkscape:zoom="1.979899"
     inkscape:cx="211.06316"
     inkscape:cy="241.84645"
     inkscape:document-units="px"
     inkscape:current-layer="layer1"
     showgrid="false"
     units="px"
     inkscape:window-width="1920"
     inkscape:window-height="1001"
     inkscape:window-x="-9"
     inkscape:window-y="-9"
     inkscape:window-maximized="1" />
  <metadata
     id="metadata5">
    <rdf:RDF>
      <cc:Work
         rdf:about="">
        <dc:format>image/svg+xml</dc:format>
        <dc:type
           rdf:resource="http://purl.org/dc/dcmitype/StillImage" />
        <dc:title></dc:title>
      </cc:Work>
    </rdf:RDF>
  </metadata>
  <g
     inkscape:label="圖層 1"
     inkscape:groupmode="layer"
     id="layer1"
     transform="translate(0,-161.53333)">
    <path
       style="fill:#000000;fill-rule:evenodd;stroke:none;stroke-width:1px;stroke-linecap:butt;stroke-linejoin:miter;stroke-opacity:1;fill-opacity:1"
       d="M 182.83761,213.1563 C 172.23101,229.31874 179.30207,222.24767 172.23101,229.31874 165.15994,236.38981 163.13963,239.92534 132.83506,256.08778 102.53048,272.25022 97.479722,280.33144 97.479722,280.33144 L 125.25891,275.28068 C 125.25891,275.28068 142.43151,274.27053 160.61425,261.64362 178.797,249.01672 193.94929,252.55225 193.94929,252.55225 193.94929,252.55225 204.05081,258.10809 211.12188,248.51164 218.19295,238.91519 218.19295,238.91519 218.19295,238.91519 L 212.63711,226.79336 199.00005,224.77306 184.85791,210.63092 Z"
       id="path826"
       inkscape:connector-curvature="0" />
    <path
       style="fill:#000000;fill-rule:evenodd;stroke:none;stroke-width:1px;stroke-linecap:butt;stroke-linejoin:miter;stroke-opacity:1;fill-opacity:1"
       d="M 73.741135,295.98881 C 80.695342,297.20955 103.03556,327.80861 103.03556,327.80861 L 113.13708,346.49644 C 113.13708,346.49644 123.74368,362.1538 115.66246,355.58781 L 104.80332,349.77943 88.893423,344.47613 V 344.47613 C 88.893423,344.47613 80.181112,342.90609 77.276669,339.93045 71.770895,334.28971 69.195449,317.70709 69.195449,317.70709 69.195449,317.70709 66.456225,294.71002 73.741135,295.98881 Z"
       id="path828"
       inkscape:connector-curvature="0"
       sodipodi:nodetypes="sccsccsscs" />
    <path
       style="fill:#000000;fill-rule:evenodd;stroke:none;stroke-width:1px;stroke-linecap:butt;stroke-linejoin:miter;stroke-opacity:1;fill-opacity:1"
       d="M 154.42707,310.25722 161.6244,323.26293 C 161.6244,323.26293 165.03893,330.97747 168.1904,330.334 172.57337,329.43908 172.73608,317.70709 172.73608,317.70709 L 169.70563,300.5345 162.63456,292.45328 C 162.63456,292.45328 159.96359,288.50512 158.08887,288.91774 152.35287,290.18021 150.19845,302.61602 154.42707,310.25722 Z"
       id="path830"
       inkscape:connector-curvature="0"
       sodipodi:nodetypes="scscccss" />
    <path
       style="fill:#000000;fill-rule:evenodd;stroke:none;stroke-width:1px;stroke-linecap:butt;stroke-linejoin:miter;stroke-opacity:1;fill-opacity:1"
       d="M 244.45691,254.06748 C 244.45691,254.06748 245.59955,262.64349 244.45691,266.69439 242.79509,272.58591 234.86046,282.35175 234.86046,282.35175 L 217.1828,302.04972 203.04066,316.19186 202.53558,321.7477 C 202.53558,321.7477 221.1568,309.61469 236.37569,299.01927 236.37569,299.01927 243.78905,293.24211 247.89527,290.99932 253.36129,288.01382 255.12666,291.97947 265.16504,283.86698 269.31243,280.51528 273.04231,286.24442 272.03216,273.61752 271.022,260.99061 266.07668,259.00558 266.07668,259.00558 L 253.75525,254.5413 Z"
       id="path832"
       inkscape:connector-curvature="0"
       sodipodi:nodetypes="csccccssssccc" />
    <path
       style="fill:#000000;fill-rule:evenodd;stroke:none;stroke-width:1px;stroke-linecap:butt;stroke-linejoin:miter;stroke-opacity:1;fill-opacity:1"
       d="M 94.112402,374.00558 C 100.18383,381.14844 108.75525,381.86273 108.75525,381.86273 L 146.96954,369.36273 178.39811,355.43416 183.04097,355.07701 155.18383,384.00558 C 155.18383,384.00558 134.82668,398.64844 116.6124,409.36273 98.398112,420.07701 98.398112,420.07701 98.398112,420.07701 98.398112,420.07701 78.040971,429.00558 76.612399,416.50558 75.183828,404.00558 74.469542,392.93416 74.469542,392.93416 74.469542,392.93416 73.040971,385.43416 80.540971,380.07701 88.040971,374.71987 81.612399,375.43416 94.112402,374.00558 Z"
       id="path834"
       inkscape:connector-curvature="0" />
    <path
       style="fill:#000000;fill-rule:evenodd;stroke:none;stroke-width:1px;stroke-linecap:butt;stroke-linejoin:miter;stroke-opacity:1;fill-opacity:1"
       d="M 204.1124,332.93416 C 200.89811,352.57701 203.39811,347.57701 200.89811,352.57701 198.39811,357.57701 186.25525,375.43416 171.96954,389.00558 157.68383,402.57701 157.68383,402.57701 157.68383,402.57701 157.68383,402.57701 152.32668,405.07701 131.6124,421.86273 110.89811,438.64844 110.89811,438.64844 110.89811,438.64844 110.89811,438.64844 100.54097,450.43416 115.54097,442.57701 130.54097,434.71987 155.54097,424.00558 171.25525,410.43416 186.96954,396.86273 218.04097,372.57701 218.04097,372.57701 218.04097,372.57701 223.04097,369.36273 221.6124,355.7913 220.18383,342.21987 220.18383,342.21987 220.18383,342.21987 220.18383,342.21987 223.39811,329.71987 204.1124,332.93416 Z"
       id="path836"
       inkscape:connector-curvature="0" />
    <path
       style="fill:#000000;fill-rule:evenodd;stroke:none;stroke-width:1px;stroke-linecap:butt;stroke-linejoin:miter;stroke-opacity:1;fill-opacity:1"
       d="M 141.96954,446.86273 C 141.96954,446.86273 143.04097,445.7913 128.04097,464.00558 113.04097,482.21987 109.1124,492.57701 93.040972,501.86273 76.969542,511.14844 78.040971,516.86273 78.040971,516.86273 L 83.755256,518.64844 C 83.755256,518.64844 100.89811,511.14844 116.96954,493.2913 133.04097,475.43416 146.25525,459.00558 146.25525,459.00558 L 148.39811,446.50558 Z"
       id="path838"
       inkscape:connector-curvature="0" />
    <path
       style="fill:#000000;fill-rule:evenodd;stroke:none;stroke-width:1px;stroke-linecap:butt;stroke-linejoin:miter;stroke-opacity:1;fill-opacity:1"
       d="M 175.26146,463.42159 C 175.26146,463.42159 173.4937,474.0282 155.81603,497.00917 138.13836,519.99014 108.84393,542.97111 108.84393,542.97111 L 95.964492,552.82009 89.145963,548.52695 85.105352,555.09294 82.832508,573.02315 84.852814,581.3569 93.691642,576.30614 C 93.691642,576.30614 108.33886,568.73 125.51145,550.79979 142.68404,532.86958 143.44166,528.82897 159.85664,504.83785 176.27162,480.84673 182.33253,466.45205 182.33253,466.45205 182.33253,466.45205 190.66629,461.65383 186.1206,458.37083 181.57492,455.08784 181.82746,455.08784 181.82746,455.08784 Z"
       id="path840"
       inkscape:connector-curvature="0" />
    <path
       style="fill:#000000;fill-rule:evenodd;stroke:none;stroke-width:1px;stroke-linecap:butt;stroke-linejoin:miter;stroke-opacity:1;fill-opacity:1"
       d="M 131.57237,564.94192 125.00638,567.21477 129.8046,575.80106 C 129.8046,575.80106 136.87567,586.40767 137.63328,587.9229 L 138.3909,589.43812 C 138.3909,589.43812 132.32998,597.01427 134.60282,597.26681 136.87567,597.51934 152.53303,595.2465 152.53303,595.2465 L 173.74624,573.52822 179.80715,562.16401 197.23228,529.08151 213.39472,487.66525 208.34396,470.49266 C 208.34396,470.49266 212.13203,470.49266 206.57619,461.40129 201.02035,452.30992 203.54574,455.08784 201.02035,452.30992 198.49497,449.532 198.49497,449.78453 198.49497,449.78453 198.49497,449.78453 189.65614,447.25915 180.56477,444.98631 L 171.47339,442.71347 169.20055,448.26931 176.27162,457.86575 189.15106,465.18936 194.20182,470.7452 187.38329,505.09039 178.03938,527.81882 C 178.03938,527.81882 165.66502,557.87086 159.6041,561.15385 153.54318,564.43685 139.65359,565.44699 131.57237,564.94192 Z"
       id="path846"
       inkscape:connector-curvature="0"
       sodipodi:nodetypes="ccccccccccccsccsccccccccc" />
    <path
       style="fill:#000000;fill-rule:evenodd;stroke:none;stroke-width:1px;stroke-linecap:butt;stroke-linejoin:miter;stroke-opacity:1;fill-opacity:1"
       d="M 303.04576,257.35048 C 312.13714,265.4317 312.13714,265.4317 312.13714,265.4317 L 303.04576,294.22105 288.90363,314.4241 282.33764,327.05101 298.50008,315.43425 C 298.50008,315.43425 317.1879,294.72613 325.26912,282.09922 333.35034,269.47231 333.85542,269.47231 333.85542,269.47231 L 322.23866,245.22865 305.57115,249.26926 C 305.57115,249.26926 287.89348,245.22865 303.04576,257.35048 Z"
       id="path848"
       inkscape:connector-curvature="0" />
    <path
       style="fill:#000000;fill-rule:evenodd;stroke:none;stroke-width:1px;stroke-linecap:butt;stroke-linejoin:miter;stroke-opacity:1;fill-opacity:1"
       d="M 324.76404,310.38349 335.87572,303.31242 C 335.87572,303.31242 343.95694,304.32257 367.69553,296.74643 391.43411,289.17029 402.04071,283.61445 409.61686,286.13983 417.193,288.66521 428.80976,299.27181 428.80976,299.27181 L 432.34529,310.88857 405.57625,394.73123 396.98995,419.98504 397.49503,437.66271 385.3732,445.23885 376.7869,430.08657 384.36304,413.41905 392.94934,380.58909 402.54579,330.58654 406.08132,305.33273 386.38335,303.31242 C 386.38335,303.31242 378.8072,305.8378 363.14984,312.90887 347.49248,319.97994 347.49248,319.97994 347.49248,319.97994 347.49248,319.97994 343.45187,333.617 333.35034,326.54593 323.24881,319.47486 323.24881,319.47486 323.24881,319.47486 Z"
       id="path850"
       inkscape:connector-curvature="0" />
    <path
       style="fill:#000000;fill-rule:evenodd;stroke:none;stroke-width:1px;stroke-linecap:butt;stroke-linejoin:miter;stroke-opacity:1;fill-opacity:1"
       d="M 260.61936,334.62715 268.70058,346.74898 278.29703,372.50787 283.85287,407.86321 288.39855,441.19824 V 455.34038 L 280.31733,423.0155 265.67012,373.51802 245.46707,351.79974 C 245.46707,351.79974 237.89092,341.19314 244.45692,336.14238 251.02291,331.09162 251.02291,331.09162 251.02291,331.09162 Z"
       id="path852"
       inkscape:connector-curvature="0" />
    <path
       style="fill:#000000;fill-rule:evenodd;stroke:none;stroke-width:1px;stroke-linecap:butt;stroke-linejoin:miter;stroke-opacity:1;fill-opacity:1"
       d="M 300.01531,379.07386 C 324.25897,370.48757 311.12698,370.48757 324.25897,370.48757 337.39095,370.48757 337.39095,370.48757 337.39095,370.48757 337.39095,370.48757 344.46202,372.0028 343.45187,376.04341 342.44171,380.08402 342.44171,380.08402 342.44171,380.08402 L 336.3808,387.15508 C 336.3808,387.15508 332.84526,394.73123 319.2082,389.68046 305.57115,384.6297 304.05592,394.22615 300.01531,379.07386 Z"
       id="path854"
       inkscape:connector-curvature="0" />
    <path
       style="fill:#000000;fill-rule:evenodd;stroke:none;stroke-width:1px;stroke-linecap:butt;stroke-linejoin:miter;stroke-opacity:1;fill-opacity:1"
       d="M 253.04321,442.71347 361.12954,415.94443 370.72598,414.93428 384.36304,413.41905 397.49503,437.66271 362.64476,429.07641 325.7742,439.68302 301.53053,443.21855 288.39855,455.34038 262.63966,453.32007 Z"
       id="path856"
       inkscape:connector-curvature="0" />
    <path
       style="fill:#000000;fill-rule:evenodd;stroke:none;stroke-width:1px;stroke-linecap:butt;stroke-linejoin:miter;stroke-opacity:1;fill-opacity:1"
       d="M 289.91378,491.2008 C 289.91378,491.2008 288.90363,509.88862 266.1752,531.6069 243.44676,553.32518 235.36554,560.90132 235.36554,560.90132 L 225.76909,565.44701 253.04321,562.92163 C 253.04321,562.92163 268.1955,558.37594 279.30718,545.74903 290.41886,533.12213 308.09653,511.90892 308.09653,511.90892 308.09653,511.90892 310.11683,495.74648 289.91378,491.2008 Z"
       id="path858"
       inkscape:connector-curvature="0" />
    <path
       style="fill:#000000;fill-rule:evenodd;stroke:none;stroke-width:1px;stroke-linecap:butt;stroke-linejoin:miter;stroke-opacity:1;fill-opacity:1"
       d="M 372.74629,468.47236 394.96965,480.08912 394.46457,501.8074 C 394.46457,501.8074 391.93919,512.414 399.51533,518.47491 407.09148,524.53583 431.33514,533.6272 431.33514,533.6272 L 447.49758,541.70842 448.50773,554.33533 C 448.50773,554.33533 445.98235,557.87086 429.81991,551.30487 413.65747,544.73888 394.96965,535.14243 390.42396,525.54598 385.87827,515.94953 378.8072,513.92923 377.29198,503.8277 375.77675,493.72618 370.22091,474.0282 370.22091,474.0282 370.22091,474.0282 361.63461,468.97744 372.74629,468.47236 Z"
       id="path860"
       inkscape:connector-curvature="0" />
  </g>
</svg>
