<?xml version="1.0" encoding="UTF-8" standalone="no"?>
<!-- Created with Inkscape (http://www.inkscape.org/) -->

<svg
   xmlns:dc="http://purl.org/dc/elements/1.1/"
   xmlns:cc="http://creativecommons.org/ns#"
   xmlns:rdf="http://www.w3.org/1999/02/22-rdf-syntax-ns#"
   xmlns:svg="http://www.w3.org/2000/svg"
   xmlns="http://www.w3.org/2000/svg"
   xmlns:sodipodi="http://sodipodi.sourceforge.net/DTD/sodipodi-0.dtd"
   xmlns:inkscape="http://www.inkscape.org/namespaces/inkscape"
   width="512"
   height="512"
   viewBox="0 0 512 512"
   version="1.1"
   id="svg8"
   inkscape:version="0.92.4 (5da689c313, 2019-01-14)"
   sodipodi:docname="U+8046.svg">
  <defs
     id="defs2" />
  <sodipodi:namedview
     id="base"
     pagecolor="#ffffff"
     bordercolor="#666666"
     borderopacity="1.0"
     inkscape:pageopacity="0.0"
     inkscape:pageshadow="2"
     inkscape:zoom="1.979899"
     inkscape:cx="145.03854"
     inkscape:cy="230.51311"
     inkscape:document-units="px"
     inkscape:current-layer="layer1"
     showgrid="false"
     units="px"
     scale-x="1"
     inkscape:window-width="1920"
     inkscape:window-height="1001"
     inkscape:window-x="-9"
     inkscape:window-y="-9"
     inkscape:window-maximized="1" />
  <metadata
     id="metadata5">
    <rdf:RDF>
      <cc:Work
         rdf:about="">
        <dc:format>image/svg+xml</dc:format>
        <dc:type
           rdf:resource="http://purl.org/dc/dcmitype/StillImage" />
        <dc:title></dc:title>
      </cc:Work>
    </rdf:RDF>
  </metadata>
  <g
     inkscape:label="圖層 1"
     inkscape:groupmode="layer"
     id="layer1"
     transform="translate(0,-161.53331)">
    <path
       style="fill:#000000;fill-rule:evenodd;stroke:none;stroke-width:1px;stroke-linecap:butt;stroke-linejoin:miter;stroke-opacity:1;fill-opacity:1"
       d="M 91.923882,273.5129 C 91.923882,273.5129 117.68277,274.52305 169.70563,263.91645 221.72848,253.30985 222.23356,253.30985 222.23356,253.30985 222.23356,253.30985 232.84016,242.19817 253.04321,244.21848 273.24626,246.23878 273.24626,246.74386 273.24626,246.74386 L 280.82241,254.82508 C 280.82241,254.82508 285.87317,257.35046 280.82241,261.89615 275.77165,266.44183 275.77165,266.44183 275.77165,266.44183 275.77165,266.44183 257.5889,265.93676 231.83001,268.46214 206.07112,270.98752 176.27162,274.01798 156.06857,279.57382 135.86552,285.12966 107.58125,294.72611 107.58125,294.72611 107.58125,294.72611 81.822356,301.2921 86.873119,289.17027 91.923882,277.04844 91.923882,273.5129 91.923882,273.5129 Z"
       id="path826"
       inkscape:connector-curvature="0" />
    <path
       style="fill:#000000;fill-rule:evenodd;stroke:none;stroke-width:1px;stroke-linecap:butt;stroke-linejoin:miter;stroke-opacity:1;fill-opacity:1"
       d="M 48.487322,320.485 C 48.487322,320.485 61.114229,324.02053 72.730983,333.61698 84.347738,343.21343 92.428958,356.34541 92.428958,356.34541 L 93.944187,441.19822 94.954339,482.61448 C 94.954339,482.61448 80.812204,511.40383 79.802051,496.75661 78.791899,482.1094 83.842661,453.82513 80.812204,428.57132 77.781746,403.3175 73.23606,363.92155 73.23606,363.92155 73.23606,363.92155 74.304364,357.53501 69.447988,352.80988 L 60.104076,343.7185 C 60.104076,343.7185 45.456865,329.57637 48.487322,320.485 Z"
       id="path828"
       inkscape:connector-curvature="0"
       sodipodi:nodetypes="cscccsscscc" />
    <path
       style="fill:#000000;fill-rule:evenodd;stroke:none;stroke-width:1px;stroke-linecap:butt;stroke-linejoin:miter;stroke-opacity:1;fill-opacity:1"
       d="M 108.57143,350.67617 C 140.71429,341.03331 137.85714,344.60474 140.71429,340.67617 143.57143,336.7476 143.92857,336.7476 143.92857,336.7476 L 153.92857,337.46188 V 349.60474 L 147.85714,362.81902 C 147.85714,362.81902 138.92857,371.03331 126.42857,374.2476 112.09602,377.93312 105.35715,368.53331 108.57143,350.67617 Z"
       id="path830"
       inkscape:connector-curvature="0"
       sodipodi:nodetypes="ccccccsc" />
    <path
       style="fill:#000000;fill-rule:evenodd;stroke:none;stroke-width:1px;stroke-linecap:butt;stroke-linejoin:miter;stroke-opacity:1;fill-opacity:1"
       d="M 114.28571,421.7476 C 132.14286,409.96188 132.14286,409.96188 132.14286,409.96188 L 147.85714,399.60474 157.14286,398.17617 166.42857,403.17617 C 166.42857,403.17617 159.64286,414.2476 152.5,421.03331 145.35714,427.81902 140.35714,437.81902 135,437.10474 129.64286,436.39045 116.07143,435.67617 114.28571,421.7476 Z"
       id="path832"
       inkscape:connector-curvature="0" />
    <path
       style="fill:#000000;fill-rule:evenodd;stroke:none;stroke-width:1px;stroke-linecap:butt;stroke-linejoin:miter;stroke-opacity:1;fill-opacity:1"
       d="M 157.14286,292.81902 C 161.30734,289.19977 182.14286,312.10474 182.14286,312.10474 L 195.71429,326.39045 190,339.96188 185,404.96188 180.71429,488.53331 177.85714,568.53331 175.71429,639.96188 C 175.71429,639.96188 177.14286,657.81902 168.57143,645.67617 160,633.53331 160.71429,633.53331 160.71429,633.53331 L 154.28571,617.81902 165.71429,584.96188 170,452.10474 173.57143,334.2476 159.24239,306.01537 C 159.24239,306.01537 154.17898,295.39486 157.14286,292.81902 Z"
       id="path836"
       inkscape:connector-curvature="0"
       sodipodi:nodetypes="scccccccsccccccs" />
    <path
       style="fill:#000000;fill-rule:evenodd;stroke:none;stroke-width:1px;stroke-linecap:butt;stroke-linejoin:miter;stroke-opacity:1;fill-opacity:1"
       d="M 2.1428571,518.89045 66.428571,497.10474 C 66.428571,497.10474 91.281122,490.21374 113.92857,479.2476 L 147.85714,462.81902 185.71429,467.10474 193.57143,474.2476 145,484.2476 C 145,484.2476 107.36069,495.55652 89.642857,503.53331 79.217202,508.22707 60,519.2476 60,519.2476 L 32.5,536.39046 C 32.5,536.39046 17.107556,538.13292 11.071429,534.24759 6.0923812,531.04268 2.1428571,518.89045 2.1428571,518.89045 Z"
       id="path838"
       inkscape:connector-curvature="0"
       sodipodi:nodetypes="ccsccccsccsc" />
    <path
       style="fill:#000000;fill-rule:evenodd;stroke:none;stroke-width:1px;stroke-linecap:butt;stroke-linejoin:miter;stroke-opacity:1;fill-opacity:1"
       d="M 271.42857,289.60474 C 271.42857,289.60474 279.64286,308.89045 261.78571,341.39045 243.92857,373.89045 231.78571,395.67617 215.35714,409.96188 198.92857,424.2476 182.85714,435.31902 182.85714,435.31902 L 182.14286,439.60474 C 182.14286,439.60474 203.57143,436.39045 216.42857,426.7476 229.28571,417.10474 246.42857,391.7476 257.5,374.60474 268.57143,357.46188 281.07143,330.31902 285.71429,321.39045 290.35714,312.46188 284.64286,301.03331 284.64286,301.03331 L 273.21429,288.53331 Z"
       id="path840"
       inkscape:connector-curvature="0" />
    <path
       style="fill:#000000;fill-rule:evenodd;stroke:none;stroke-width:1px;stroke-linecap:butt;stroke-linejoin:miter;stroke-opacity:1;fill-opacity:1"
       d="M 272.85714,371.03331 C 272.85714,371.03331 286.42857,375.67617 294.64286,373.89045 302.85714,372.10474 306.07143,370.67617 314.28571,375.31902 322.5,379.96188 325.71429,391.03331 322.5,396.03331 319.28571,401.03331 304.64286,400.67617 291.78571,391.7476 278.92857,382.81902 270.35714,377.46188 270.35714,377.46188 Z"
       id="path842"
       inkscape:connector-curvature="0" />
    <path
       style="fill:#000000;fill-rule:evenodd;stroke:none;stroke-width:1px;stroke-linecap:butt;stroke-linejoin:miter;stroke-opacity:1;fill-opacity:1"
       d="M 305.71429,280.31902 326.42857,282.46188 C 326.42857,282.46188 342.5,292.10474 354.64286,312.10474 366.78571,332.10474 377.85714,353.53331 402.85714,376.39045 427.85714,399.2476 437.85714,416.7476 453.57143,429.60474 469.28572,442.46188 480,447.10474 480,447.10474 480,447.10474 484.64286,435.67617 483.92857,432.10474 483.21429,428.53331 516.42857,429.2476 526.78572,427.10474 537.14286,424.96188 555.71429,421.03331 527.5,411.03331 499.28572,401.03331 450.35714,384.96188 433.92857,376.39045 417.5,367.81902 406.07143,362.46188 393.92857,349.96188 381.78571,337.46188 361.07143,313.53331 353.92857,300.67617 346.78571,287.81902 327.14286,274.2476 327.14286,274.2476 L 302.5,266.03331 Z"
       id="path844"
       inkscape:connector-curvature="0" />
    <path
       style="fill:#000000;fill-rule:evenodd;stroke:none;stroke-width:1px;stroke-linecap:butt;stroke-linejoin:miter;stroke-opacity:1;fill-opacity:1"
       d="M 238.75898,447.92363 C 243.14786,448.0335 243.18448,456.47946 247.33041,457.92363 259.12618,462.03251 253.73423,461.97103 285,451.03331 325.75826,436.77482 329.70422,424.53092 354.64286,423.53331 361.98041,423.23979 375.71429,429.96188 375.71429,429.96188 L 391.42857,447.10474 C 391.42857,447.10474 387.5,467.46188 370.35714,479.96188 353.21429,492.46188 330.35714,500.67617 330.35714,500.67617 330.35714,500.67617 321.07143,502.10474 321.78571,500.67617 322.5,499.2476 324.64286,495.31902 335,484.96188 345.35714,474.60474 358.21429,457.81902 358.92857,452.81902 359.64286,447.81902 362.14286,438.53331 362.14286,438.53331 L 357.85714,431.03331 C 357.85714,431.03331 339.53258,433.72828 329.71837,442.65686 317.25719,453.99355 287.85714,472.10474 287.85714,472.10474 L 270.35714,486.39045 C 270.35714,486.39045 258.57143,486.03331 245.35714,473.53331 232.14286,461.03331 231.07143,456.03331 231.07143,456.03331 231.07143,456.03331 235.03537,447.83042 238.75898,447.92363 Z"
       id="path846"
       inkscape:connector-curvature="0"
       sodipodi:nodetypes="ssssccsccscccsccscs" />
    <path
       style="fill:#000000;fill-rule:evenodd;stroke:none;stroke-width:1px;stroke-linecap:butt;stroke-linejoin:miter;stroke-opacity:1;fill-opacity:1"
       d="M 297.48992,485.13986 C 297.48992,485.13986 316.17775,491.70585 308.6016,549.28455 301.02546,606.86324 304.05592,618.98507 302.54069,621.00538 301.02546,623.02568 278.29703,619.49015 279.81226,622.52061 281.32748,625.55106 301.54995,656.73395 308.6016,658.38102 316.75856,660.28626 322.23866,592.72111 322.23866,592.72111 V 546.75917 L 330.35714,500.67617 311.12698,478.57387 299.51023,480.0891 Z"
       id="path848"
       inkscape:connector-curvature="0"
       sodipodi:nodetypes="csccscccccc" />
  </g>
</svg>
