<?xml version="1.0" encoding="UTF-8" standalone="no"?>
<!-- Created with Inkscape (http://www.inkscape.org/) -->

<svg
   xmlns:dc="http://purl.org/dc/elements/1.1/"
   xmlns:cc="http://creativecommons.org/ns#"
   xmlns:rdf="http://www.w3.org/1999/02/22-rdf-syntax-ns#"
   xmlns:svg="http://www.w3.org/2000/svg"
   xmlns="http://www.w3.org/2000/svg"
   xmlns:sodipodi="http://sodipodi.sourceforge.net/DTD/sodipodi-0.dtd"
   xmlns:inkscape="http://www.inkscape.org/namespaces/inkscape"
   width="512"
   height="512"
   viewBox="0 0 512 512"
   version="1.1"
   id="svg8"
   inkscape:version="0.92.4 (5da689c313, 2019-01-14)"
   sodipodi:docname="U+8B39.svg">
  <defs
     id="defs2">
    <inkscape:path-effect
       effect="bspline"
       id="path-effect846"
       is_visible="true"
       weight="33.333333"
       steps="2"
       helper_size="0"
       apply_no_weight="true"
       apply_with_weight="true"
       only_selected="false" />
    <inkscape:path-effect
       effect="spiro"
       id="path-effect842"
       is_visible="true" />
  </defs>
  <sodipodi:namedview
     id="base"
     pagecolor="#ffffff"
     bordercolor="#666666"
     borderopacity="1.0"
     inkscape:pageopacity="0.0"
     inkscape:pageshadow="2"
     inkscape:zoom="0.98994949"
     inkscape:cx="392.60489"
     inkscape:cy="260.86919"
     inkscape:document-units="px"
     inkscape:current-layer="layer1"
     showgrid="false"
     units="px"
     inkscape:window-width="1920"
     inkscape:window-height="1001"
     inkscape:window-x="-9"
     inkscape:window-y="-9"
     inkscape:window-maximized="1">
    <sodipodi:guide
       position="0,0"
       orientation="0,512"
       id="guide826"
       inkscape:locked="false" />
    <sodipodi:guide
       position="512,0"
       orientation="-512,0"
       id="guide828"
       inkscape:locked="false" />
    <sodipodi:guide
       position="512,512"
       orientation="0,-512"
       id="guide830"
       inkscape:locked="false" />
    <sodipodi:guide
       position="0,512"
       orientation="512,0"
       id="guide832"
       inkscape:locked="false" />
  </sodipodi:namedview>
  <metadata
     id="metadata5">
    <rdf:RDF>
      <cc:Work
         rdf:about="">
        <dc:format>image/svg+xml</dc:format>
        <dc:type
           rdf:resource="http://purl.org/dc/dcmitype/StillImage" />
        <dc:title></dc:title>
      </cc:Work>
    </rdf:RDF>
  </metadata>
  <g
     inkscape:label="圖層 1"
     inkscape:groupmode="layer"
     id="layer1"
     transform="translate(0,-161.53332)">
    <path
       style="fill:#000000;fill-rule:evenodd;stroke:none;stroke-width:1px;stroke-linecap:butt;stroke-linejoin:miter;stroke-opacity:1;fill-opacity:1"
       d="M 143.57143,251.74761 C 143.57143,251.74761 146.07143,249.96189 159.28571,260.31903 172.5,270.67618 172.14286,269.96189 176.78571,279.96189 181.42857,289.96189 187.14286,295.67618 187.14286,295.67618 187.14286,295.67618 202.5,290.67618 205,283.53332 207.5,276.39046 211.42857,275.31903 211.07143,270.31903 210.71429,265.31903 195.71429,251.03332 177.85714,247.46189 160,243.89046 146.42857,246.39046 143.92857,246.39046 141.42857,246.39046 143.57143,251.74761 143.57143,251.74761 Z"
       id="path834"
       inkscape:connector-curvature="0" />
    <path
       style="fill:#000000;fill-rule:evenodd;stroke:none;stroke-width:1px;stroke-linecap:butt;stroke-linejoin:miter;stroke-opacity:1;fill-opacity:1"
       d="M 28.928571,309.24761 C 31.276121,306.67182 39.285714,307.81903 39.285714,307.81903 L 52.142857,314.42618 C 52.142857,314.42618 60.892857,316.21189 85.535714,311.39046 110.17857,306.56903 120.17857,303.35475 145.53571,299.2476 170.89286,295.14046 198.75,290.31903 214.82143,289.06903 230.89286,287.81903 231.42857,287.81903 231.42857,287.81903 231.42857,287.81903 266.42857,306.03332 238.21429,303.89046 210,301.74761 198.92857,299.24761 183.57143,302.46189 168.21429,305.67618 133.57143,313.53332 113.21429,319.96189 92.857143,326.39046 81.785714,329.24761 68.214286,333.89046 54.642857,338.53332 29.758329,328.93146 28.214286,325.31903 25.941443,320.0015 25.316426,313.21095 28.928571,309.24761 Z"
       id="path836"
       inkscape:connector-curvature="0"
       sodipodi:nodetypes="sccssscssssss" />
    <path
       style="fill:#000000;fill-rule:evenodd;stroke:none;stroke-width:1px;stroke-linecap:butt;stroke-linejoin:miter;stroke-opacity:1;fill-opacity:1"
       d="M 128.50644,372.52688 C 121.40623,364.56603 155.81204,363.70126 169.97462,359.45681 173.58077,358.37607 179.45058,356.30765 183.21429,356.39046 189.20438,356.52225 200,362.81903 200,362.81903 200,362.81903 205.66001,367.21332 203.92857,368.89046 195.60638,376.95166 179.53803,373.15661 168.44516,377.98863 162.78446,380.45442 153.21429,387.46189 153.21429,387.46189 153.21429,387.46189 144.89541,386.68362 141.42857,384.60475 136.36671,381.56944 128.50644,372.52688 128.50644,372.52688 Z"
       id="path838"
       inkscape:connector-curvature="0"
       sodipodi:nodetypes="ssscsscss" />
    <path
       style="fill:#000000;fill-rule:evenodd;stroke:none;stroke-width:1px;stroke-linecap:butt;stroke-linejoin:miter;stroke-opacity:1;fill-opacity:1"
       d="M 103.03556,432.99074 C 104.82092,430.60702 107.56251,429.08778 110.40917,428.21248 113.25583,427.33718 116.24245,427.0438 119.198,426.67729 125.36229,425.91288 131.51402,424.8036 137.38075,422.76295 140.55699,421.65814 143.63563,420.28527 146.82052,419.20566 150.00542,418.12605 153.33922,417.3376 156.69991,417.45965 159.39451,417.55751 162.02896,418.23618 164.65487,418.84861 171.26012,420.38912 178.18289,421.62596 183.72149,425.54087 183.94182,425.69661 184.16025,425.85699 184.35284,426.04595 184.92967,426.61191 185.24379,427.42017 185.26499,428.228 185.28619,429.03583 185.02678,429.83887 184.59161,430.5198 184.15644,431.20073 183.55138,431.76357 182.87588,432.20711 182.20038,432.65066 181.45458,432.97862 180.69104,433.24328 176.71922,434.61999 172.39393,434.28527 168.1904,434.25344 157.63423,434.17352 146.92433,436.18671 137.63328,441.19823 132.96631,443.71556 128.72568,446.94292 124.24876,449.78453 122.68719,450.7757 121.07989,451.7279 119.32427,452.30991 116.62969,453.2032 113.63752,453.17052 110.96309,452.21861 108.28865,451.26669 105.94873,449.4015 104.42452,447.00661 102.50469,445.28715 101.25953,442.83338 101.00537,440.26869 100.75121,437.70399 101.49055,435.05356 103.03556,432.99074 Z"
       id="path840"
       inkscape:connector-curvature="0"
       inkscape:path-effect="#path-effect842"
       inkscape:original-d="M 103.03556,432.99074 C 103.03456,427.94098 114.27451,428.40197 119.198,426.67729 124.12149,424.95261 131.32083,424.06673 137.38075,422.76295 143.44066,421.45917 150.59791,419.14224 156.69991,417.45965 162.80192,415.77706 161.6675,418.4688 164.65487,418.84861 167.64223,419.22842 177.36695,423.30912 183.72149,425.54087 190.07604,427.77262 184.14339,425.87659 184.35284,426.04595 184.56229,426.2153 181.91264,430.84317 180.69104,433.24328 179.46944,435.6434 172.35828,433.91572 168.1904,434.25344 164.02252,434.59115 147.81999,438.8823 137.63328,441.19823 127.44658,443.51417 128.71127,446.92143 124.24876,449.78453 119.78626,452.64763 120.96677,451.46712 119.32427,452.30991 117.68177,453.15271 104.42452,447.00661 104.42452,447.00661 104.42452,447.00661 103.03656,438.04051 103.03556,432.99074 Z"
       sodipodi:nodetypes="sssssscccccccs" />
    <path
       style="fill:#000000;fill-rule:evenodd;stroke:none;stroke-width:1px;stroke-linecap:butt;stroke-linejoin:miter;stroke-opacity:1;fill-opacity:1"
       d="M 135.53665,493.11597 C 144.4059,491.03313 161.31066,488.17598 170.17921,484.42567 179.04777,480.67535 179.88116,476.03218 181.48845,472.75874 183.09575,469.48529 185.47729,467.58006 188.92811,468.65102 192.37893,469.72199 196.90482,473.77146 200.41658,478.05695 203.92835,482.34244 206.42838,486.86631 204.51745,498.3729 202.60652,509.87949 196.30994,528.29402 191.0125,537.63984 185.71506,546.98566 181.42962,547.22374 179.16693,545.31455 176.90424,543.40536 176.66661,539.36571 177.38082,532.16444 178.09503,524.96316 179.76209,514.60362 180.00007,508.4732 180.23805,502.34278 179.04745,500.43781 175.17955,500.79466 171.31166,501.15151 164.76312,503.77093 159.22697,505.67589 153.69082,507.58085 149.16785,508.7711 143.63083,507.34224 138.09381,505.91339 131.5479,501.86682 128.691,499.18755 125.83411,496.50829 126.66741,495.19882 135.53665,493.11597 Z"
       id="path844"
       inkscape:connector-curvature="0"
       inkscape:path-effect="#path-effect846"
       inkscape:original-d="M 127.5,493.89046 C 144.40576,491.03232 161.31052,488.17518 178.21429,485.31903 179.04856,480.67549 179.88195,476.03232 180.71429,471.39046 183.09565,469.48517 185.47719,467.57994 187.85714,465.67618 192.37987,469.72093 196.90576,473.77041 201.42857,477.81903 203.92954,482.34178 206.42957,486.86565 208.92857,491.39046 202.50051,509.84324 196.31052,528.29422 190,546.74761 185.71501,546.98472 181.42957,547.2228 177.14286,547.46189 176.78663,543.41228 176.66767,539.36565 176.42857,535.31903 178.09585,524.96329 179.76291,514.60375 181.42857,504.24761 180.23923,502.34205 179.04862,500.43708 177.85714,498.53332 171.31145,501.151 164.76291,503.77041 158.21429,506.39046 153.69064,507.58016 149.16767,508.77041 144.64286,509.96189 138.09453,505.91222 131.54862,501.86565 125,497.81903 125.83437,496.50845 126.66767,495.19899 127.5,493.89046 Z" />
    <path
       style="fill:#000000;fill-rule:evenodd;stroke:none;stroke-width:1px;stroke-linecap:butt;stroke-linejoin:miter;stroke-opacity:1;fill-opacity:1"
       d="M 71.215755,488.6754 C 95.459416,517.21221 99.752564,521.00029 99.752564,521.00029 99.752564,521.00029 108.84394,535.6475 111.87439,551.30486 114.90485,566.96223 115.15739,576.30614 118.18785,584.13482 121.21831,591.9635 126.26907,601.81249 128.54191,601.30741 130.81475,600.80234 135.16132,594.85862 135.1079,590.70081 135.07041,587.78256 131.24846,586.14059 130.30968,583.37721 124.52587,566.35211 129.55206,544.23379 126.26907,529.58658 122.98607,514.93937 113.13709,497.76678 106.06602,495.2414 98.99495,492.71601 80.054589,481.09926 80.054589,481.09926 80.054589,481.09926 67.427682,475.79596 71.215755,488.6754 Z"
       id="path848"
       inkscape:connector-curvature="0"
       sodipodi:nodetypes="ccsscsssccc" />
    <path
       style="fill:#000000;fill-rule:evenodd;stroke:none;stroke-width:1px;stroke-linecap:butt;stroke-linejoin:miter;stroke-opacity:1;fill-opacity:1"
       d="M 125.51145,549.03202 133.34014,554.8404 173.4937,544.23379 191.67645,545.49648 203.79828,553.83024 C 203.79828,553.83024 202.53559,559.13354 202.28305,560.1437 202.03051,561.15385 188.64599,562.164 187.13076,562.164 185.61553,562.164 175.00893,560.64877 175.00893,560.64877 175.00893,560.64877 159.35156,564.18431 157.07872,564.94192 154.80588,565.69954 141.92643,571.25537 140.91628,571.25537 139.90613,571.25537 133.84521,573.78076 130.81475,574.03329 127.7843,574.28583 120.46069,574.53837 120.46069,573.52822 120.46069,572.51807 125.51145,549.03202 125.51145,549.03202 Z"
       id="path850"
       inkscape:connector-curvature="0" />
    <path
       style="fill:#000000;fill-rule:evenodd;stroke:none;stroke-width:1px;stroke-linecap:butt;stroke-linejoin:miter;stroke-opacity:1;fill-opacity:1"
       d="M 269.20565,248.2591 291.93409,294.72612 305.57115,339.6779 C 305.57115,339.6779 313.65237,351.29466 315.67267,351.29466 317.69298,351.29466 326.27927,342.70836 326.27927,342.70836 326.27927,342.70836 327.28942,325.53577 327.28942,323.51546 327.28942,321.49516 319.71328,302.80734 319.71328,302.80734 L 316.17775,287.65505 323.24881,265.93677 300.01531,250.78448 281.32748,242.70326 H 274.25642 Z"
       id="path852"
       inkscape:connector-curvature="0" />
    <path
       style="fill:#000000;fill-rule:evenodd;stroke:none;stroke-width:1px;stroke-linecap:butt;stroke-linejoin:miter;stroke-opacity:1;fill-opacity:1"
       d="M 365.67522,220.4799 376.7869,249.77433 C 376.7869,249.77433 376.7869,269.97738 363.14984,301.79718 349.51278,333.61699 350.52293,340.68806 354.56354,338.66775 358.60415,336.64745 363.65492,340.68806 380.82751,304.82764 398.0001,268.96723 405.57625,259.87585 405.57625,259.87585 405.57625,259.87585 413.15239,238.15757 402.54579,231.59158 391.93919,225.02559 378.8072,218.4596 378.8072,218.4596 L 369.21076,214.92406 Z"
       id="path854"
       inkscape:connector-curvature="0" />
    <path
       style="fill:#000000;fill-rule:evenodd;stroke:none;stroke-width:1px;stroke-linecap:butt;stroke-linejoin:miter;stroke-opacity:1;fill-opacity:1"
       d="M 394.59084,290.6855 C 430.45126,284.11951 455.5788,277.04845 455.5788,277.04845 L 466.69048,283.61444 468.71078,293.71596 C 468.71078,293.71596 449.51788,291.19059 447.49758,291.19059 445.47727,291.19059 423.25392,295.73627 421.23361,295.73627 419.21331,295.73627 401.53564,301.79718 399.51533,301.79718 397.49503,301.79718 384.7433,303.07347 383.85797,297.75657 383.15427,293.53049 394.59084,290.6855 394.59084,290.6855 Z"
       id="path856"
       inkscape:connector-curvature="0"
       sodipodi:nodetypes="ccccssssc" />
    <path
       style="fill:#000000;fill-rule:evenodd;stroke:none;stroke-width:1px;stroke-linecap:butt;stroke-linejoin:miter;stroke-opacity:1;fill-opacity:1"
       d="M 249.50768,315.43424 C 282.84271,313.91901 290.41886,310.13094 291.93409,310.63602 293.44931,311.14109 299.51023,309.37333 299.51023,309.37333 299.51023,309.37333 312.38967,309.8784 311.8846,311.39363 311.37952,312.90886 294.96454,322.50531 294.96454,322.50531 L 280.56987,329.0713 265.41758,337.6576 C 265.41758,337.6576 263.14474,334.87968 258.34651,330.33399 253.54829,325.78831 247.48737,319.22231 247.48737,319.22231 Z"
       id="path858"
       inkscape:connector-curvature="0" />
    <path
       style="fill:#000000;fill-rule:evenodd;stroke:none;stroke-width:1px;stroke-linecap:butt;stroke-linejoin:miter;stroke-opacity:1;fill-opacity:1"
       d="M 279.81226,380.58908 C 281.68608,377.47502 290.41886,378.0637 290.41886,378.0637 L 301.278,377.30609 374.51406,360.38603 392.6968,349.02181 408.60671,351.5472 C 408.60671,351.5472 420.476,363.66903 421.23361,364.67918 421.99123,365.68933 424.26407,374.52817 424.26407,374.52817 L 413.65747,381.85177 405.07117,387.66015 399.01026,399.2769 393.95949,413.1665 392.6968,419.22742 384.36304,427.81371 374.51406,421.7528 C 374.51406,421.7528 378.79775,414.40864 380.0699,410.38858 382.48745,402.749 383.85797,386.65 383.85797,386.65 L 383.22662,374.52817 C 383.22662,374.52817 385.3732,365.94187 373.75644,370.23502 362.13969,374.52817 344.71456,379.32639 344.71456,379.32639 344.71456,379.32639 320.32182,385.38462 308.34906,389.17538 303.65238,390.66242 299.25769,396.24645 294.45947,394.22614 289.66124,392.20584 281.58002,387.40761 281.58002,387.40761 281.58002,387.40761 278.60167,382.60092 279.81226,380.58908 Z"
       id="path860"
       inkscape:connector-curvature="0"
       sodipodi:nodetypes="sccccccccccccccsccscsccs" />
    <path
       style="fill:#000000;fill-rule:evenodd;stroke:none;stroke-width:1px;stroke-linecap:butt;stroke-linejoin:miter;stroke-opacity:1;fill-opacity:1"
       d="M 237.14286,381.74761 263.57143,403.17618 272.5,419.24761 C 272.5,419.24761 273.21429,430.31903 273.21429,438.89046 273.21429,447.46189 268.21429,453.89046 268.21429,453.89046 L 261.07143,454.24761 254.28571,431.74761 244.64286,412.81903 236.78571,404.96189 232.14286,383.17618 Z"
       id="path862"
       inkscape:connector-curvature="0" />
    <path
       style="fill:#000000;fill-rule:evenodd;stroke:none;stroke-width:1px;stroke-linecap:butt;stroke-linejoin:miter;stroke-opacity:1;fill-opacity:1"
       d="M 320.71429,355.67618 C 320.35714,357.10475 331.42857,357.10475 328.21429,411.39046 325,465.67618 329.28571,456.74761 325,490.31903 320.71429,523.89046 317.14286,537.10475 317.14286,537.10475 L 334.64286,543.53332 C 334.64286,543.53332 348.57143,557.81903 349.64286,527.46189 350.71429,497.10475 353.21429,444.96189 353.57143,442.81903 353.92857,440.67618 356.78571,408.53332 356.78571,406.03332 356.78571,403.53332 364.28571,372.81903 362.5,368.89046 360.71429,364.96189 341.78571,352.81903 341.78571,352.81903 Z"
       id="path864"
       inkscape:connector-curvature="0" />
    <path
       style="fill:#000000;fill-rule:evenodd;stroke:none;stroke-width:1px;stroke-linecap:butt;stroke-linejoin:miter;stroke-opacity:1;fill-opacity:1"
       d="M 253.57143,493.17618 C 253.57143,493.17618 305.35714,485.31903 307.85714,484.24761 310.35714,483.17618 360.71429,471.39046 360.71429,471.39046 L 378.57143,470.67618 393.57143,478.17618 C 393.57143,478.17618 390.71429,487.46189 389.28571,487.46189 387.85714,487.46189 366.07143,486.74761 366.07143,486.74761 366.07143,486.74761 349.28571,486.74761 345.71429,487.81903 342.14286,488.89046 311.42857,494.96189 310,494.96189 308.57143,494.96189 287.14286,497.81903 286.42857,499.60475 285.71429,501.39046 272.85714,511.74761 272.85714,511.74761 Z"
       id="path866"
       inkscape:connector-curvature="0" />
    <path
       style="fill:#000000;fill-rule:evenodd;stroke:none;stroke-width:1px;stroke-linecap:butt;stroke-linejoin:miter;stroke-opacity:1;fill-opacity:1"
       d="M 279.28571,441.03332 C 283.21429,438.89046 328.21429,428.89046 328.21429,428.89046 L 374.51406,421.7528 392.6968,419.22742 C 392.6968,419.22742 407.85714,424.96189 406.78571,426.39046 405.71429,427.81903 377.85714,430.31903 376.07143,430.31903 374.28571,430.31903 314.64286,441.03332 314.64286,441.03332 L 275.71429,449.60475 C 275.71429,449.60475 263.92857,441.74761 265.35714,441.74761 266.78571,441.74761 279.28571,441.03332 279.28571,441.03332 Z"
       id="path868"
       inkscape:connector-curvature="0" />
    <path
       style="fill:#000000;fill-rule:evenodd;stroke:none;stroke-width:1px;stroke-linecap:butt;stroke-linejoin:miter;stroke-opacity:1;fill-opacity:1"
       d="M 236.42857,549.24761 C 238.21429,549.24761 291.78571,541.39046 293.92857,541.03332 296.07143,540.67618 367.85714,532.46189 367.85714,532.46189 L 396.07143,529.24761 C 396.07143,529.24761 427.5,528.17618 432.5,535.31903 437.5,542.46189 442.5,549.60475 441.78571,551.39046 441.07143,553.17618 435.71429,560.67618 435.71429,560.67618 435.71429,560.67618 398.21429,550.67618 396.42857,550.67618 394.64286,550.67618 346.42857,547.81903 346.42857,547.81903 346.42857,547.81903 348.92857,544.24761 315.35714,553.53332 281.78571,562.81903 264.64286,573.53332 264.64286,573.53332 L 249.28571,571.39046 Z"
       id="path870"
       inkscape:connector-curvature="0" />
  </g>
</svg>
