<?xml version="1.0" encoding="UTF-8" standalone="no"?>
<!-- Created with Inkscape (http://www.inkscape.org/) -->

<svg
   xmlns:dc="http://purl.org/dc/elements/1.1/"
   xmlns:cc="http://creativecommons.org/ns#"
   xmlns:rdf="http://www.w3.org/1999/02/22-rdf-syntax-ns#"
   xmlns:svg="http://www.w3.org/2000/svg"
   xmlns="http://www.w3.org/2000/svg"
   xmlns:sodipodi="http://sodipodi.sourceforge.net/DTD/sodipodi-0.dtd"
   xmlns:inkscape="http://www.inkscape.org/namespaces/inkscape"
   width="512"
   height="512"
   viewBox="0 0 512 512"
   version="1.1"
   id="svg8"
   sodipodi:docname="U+8B19.svg"
   inkscape:version="0.92.4 (5da689c313, 2019-01-14)">
  <defs
     id="defs2" />
  <sodipodi:namedview
     id="base"
     pagecolor="#ffffff"
     bordercolor="#666666"
     borderopacity="1.0"
     inkscape:pageopacity="0.0"
     inkscape:pageshadow="2"
     inkscape:zoom="1.4"
     inkscape:cx="158.65128"
     inkscape:cy="284.43964"
     inkscape:document-units="px"
     inkscape:current-layer="layer1"
     showgrid="false"
     units="px"
     inkscape:window-width="803"
     inkscape:window-height="430"
     inkscape:window-x="617"
     inkscape:window-y="113"
     inkscape:window-maximized="0">
    <sodipodi:guide
       position="0,0"
       orientation="0,512"
       id="guide826"
       inkscape:locked="false" />
    <sodipodi:guide
       position="512,0"
       orientation="-512,0"
       id="guide828"
       inkscape:locked="false" />
    <sodipodi:guide
       position="512,512"
       orientation="0,-512"
       id="guide830"
       inkscape:locked="false" />
    <sodipodi:guide
       position="0,512"
       orientation="512,0"
       id="guide832"
       inkscape:locked="false" />
  </sodipodi:namedview>
  <metadata
     id="metadata5">
    <rdf:RDF>
      <cc:Work
         rdf:about="">
        <dc:format>image/svg+xml</dc:format>
        <dc:type
           rdf:resource="http://purl.org/dc/dcmitype/StillImage" />
        <dc:title></dc:title>
      </cc:Work>
    </rdf:RDF>
  </metadata>
  <g
     inkscape:label="圖層 1"
     inkscape:groupmode="layer"
     id="layer1"
     transform="translate(0,-161.53332)">
    <path
       style="fill:#000000;fill-rule:evenodd;stroke:none;stroke-width:1px;stroke-linecap:butt;stroke-linejoin:miter;stroke-opacity:1;fill-opacity:1"
       d="M 113.92857,251.74761 C 143.92857,257.10475 133.57143,254.24761 144.64286,257.46189 155.71429,260.67618 165.71429,258.17618 170,267.46189 174.28571,276.74761 178.21429,285.31903 175,289.60475 171.78571,293.89046 155.35714,292.10475 153.57143,288.89046 151.78571,285.67618 152.14286,281.03332 144.28571,276.39046 136.42857,271.74761 131.42857,272.46189 125,268.17618 118.57143,263.89046 113.92857,251.74761 113.92857,251.74761 Z"
       id="path834"
       inkscape:connector-curvature="0" />
    <path
       style="fill:#000000;fill-rule:evenodd;stroke:none;stroke-width:1px;stroke-linecap:butt;stroke-linejoin:miter;stroke-opacity:1;fill-opacity:1"
       d="M 0,311.74761 C 15.357143,316.74761 22.857143,316.03332 22.857143,316.03332 L 56.428572,308.89046 C 56.428572,308.89046 76.785714,306.74761 97.142857,302.10475 117.5,297.46189 141.07143,297.10475 151.07143,293.53332 161.07143,289.96189 175.71429,290.31903 187.14286,286.74761 198.57143,283.17618 193.92857,277.10475 207.85714,281.03332 221.78571,284.96189 227.5,285.31903 229.64286,290.67618 231.78571,296.03332 229.28571,303.53332 224.28571,303.53332 219.28571,303.53332 213.21429,300.67618 195,300.67618 176.78571,300.67618 172.14286,302.46189 150.35714,304.96189 128.57143,307.46189 110.35714,313.17618 93.214286,316.74761 76.071429,320.31903 62.857143,323.17618 45.714286,330.31903 28.571429,337.46189 18.928571,338.17618 15,336.39046 11.071429,334.60475 0,336.39046 0,324.60475 0,312.81903 0,311.74761 0,311.74761 Z"
       id="path836"
       inkscape:connector-curvature="0" />
    <path
       style="fill:#000000;fill-rule:evenodd;stroke:none;stroke-width:1px;stroke-linecap:butt;stroke-linejoin:miter;stroke-opacity:1;fill-opacity:1"
       d="M 103.125,360.94404 C 109.49449,361.85262 124.82142,358.08689 126.25,357.72975 127.67857,357.37261 126.07143,358.17618 132.14286,355.31903 138.21429,352.46189 156.07143,350.67618 156.07143,350.67618 156.07143,350.67618 169.64286,352.46189 175.35714,358.17618 181.07143,363.89046 182.56011,367.80309 177.23215,369.33689 171.33928,371.03332 171.06099,366.31106 163.30358,368.26546 143.19022,373.33283 131.07143,382.81903 131.07143,382.81903 131.07143,382.81903 118.5077,384.61264 110.17857,375.67618 101.60715,366.47975 99.038705,360.36114 103.125,360.94404 Z"
       id="path838"
       inkscape:connector-curvature="0"
       sodipodi:nodetypes="sccccsscss" />
    <path
       style="fill:#000000;fill-rule:evenodd;stroke:none;stroke-width:1px;stroke-linecap:butt;stroke-linejoin:miter;stroke-opacity:1;fill-opacity:1"
       d="M 79.675782,426.80356 C 91.418806,430.08656 102.65675,424.27818 103.16183,424.40445 103.66691,424.53072 119.32427,420.74265 128.03684,418.21726 134.60283,417.20711 146.59839,413.41903 146.59839,413.41903 L 160.99306,408.62081 174.37758,410.00977 184.73165,415.69188 C 184.73165,415.69188 184.98418,420.49011 181.82746,422.63668 178.67073,424.78326 187.3833,420.49011 161.87695,428.44506 136.3706,436.40001 139.02225,434.12717 123.61742,440.44062 107.72709,446.95304 111.06743,448.23953 104.67706,451.5523 98.229742,454.89458 92.050151,447.76423 86.115505,441.45077 80.180858,435.13732 70.995152,424.37671 79.675782,426.80356 Z"
       id="path840"
       inkscape:connector-curvature="0"
       sodipodi:nodetypes="sscccccssssss" />
    <path
       style="fill:#000000;fill-rule:evenodd;stroke:none;stroke-width:1px;stroke-linecap:butt;stroke-linejoin:miter;stroke-opacity:1;fill-opacity:1"
       d="M 113.13709,485.39241 C 144.70435,476.30104 160.86679,474.28073 163.39217,470.24012 165.91756,466.19951 165.15994,463.42159 169.70563,464.1792 174.25131,464.93682 187.3833,462.1589 193.44421,467.96728 199.50513,473.77565 206.5762,477.05865 203.2932,485.39241 200.0102,493.72617 182.83761,531.10181 182.83761,531.10181 L 162.63456,528.57643 C 162.63456,528.57643 169.45309,520.74775 169.70563,514.93937 169.95817,509.13099 167.43278,501.80739 169.45309,495.99901 171.47339,490.19063 171.97847,485.39241 167.18025,486.90764 162.38202,488.42287 150.76527,490.19063 143.94674,494.23124 137.12821,498.27185 116.92516,496.25155 113.38962,493.72617 109.85409,491.20079 107.58125,489.68556 108.5914,488.92794 109.60155,488.17033 113.13709,485.39241 113.13709,485.39241 Z"
       id="path842"
       inkscape:connector-curvature="0" />
    <path
       style="fill:#000000;fill-rule:evenodd;stroke:none;stroke-width:1px;stroke-linecap:butt;stroke-linejoin:miter;stroke-opacity:1;fill-opacity:1"
       d="M 115.15739,546.75918 C 137.63328,537.92034 148.49242,536.15257 155.56349,532.3645 162.63456,528.57643 175.76654,527.56628 182.83761,531.10181 189.90868,534.63734 192.18152,541.70841 191.17137,541.96095 190.16122,542.21349 181.57492,540.69826 169.95817,543.98126 158.34141,547.26425 136.62313,555.09293 135.61298,555.85055 134.60283,556.60816 124.5013,561.65893 124.5013,561.65893 L 111.36932,557.61832 Z"
       id="path844"
       inkscape:connector-curvature="0" />
    <path
       style="fill:#000000;fill-rule:evenodd;stroke:none;stroke-width:1px;stroke-linecap:butt;stroke-linejoin:miter;stroke-opacity:1;fill-opacity:1"
       d="M 71.468293,499.28201 C 82.579971,512.91907 86.368043,515.94952 89.903577,526.30359 93.439111,536.65765 93.691649,547.51679 94.701801,549.03202 95.711954,550.54725 99.247488,569.23507 100.76272,574.03329 102.27795,578.83152 108.08632,593.22619 108.08632,593.22619 108.08632,593.22619 115.66247,593.73127 115.40993,587.16528 115.15739,580.59929 115.15739,565.69954 115.15739,565.69954 115.15739,565.69954 113.38962,541.45587 112.37947,532.86958 111.36932,524.28328 108.33886,510.89876 108.33886,510.89876 L 96.974644,503.32262 73.741136,495.99901 Z"
       id="path846"
       inkscape:connector-curvature="0" />
    <path
       style="fill:#000000;fill-rule:evenodd;stroke:none;stroke-width:1px;stroke-linecap:butt;stroke-linejoin:miter;stroke-opacity:1;fill-opacity:1"
       d="M 276.02418,219.46975 C 286.37825,248.2591 286.63079,248.2591 286.63079,249.26925 286.63079,250.2794 288.90363,251.79463 272.23611,269.21976 255.56859,286.64489 250.51783,301.79718 263.90235,290.43297 277.28687,279.06875 297.23739,265.17915 297.48992,264.169 297.74246,263.15885 297.995,260.88601 305.57115,257.35047 313.14729,253.81494 321.22851,253.05732 320.97597,246.23879 320.72343,239.42026 317.69298,230.07635 309.61176,227.29843 301.53054,224.52051 296.47977,218.96467 288.65109,216.94437 280.82241,214.92406 278.8021,214.92406 278.8021,214.92406 Z"
       id="path848"
       inkscape:connector-curvature="0" />
    <path
       style="fill:#000000;fill-rule:evenodd;stroke:none;stroke-width:1px;stroke-linecap:butt;stroke-linejoin:miter;stroke-opacity:1;fill-opacity:1"
       d="M 388.90873,206.33777 C 406.33386,235.37965 401.03056,229.31874 407.09148,235.37965 413.15239,241.44057 412.64732,242.45072 427.7996,243.46087 442.95189,244.47103 446.9925,241.69311 448.50773,233.86442 450.02296,226.03574 451.03311,224.26798 445.98235,221.74259 440.93159,219.21721 443.70951,219.46975 428.80976,213.66137 413.91001,207.853 406.83894,203.81239 398.0001,205.32762 389.16127,206.84284 388.90873,206.33777 388.90873,206.33777 Z"
       id="path850"
       inkscape:connector-curvature="0" />
    <path
       style="fill:#000000;fill-rule:evenodd;stroke:none;stroke-width:1px;stroke-linecap:butt;stroke-linejoin:miter;stroke-opacity:1;fill-opacity:1"
       d="M 272.23611,304.07003 C 335.37065,289.17028 357.34146,281.34159 357.34146,281.34159 L 384.35779,285.19837 384.86812,295.73627 C 384.86812,295.73627 372.24121,299.01926 365.67522,298.76673 359.10923,298.51419 329.81481,308.11064 327.54196,309.12079 325.26912,310.13094 306.32876,315.93932 306.32876,315.93932 306.32876,315.93932 282.33764,313.91901 277.28687,309.62587 272.23611,305.33272 272.23611,304.07003 272.23611,304.07003 Z"
       id="path852"
       inkscape:connector-curvature="0"
       sodipodi:nodetypes="ccccccccc" />
    <path
       style="fill:#000000;fill-rule:evenodd;stroke:none;stroke-width:1px;stroke-linecap:butt;stroke-linejoin:miter;stroke-opacity:1;fill-opacity:1"
       d="M 288.21429,316.39046 C 296.07143,339.60475 292.85714,367.10475 292.85714,367.10475 L 293.21429,393.53332 294.28571,416.74761 C 294.28571,416.74761 296.78571,466.03332 297.5,467.46189 298.21429,468.89046 299.80874,503.42872 299.80874,503.42872 L 296.42857,527.10475 292.85714,544.96189 288.00508,556.63928 C 288.00508,556.63928 284.70842,556.7205 283.57143,557.46189 279.53799,560.09197 281.42857,571.74761 281.42857,571.74761 281.42857,571.74761 282.14286,596.74761 288.21429,601.74761 294.28571,606.74761 296.78571,609.60475 298.92857,608.89046 301.07143,608.17618 301.07143,579.96189 301.07143,579.96189 L 305.71429,532.46189 309.09445,514.09967 C 309.09445,514.09967 304.64286,460.67618 303.21429,442.81903 301.78571,424.96189 300.71429,402.81903 300.71429,402.81903 L 309.64286,376.74761 315.35714,357.81903 324.64286,345.31903 298.92857,322.46189 294.28571,314.60475 Z"
       id="path854"
       inkscape:connector-curvature="0"
       sodipodi:nodetypes="ccccsccccscsccccsccccccc" />
    <path
       style="fill:#000000;fill-rule:evenodd;stroke:none;stroke-width:1px;stroke-linecap:butt;stroke-linejoin:miter;stroke-opacity:1;fill-opacity:1"
       d="M 338.57143,305.31903 C 342.14286,306.39046 351.07143,323.17618 351.07143,323.17618 L 348.21429,379.96189 347.5,471.39046 343.21429,562.81903 338.57143,572.81903 343.57143,596.74761 344.64286,611.39046 352.85714,614.24761 360.71429,581.39046 355,476.74761 358.92857,401.39046 C 358.92857,401.39046 362.5,353.53332 363.92857,347.10475 365.35714,340.67618 374.64286,327.81903 374.64286,327.81903 L 367.5,311.74761 354.64286,299.60475 Z"
       id="path856"
       inkscape:connector-curvature="0" />
    <path
       style="fill:#000000;fill-rule:evenodd;stroke:none;stroke-width:1px;stroke-linecap:butt;stroke-linejoin:miter;stroke-opacity:1;fill-opacity:1"
       d="M 247.85714,361.39046 C 283.92857,351.03332 324.64286,345.31903 324.64286,345.31903 L 343.92857,339.60475 384.28571,328.89046 C 384.28571,328.89046 393.92857,329.24761 396.78571,323.89046 399.64286,318.53332 413.57143,315.67618 413.57143,315.67618 L 435.35714,327.81903 C 435.35714,327.81903 444.64286,337.46189 443.21429,338.53332 441.78571,339.60475 422.85714,373.53332 422.85714,373.53332 422.85714,373.53332 407.85714,404.60475 405.35714,407.10475 402.85714,409.60475 384.64286,416.74761 389.64286,402.81903 394.64286,388.89046 405,357.10475 405,357.10475 L 407.5,339.24761 C 407.5,339.24761 405.71429,335.67618 388.21429,339.96189 370.71429,344.24761 336.78571,349.60475 335.35714,350.67618 333.92857,351.74761 305.71429,358.89046 305.71429,358.89046 L 278.57143,369.60475 270,373.89046 C 270,373.89046 250.35714,371.03332 249.64286,368.53332 248.92857,366.03332 247.85714,361.39046 247.85714,361.39046 Z"
       id="path858"
       inkscape:connector-curvature="0" />
    <path
       style="fill:#000000;fill-rule:evenodd;stroke:none;stroke-width:1px;stroke-linecap:butt;stroke-linejoin:miter;stroke-opacity:1;fill-opacity:1"
       d="M 216.42857,408.53332 C 218.21429,408.53332 290,397.10475 290,397.10475 L 333.57143,388.17618 378.92857,379.60475 410.71429,373.53332 443.57143,367.10475 474.28572,357.10475 H 485 L 503.21429,363.53332 512,370.31903 C 512,370.31903 491.07143,379.24761 480.71429,379.24761 470.35714,379.24761 425,379.96189 425,379.96189 L 372.14286,389.96189 313.21429,402.10475 272.5,412.10475 245.35714,426.03332 228.57143,419.96189 Z"
       id="path860"
       inkscape:connector-curvature="0" />
    <path
       style="fill:#000000;fill-rule:evenodd;stroke:none;stroke-width:1px;stroke-linecap:butt;stroke-linejoin:miter;stroke-opacity:1;fill-opacity:1"
       d="M 236.78571,452.81903 C 288.57143,442.46189 334.64286,433.17618 337.14286,433.17618 339.64286,433.17618 389.28571,424.24761 389.28571,424.24761 L 410.35714,419.60475 420.71429,416.39046 446.07143,425.31903 C 446.07143,425.31903 443.21429,435.31903 422.5,435.31903 401.78571,435.31903 400.35714,431.39046 384.64286,434.60475 368.92857,437.81903 346.78571,439.60475 331.78571,442.81903 316.78571,446.03332 306.07143,445.67618 290.71429,452.10475 275.35714,458.53332 265.35714,462.46189 260.35714,466.39046 255.35714,470.31903 241.78571,471.74761 236.78571,464.60475 231.78571,457.46189 236.78571,452.81903 236.78571,452.81903 Z"
       id="path862"
       inkscape:connector-curvature="0" />
    <path
       style="fill:#000000;fill-rule:evenodd;stroke:none;stroke-width:1px;stroke-linecap:butt;stroke-linejoin:miter;stroke-opacity:1;fill-opacity:1"
       d="M 248.21429,486.03332 C 233.38359,511.04623 229.37609,516.70799 230.71429,526.03332 232.39378,537.73697 252.37685,543.40951 257.5,527.10475 262.7346,510.4453 253.77797,476.64982 248.21429,486.03332 Z"
       id="path864"
       inkscape:connector-curvature="0"
       sodipodi:nodetypes="ssss" />
    <path
       style="fill:#000000;fill-rule:evenodd;stroke:none;stroke-width:1px;stroke-linecap:butt;stroke-linejoin:miter;stroke-opacity:1;fill-opacity:1"
       d="M 400.52548,474.02819 C 424.76915,507.74203 429.06229,521.88417 435.88082,524.91463 441.81547,528.57643 445.85608,534.51108 449.13908,529.96539 452.42207,525.4197 456.46268,519.10625 453.55849,513.55041 450.65431,507.99457 449.77042,499.15574 445.351,493.85244 440.93159,488.54913 440.0477,483.49838 430.95633,480.34165 421.86496,477.18492 414.79389,466.83086 408.10163,466.95713 401.40937,467.0834 401.2831,470.87146 401.2831,470.87146 Z"
       id="path866"
       inkscape:connector-curvature="0"
       sodipodi:nodetypes="cccccsscc" />
  </g>
</svg>
