<?xml version="1.0" encoding="UTF-8" standalone="no"?>
<!-- Created with Inkscape (http://www.inkscape.org/) -->

<svg
   xmlns:dc="http://purl.org/dc/elements/1.1/"
   xmlns:cc="http://creativecommons.org/ns#"
   xmlns:rdf="http://www.w3.org/1999/02/22-rdf-syntax-ns#"
   xmlns:svg="http://www.w3.org/2000/svg"
   xmlns="http://www.w3.org/2000/svg"
   xmlns:sodipodi="http://sodipodi.sourceforge.net/DTD/sodipodi-0.dtd"
   xmlns:inkscape="http://www.inkscape.org/namespaces/inkscape"
   width="512"
   height="512"
   viewBox="0 0 512 512"
   version="1.1"
   id="svg8"
   inkscape:version="0.92.4 (5da689c313, 2019-01-14)"
   sodipodi:docname="U+8CBD.svg">
  <defs
     id="defs2" />
  <sodipodi:namedview
     id="base"
     pagecolor="#ffffff"
     bordercolor="#666666"
     borderopacity="1.0"
     inkscape:pageopacity="0.0"
     inkscape:pageshadow="2"
     inkscape:zoom="1.979899"
     inkscape:cx="309.04403"
     inkscape:cy="284.54554"
     inkscape:document-units="px"
     inkscape:current-layer="layer1"
     showgrid="false"
     units="px"
     inkscape:window-width="1920"
     inkscape:window-height="1001"
     inkscape:window-x="-9"
     inkscape:window-y="-9"
     inkscape:window-maximized="1" />
  <metadata
     id="metadata5">
    <rdf:RDF>
      <cc:Work
         rdf:about="">
        <dc:format>image/svg+xml</dc:format>
        <dc:type
           rdf:resource="http://purl.org/dc/dcmitype/StillImage" />
        <dc:title></dc:title>
      </cc:Work>
    </rdf:RDF>
  </metadata>
  <g
     inkscape:label="圖層 1"
     inkscape:groupmode="layer"
     id="layer1"
     transform="translate(0,-161.53332)">
    <path
       style="fill:#000000;fill-rule:evenodd;stroke:none;stroke-width:1px;stroke-linecap:butt;stroke-linejoin:miter;stroke-opacity:1;fill-opacity:1"
       d="M 84.852814,307.8581 100.0051,333.11191 90.913729,449.27945 86.873119,461.40129 91.923882,468.47235 H 103.03556 L 115.15739,356.34542 118.18785,326.04084 C 118.18785,326.04084 114.14724,316.94947 110.10663,316.94947 106.06602,316.94947 88.893424,306.84795 84.852814,307.8581 Z"
       id="path826"
       inkscape:connector-curvature="0" />
    <path
       style="fill:#000000;fill-rule:evenodd;stroke:none;stroke-width:1px;stroke-linecap:butt;stroke-linejoin:miter;stroke-opacity:1;fill-opacity:1"
       d="M 128.28937,279.57383 190.91883,266.44184 214.15234,277.55352 219.2031,292.70581 217.1828,301.79718 209.10158,307.8581 200,505.67618 195,504.96189 211.42857,516.39046 209.28571,539.24761 206.42857,552.10475 C 206.42857,552.10475 195,555.67618 182.85714,541.39046 170.71429,527.10475 164.28571,494.96189 162.14286,491.39046 160,487.81903 172.85714,495.67618 175.71429,493.53332 178.57143,491.39046 189.28571,370.67618 187.85714,337.10475 186.42857,303.53332 191.42857,290.67618 174.28571,294.24761 157.14286,297.81903 152.85714,301.39046 146.42857,306.39046 140,311.39046 130.71429,308.53332 129.28571,302.10475 127.85714,295.67618 123.57143,287.81903 123.57143,287.81903 Z"
       id="path828"
       inkscape:connector-curvature="0" />
    <path
       style="fill:#000000;fill-rule:evenodd;stroke:none;stroke-width:1px;stroke-linecap:butt;stroke-linejoin:miter;stroke-opacity:1;fill-opacity:1"
       d="M 120.71429,340.67618 C 137.14286,336.39046 146.42857,334.24761 146.42857,334.24761 L 161.42857,334.96189 165.71429,343.53332 C 165.71429,343.53332 162.14286,349.24761 159.28571,349.96189 156.42857,350.67618 147.14286,359.24761 147.14286,359.24761 L 140.71429,362.81903 127.85714,357.10475 119.28571,345.67618 Z"
       id="path830"
       inkscape:connector-curvature="0" />
    <path
       style="fill:#000000;fill-rule:evenodd;stroke:none;stroke-width:1px;stroke-linecap:butt;stroke-linejoin:miter;stroke-opacity:1;fill-opacity:1"
       d="M 112.14286,412.81903 142.14286,394.24761 158.57143,394.96189 C 158.57143,394.96189 162.85714,399.24761 161.42857,402.81903 160,406.39046 129.28571,421.39046 129.28571,421.39046 L 117.85714,427.81903 107.85714,417.81903 Z"
       id="path832"
       inkscape:connector-curvature="0" />
    <path
       style="fill:#000000;fill-rule:evenodd;stroke:none;stroke-width:1px;stroke-linecap:butt;stroke-linejoin:miter;stroke-opacity:1;fill-opacity:1"
       d="M 41.428571,483.53332 169.28571,446.39046 H 178.57143 L 180.71429,456.39046 85.357143,484.60475 60.714286,497.81903 Z"
       id="path834"
       inkscape:connector-curvature="0" />
    <path
       style="fill:#000000;fill-rule:evenodd;stroke:none;stroke-width:1px;stroke-linecap:butt;stroke-linejoin:miter;stroke-opacity:1;fill-opacity:1"
       d="M 101.78571,493.89046 48.571429,559.60475 C 48.571429,559.60475 46.071429,573.53332 46.785714,572.10475 47.5,570.67618 94.642857,530.31903 94.642857,530.31903 L 116.07143,514.96189 119.64286,508.17618 C 119.64286,508.17618 115.35714,496.39046 113.92857,496.39046 112.5,496.39046 103.21429,493.89046 103.21429,493.89046 Z"
       id="path836"
       inkscape:connector-curvature="0" />
    <path
       style="fill:#000000;fill-rule:evenodd;stroke:none;stroke-width:1px;stroke-linecap:butt;stroke-linejoin:miter;stroke-opacity:1;fill-opacity:1"
       d="M 333.85542,245.73372 332.34019,268.96723 293.44931,352.80989 268.70058,350.78958 C 268.70058,350.78958 262.13459,339.6779 259.10413,342.20328 256.07367,344.72867 244.96199,365.94187 244.96199,365.94187 L 263.64981,385.63984 404.56609,333.11191 413.65747,331.59668 437.39605,351.29466 455.07372,343.71851 C 455.07372,343.71851 454.56865,333.61699 452.04326,332.60684 449.51788,331.59668 432.34529,310.88856 432.34529,310.88856 L 409.61686,299.77688 392.94934,291.69566 383.35289,296.74642 386.88843,307.35302 393.95949,318.96978 390.92904,325.53577 C 390.92904,325.53577 362.64476,330.08145 359.61431,331.59668 356.58385,333.11191 339.41126,334.12206 337.39095,335.63729 335.37065,337.15252 320.21836,342.70836 320.21836,342.70836 L 356.58385,286.64489 363.14984,275.53322 Z"
       id="path838"
       inkscape:connector-curvature="0" />
    <path
       style="fill:#000000;fill-rule:evenodd;stroke:none;stroke-width:1px;stroke-linecap:butt;stroke-linejoin:miter;stroke-opacity:1;fill-opacity:1"
       d="M 283.34779,424.02564 301.02546,437.15762 317.1879,462.91651 324.76404,554.33532 322.23866,568.98253 315.67267,567.4673 293.95439,477.56373 279.30718,431.09671 Z"
       id="path840"
       inkscape:connector-curvature="0" />
    <path
       style="fill:#000000;fill-rule:evenodd;stroke:none;stroke-width:1px;stroke-linecap:butt;stroke-linejoin:miter;stroke-opacity:1;fill-opacity:1"
       d="M 316.68282,425.54087 408.6067,414.93427 411.13209,396.75152 432.34529,399.2769 453.55849,428.57133 419.71838,512.41399 401.03056,498.77693 413.15239,435.6424 C 413.15239,435.6424 405.07117,428.57133 399.01026,432.10686 392.94934,435.6424 347.49248,450.28961 344.46202,451.29976 341.43156,452.30991 325.26912,449.27945 320.21836,441.19823 315.16759,433.11701 316.68282,425.54087 316.68282,425.54087 Z"
       id="path842"
       inkscape:connector-curvature="0" />
    <path
       style="fill:#000000;fill-rule:evenodd;stroke:none;stroke-width:1px;stroke-linecap:butt;stroke-linejoin:miter;stroke-opacity:1;fill-opacity:1"
       d="M 321.22851,515.44445 401.03056,498.77693 415.67777,501.30231 430.32498,510.89876 C 430.32498,510.89876 431.60714,521.39046 413.57143,520.85475 395.53572,520.31903 366.25,522.28332 352.67857,524.96189 339.10714,527.64046 336.96429,527.64046 327.14286,529.06903 317.32143,530.49761 310.71429,526.03332 310.53571,524.96189 310.35714,523.89046 321.22851,515.44445 321.22851,515.44445 Z"
       id="path844"
       inkscape:connector-curvature="0" />
  </g>
</svg>
