<?xml version="1.0" encoding="UTF-8" standalone="no"?>
<!-- Created with Inkscape (http://www.inkscape.org/) -->

<svg
   xmlns:dc="http://purl.org/dc/elements/1.1/"
   xmlns:cc="http://creativecommons.org/ns#"
   xmlns:rdf="http://www.w3.org/1999/02/22-rdf-syntax-ns#"
   xmlns:svg="http://www.w3.org/2000/svg"
   xmlns="http://www.w3.org/2000/svg"
   xmlns:sodipodi="http://sodipodi.sourceforge.net/DTD/sodipodi-0.dtd"
   xmlns:inkscape="http://www.inkscape.org/namespaces/inkscape"
   width="512"
   height="512"
   viewBox="0 0 512 512"
   version="1.1"
   id="svg8"
   inkscape:version="0.92.4 (5da689c313, 2019-01-14)"
   sodipodi:docname="U+8FA7.svg">
  <defs
     id="defs2" />
  <sodipodi:namedview
     id="base"
     pagecolor="#ffffff"
     bordercolor="#666666"
     borderopacity="1.0"
     inkscape:pageopacity="0.0"
     inkscape:pageshadow="2"
     inkscape:zoom="1.4"
     inkscape:cx="237.26652"
     inkscape:cy="210.83022"
     inkscape:document-units="px"
     inkscape:current-layer="layer1"
     showgrid="false"
     units="px"
     inkscape:window-width="1920"
     inkscape:window-height="1001"
     inkscape:window-x="-9"
     inkscape:window-y="-9"
     inkscape:window-maximized="1" />
  <metadata
     id="metadata5">
    <rdf:RDF>
      <cc:Work
         rdf:about="">
        <dc:format>image/svg+xml</dc:format>
        <dc:type
           rdf:resource="http://purl.org/dc/dcmitype/StillImage" />
        <dc:title></dc:title>
      </cc:Work>
    </rdf:RDF>
  </metadata>
  <g
     inkscape:label="圖層 1"
     inkscape:groupmode="layer"
     id="layer1"
     transform="translate(0,-161.53331)">
    <path
       style="fill:#000000;fill-rule:evenodd;stroke:none;stroke-width:1px;stroke-linecap:butt;stroke-linejoin:miter;stroke-opacity:1;fill-opacity:1"
       d="M 137.88582,197.24639 C 142.93659,198.25654 149.50258,199.77177 159.6041,204.31745 169.70563,208.86314 169.70563,206.33776 173.74624,216.94436 177.78685,227.55096 186.37314,234.11695 183.34269,238.15756 180.31223,242.19817 178.29192,249.77432 171.72593,243.7134 165.15994,237.65249 155.56349,221.49005 153.03811,219.46974 150.51273,217.44944 142.43151,206.33776 142.43151,206.33776 Z"
       id="path826"
       inkscape:connector-curvature="0" />
    <path
       style="fill:#000000;fill-rule:evenodd;stroke:none;stroke-width:1px;stroke-linecap:butt;stroke-linejoin:miter;stroke-opacity:1;fill-opacity:1"
       d="M 70.710678,274.01798 C 79.296975,278.05859 121.72338,272.50275 124.24876,270.48244 126.77414,268.46214 211.12188,253.30985 211.12188,253.30985 L 220.21326,249.26924 235.36554,248.76416 245.46707,258.86569 C 245.46707,258.86569 250.01276,266.44183 247.99245,266.94691 245.97214,267.45199 230.31478,265.93676 221.72848,265.43168 213.14219,264.92661 213.14219,262.40122 203.54574,263.41138 193.94929,264.42153 169.20055,269.97737 151.01781,274.52305 132.83506,279.06874 127.7843,281.08905 110.6117,287.14996 93.43911,293.21088 82.832509,303.3124 82.832509,303.3124 82.832509,303.3124 81.31728,307.35301 78.286822,307.85809 75.256365,308.36316 64.649763,299.77687 64.649763,299.77687 64.649763,299.77687 58.083771,294.22103 58.083771,290.18042 58.083771,286.13981 62.124382,273.00783 62.124382,273.00783 L 68.690373,275.53321 H 72.225907 Z"
       id="path828"
       inkscape:connector-curvature="0" />
    <path
       style="fill:#000000;fill-rule:evenodd;stroke:none;stroke-width:1px;stroke-linecap:butt;stroke-linejoin:miter;stroke-opacity:1;fill-opacity:1"
       d="M 99.752564,327.05099 C 99.752564,329.57637 105.05586,350.53703 105.05586,351.79972 105.05586,353.06241 115.15739,366.1944 115.15739,366.1944 L 128.54191,368.71978 C 128.54191,368.71978 134.85536,356.85049 133.34014,355.33526 131.82491,353.82003 127.27922,339.93043 125.76399,338.66774 124.24876,337.40505 115.15739,330.58652 115.15739,330.58652 Z"
       id="path830"
       inkscape:connector-curvature="0" />
    <path
       style="fill:#000000;fill-rule:evenodd;stroke:none;stroke-width:1px;stroke-linecap:butt;stroke-linejoin:miter;stroke-opacity:1;fill-opacity:1"
       d="M 170.71578,303.81748 C 170.71578,303.81748 177.28177,308.86824 176.27162,311.8987 175.26147,314.92916 151.52288,362.40633 151.52288,364.42663 151.52288,366.44694 154.04826,372.50785 154.04826,372.50785 L 175.76654,342.70835 C 175.76654,342.70835 185.86807,325.53576 188.89853,325.03068 191.92898,324.52561 199.50513,323.01038 201.52543,320.485 203.54574,317.95961 204.55589,314.42408 204.05081,311.8987 203.54574,309.37332 193.94929,302.30225 193.94929,302.30225 193.94929,302.30225 182.83761,294.22103 180.81731,294.22103 178.797,294.22103 167.68532,296.24133 167.68532,296.24133 Z"
       id="path832"
       inkscape:connector-curvature="0" />
    <path
       style="fill:#000000;fill-rule:evenodd;stroke:none;stroke-width:1px;stroke-linecap:butt;stroke-linejoin:miter;stroke-opacity:1;fill-opacity:1"
       d="M 234.35539,320.485 233.85031,347.25404 C 233.85031,347.25404 227.7894,375.03323 227.7894,377.05354 227.7894,379.07384 228.29448,387.15506 228.29448,387.15506 L 236.88077,398.26674 H 249.0026 L 256.57875,353.82003 C 256.57875,353.82003 268.70058,331.59667 265.67012,331.59667 262.63966,331.59667 256.07367,326.04083 253.54829,324.52561 251.02291,323.01038 239.40615,315.93931 239.40615,315.93931 Z"
       id="path834"
       inkscape:connector-curvature="0" />
    <path
       style="fill:#000000;fill-rule:evenodd;stroke:none;stroke-width:1px;stroke-linecap:butt;stroke-linejoin:miter;stroke-opacity:1;fill-opacity:1"
       d="M 83.337585,376.04339 111.62186,378.06369 188.39345,359.37587 202.03051,361.39617 202.53559,369.47739 162.12948,379.07384 C 162.12948,379.07384 147.98735,382.60938 145.46197,383.61953 142.93659,384.62968 125.25892,390.6906 122.73353,390.6906 120.20815,390.6906 105.56094,398.26674 105.56094,398.26674 L 97.479721,406.85304 C 97.479721,406.85304 80.812204,397.76166 81.31728,394.73121 81.822356,391.70075 83.842661,378.06369 83.842661,378.06369 Z"
       id="path836"
       inkscape:connector-curvature="0" />
    <path
       style="fill:#000000;fill-rule:evenodd;stroke:none;stroke-width:1px;stroke-linecap:butt;stroke-linejoin:miter;stroke-opacity:1;fill-opacity:1"
       d="M 30.304576,444.73376 107.58125,426.55101 180.81731,412.40888 193.44421,407.86319 C 193.44421,407.86319 199.00005,414.42918 197.9899,416.95456 196.97975,419.47994 157.07872,431.60178 157.07872,431.60178 L 111.62186,442.71345 C 111.62186,442.71345 90.408653,453.32005 88.388348,454.33021 86.368043,455.34036 73.23606,461.90635 72.225907,463.92666 71.215754,465.94696 61.619305,474.53326 58.588848,474.53326 55.55839,474.53326 42.931483,467.96727 42.931483,467.96727 Z"
       id="path838"
       inkscape:connector-curvature="0" />
    <path
       style="fill:#000000;fill-rule:evenodd;stroke:none;stroke-width:1px;stroke-linecap:butt;stroke-linejoin:miter;stroke-opacity:1;fill-opacity:1"
       d="M 120.71323,397.76166 128.79445,413.41903 127.7843,468.47234 C 127.7843,468.47234 127.7843,468.47234 121.72338,487.66524 105.32185,539.60339 96.974644,543.72871 93.43911,538.67795 89.903577,533.62718 87.378195,531.1018 87.378195,531.1018 87.378195,531.1018 86.873119,541.7084 87.378195,546.75917 87.883271,551.80993 88.092553,562.11103 93.944187,563.93176 103.30818,566.84536 118.18785,547.26424 118.18785,547.26424 L 143.94674,469.4825 150.00765,420.4901 146.47212,403.82258 131.82491,395.74136 124.75384,393.72105 121.21831,400.79212 Z"
       id="path840"
       inkscape:connector-curvature="0"
       sodipodi:nodetypes="cccsccsscccccccc" />
    <path
       style="fill:#000000;fill-rule:evenodd;stroke:none;stroke-width:1px;stroke-linecap:butt;stroke-linejoin:miter;stroke-opacity:1;fill-opacity:1"
       d="M 268.57143,219.96188 C 274.28571,219.24759 291.42857,255.67617 291.42857,255.67617 L 288.57143,372.81902 280.71429,429.2476 262.14286,516.39045 251.42857,509.96188 C 251.42857,509.96188 248.57143,512.10474 248.57143,516.39045 248.57143,520.67617 257.14286,572.10474 262.85714,564.2476 268.57143,556.39045 288.57143,453.53331 288.57143,453.53331 L 309.28571,269.96188 C 309.28571,269.96188 317.85714,261.39045 318.57143,258.53331 319.28571,255.67617 306.42857,227.81902 306.42857,227.81902 L 277.14286,214.96188 Z"
       id="path842"
       inkscape:connector-curvature="0"
       sodipodi:nodetypes="ccccccsscccccc" />
    <path
       style="fill:#000000;fill-rule:evenodd;stroke:none;stroke-width:1px;stroke-linecap:butt;stroke-linejoin:miter;stroke-opacity:1;fill-opacity:1"
       d="M 356.07877,219.97482 C 358.09908,218.96466 369.05384,214.05846 375.77675,214.92405 380.93426,215.58809 385.3732,222.5002 389.41381,222.5002 393.45442,222.5002 397.49503,227.55096 397.49503,227.55096 L 392.44426,241.18802 C 392.44426,241.18802 392.44426,249.26924 390.42396,249.26924 388.40365,249.26924 376.7869,243.7134 376.7869,243.7134 376.7869,243.7134 368.44087,235.22231 364.15999,231.0865 361.6756,228.68631 355.5737,228.56111 356.58385,224.01543 357.594,219.46974 350.01599,223.00623 356.07877,219.97482 Z"
       id="path844"
       inkscape:connector-curvature="0"
       sodipodi:nodetypes="sssccscsss" />
    <path
       style="fill:#000000;fill-rule:evenodd;stroke:none;stroke-width:1px;stroke-linecap:butt;stroke-linejoin:miter;stroke-opacity:1;fill-opacity:1"
       d="M 326.78571,266.7476 C 326.78571,269.60474 375.71429,263.89045 375.71429,263.89045 375.71429,263.89045 419.28571,253.17617 420.71429,252.10474 422.14286,251.03331 431.78571,246.39045 431.78571,246.39045 L 434.28571,238.89045 468.21429,246.74759 475.71429,251.39045 C 475.71429,251.39045 480,256.74759 478.57143,258.53331 477.14286,260.31902 448.21429,259.96188 446.42857,261.39045 444.64286,262.81902 401.42857,268.89045 401.42857,268.89045 401.42857,268.89045 377.14286,275.67617 372.85714,276.39045 368.57143,277.10474 352.14286,287.10474 352.14286,287.10474 L 337.85714,294.60474 322.85714,287.81902 C 322.85714,287.81902 315.71429,272.81902 318.21429,272.81902 320.71429,272.81902 326.78571,266.7476 326.78571,266.7476 Z"
       id="path846"
       inkscape:connector-curvature="0" />
    <path
       style="fill:#000000;fill-rule:evenodd;stroke:none;stroke-width:1px;stroke-linecap:butt;stroke-linejoin:miter;stroke-opacity:1;fill-opacity:1"
       d="M 332.14286,318.17617 C 335.35714,318.17617 352.85714,331.7476 352.85714,331.7476 352.85714,331.7476 354.64286,335.67617 354.64286,339.2476 354.64286,342.81902 351.42857,351.03331 351.42857,351.03331 351.42857,351.03331 345,348.53331 343.21429,347.46188 341.42857,346.39045 334.64286,336.39045 334.64286,336.39045 L 326.78571,323.53331 329.64286,318.53331 Z"
       id="path848"
       inkscape:connector-curvature="0" />
    <path
       style="fill:#000000;fill-rule:evenodd;stroke:none;stroke-width:1px;stroke-linecap:butt;stroke-linejoin:miter;stroke-opacity:1;fill-opacity:1"
       d="M 394.64286,292.46188 C 394.28571,293.89045 388.21429,303.53331 387.5,308.53331 386.78571,313.53331 382.85714,320.67617 380,325.67617 377.14286,330.67617 369.64286,338.53331 368.92857,340.31902 368.21429,342.10474 362.14286,353.17617 362.14286,353.17617 L 392.85714,335.31902 C 392.85714,335.31902 408.92857,321.03331 412.5,320.31902 416.07143,319.60474 420,315.31902 420,313.17617 420,311.03331 415,299.60474 415,299.60474 415,299.60474 414.64286,291.39045 411.78571,291.39045 408.92857,291.39045 400.35714,288.89045 400.35714,288.89045 Z"
       id="path850"
       inkscape:connector-curvature="0" />
    <path
       style="fill:#000000;fill-rule:evenodd;stroke:none;stroke-width:1px;stroke-linecap:butt;stroke-linejoin:miter;stroke-opacity:1;fill-opacity:1"
       d="M 330.71429,361.03331 C 330.74603,359.60509 392.14286,354.2476 394.28571,353.89045 396.42857,353.53331 405.71429,350.67617 405.71429,350.67617 405.71429,350.67617 416.78571,354.96188 416.42857,357.10474 416.07143,359.2476 424.28571,362.46188 413.21429,367.10474 402.14286,371.7476 390.35715,368.89045 388.57143,369.60474 386.78571,370.31903 360.71429,379.96188 359.28571,379.96188 357.85714,379.96188 342.85714,385.67617 342.85714,385.67617 342.85714,385.67617 332.86391,381.49114 330.35714,377.10474 324.87674,367.51501 330.71429,361.03331 330.71429,361.03331 Z"
       id="path852"
       inkscape:connector-curvature="0"
       sodipodi:nodetypes="sccsssscss" />
    <path
       style="fill:#000000;fill-rule:evenodd;stroke:none;stroke-width:1px;stroke-linecap:butt;stroke-linejoin:miter;stroke-opacity:1;fill-opacity:1"
       d="M 359.64286,380.67617 366.78571,385.31902 363.57143,471.7476 362.14286,574.96188 C 362.14286,574.96188 356.78571,601.7476 356.78571,605.67617 356.78571,609.60474 355.35714,629.60474 356.07143,638.89045 356.78571,648.17617 357.85714,656.39045 360.71429,657.10474 363.57143,657.81902 371.42857,659.60474 373.57143,652.81902 375.71429,646.03331 381.07143,568.53331 380.35714,552.10474 379.64286,535.67617 384.64286,462.46188 382.5,446.03331 380.35714,429.60474 386.42857,385.31902 386.42857,385.31902 386.42857,385.31902 380.35714,366.39045 378.57143,366.39045 376.78571,366.39045 367.85714,368.53331 367.85714,368.53331 Z"
       id="path854"
       inkscape:connector-curvature="0" />
    <path
       style="fill:#000000;fill-rule:evenodd;stroke:none;stroke-width:1px;stroke-linecap:butt;stroke-linejoin:miter;stroke-opacity:1;fill-opacity:1"
       d="M 336.42857,408.53331 357.14286,404.60474 395,397.81902 C 395,397.81902 403.92857,399.2476 406.07143,399.2476 408.21429,399.2476 412.85714,403.53331 412.85714,404.96188 412.85714,406.39045 408.57143,410.31902 401.07143,413.17617 393.57143,416.03331 376.42857,418.53331 375,419.60474 373.57143,420.67617 361.42857,425.67617 357.85714,427.46188 354.28571,429.2476 351.07143,428.53331 345,427.81902 338.92857,427.10474 333.21429,415.31902 333.21429,415.31902 Z"
       id="path856"
       inkscape:connector-curvature="0" />
    <path
       style="fill:#000000;fill-rule:evenodd;stroke:none;stroke-width:1px;stroke-linecap:butt;stroke-linejoin:miter;stroke-opacity:1;fill-opacity:1"
       d="M 302.14286,459.60474 C 302.14286,459.60474 342.14286,457.46188 345,457.46188 347.85714,457.46188 353.92857,455.67617 383.21429,450.67617 412.5,445.67617 425.35714,443.53331 436.78571,444.2476 448.21429,444.96188 456.78572,443.53331 460,451.39045 463.21429,459.2476 470.71429,463.53331 453.21429,464.60474 435.71429,465.67617 433.92857,461.39045 417.5,462.10474 401.07143,462.81902 383.57143,462.10474 383.57143,462.10474 383.57143,462.10474 360,465.31902 357.85714,466.39045 355.71429,467.46188 338.21429,472.81902 338.21429,472.81902 L 326.78571,480.67617 313.57143,478.89045 Z"
       id="path858"
       inkscape:connector-curvature="0" />
  </g>
</svg>
