<?xml version="1.0" encoding="UTF-8" standalone="no"?>
<!-- Created with Inkscape (http://www.inkscape.org/) -->

<svg
   xmlns:dc="http://purl.org/dc/elements/1.1/"
   xmlns:cc="http://creativecommons.org/ns#"
   xmlns:rdf="http://www.w3.org/1999/02/22-rdf-syntax-ns#"
   xmlns:svg="http://www.w3.org/2000/svg"
   xmlns="http://www.w3.org/2000/svg"
   xmlns:sodipodi="http://sodipodi.sourceforge.net/DTD/sodipodi-0.dtd"
   xmlns:inkscape="http://www.inkscape.org/namespaces/inkscape"
   width="512"
   height="512"
   viewBox="0 0 512 512"
   version="1.1"
   id="svg8"
   inkscape:version="0.92.4 (5da689c313, 2019-01-14)"
   sodipodi:docname="U+9451.svg">
  <defs
     id="defs2" />
  <sodipodi:namedview
     id="base"
     pagecolor="#ffffff"
     bordercolor="#666666"
     borderopacity="1.0"
     inkscape:pageopacity="0.0"
     inkscape:pageshadow="2"
     inkscape:zoom="0.98994949"
     inkscape:cx="375.22567"
     inkscape:cy="380.67037"
     inkscape:document-units="px"
     inkscape:current-layer="layer1"
     showgrid="false"
     units="px"
     inkscape:window-width="1920"
     inkscape:window-height="1001"
     inkscape:window-x="-9"
     inkscape:window-y="-9"
     inkscape:window-maximized="1" />
  <metadata
     id="metadata5">
    <rdf:RDF>
      <cc:Work
         rdf:about="">
        <dc:format>image/svg+xml</dc:format>
        <dc:type
           rdf:resource="http://purl.org/dc/dcmitype/StillImage" />
        <dc:title></dc:title>
      </cc:Work>
    </rdf:RDF>
  </metadata>
  <g
     inkscape:label="圖層 1"
     inkscape:groupmode="layer"
     id="layer1"
     transform="translate(0,-161.53331)">
    <path
       style="fill:#000000;fill-rule:evenodd;stroke:none;stroke-width:1px;stroke-linecap:butt;stroke-linejoin:miter;stroke-opacity:1;fill-opacity:1"
       d="M 155.56349,223.51035 158.08887,236.13726 C 158.08887,236.13726 153.54319,261.89615 124.75384,286.13981 95.964492,310.38347 66.670068,333.61698 66.670068,333.61698 L 34.850263,355.84033 37.375644,357.86064 77.781746,341.19312 123.23861,311.39362 154.04826,280.58397 170.71578,261.39107 179.80715,261.89615 C 179.80715,261.89615 184.35284,241.18802 177.78685,235.12711 171.22086,229.06619 159.09903,220.47989 159.09903,220.47989 Z"
       id="path826"
       inkscape:connector-curvature="0" />
    <path
       style="fill:#000000;fill-rule:evenodd;stroke:none;stroke-width:1px;stroke-linecap:butt;stroke-linejoin:miter;stroke-opacity:1;fill-opacity:1"
       d="M 117.1777,354.83018 C 117.1777,354.83018 127.27922,346.74896 144.95689,340.68805 162.63456,334.62713 177.78685,335.13221 177.78685,335.13221 177.78685,335.13221 188.89853,338.66774 194.45437,341.19312 200.0102,343.7185 202.53559,351.79972 202.53559,351.79972 202.53559,351.79972 178.29192,353.31495 168.1904,357.35556 158.08887,361.39617 144.95689,367.45709 144.95689,367.45709 L 131.82491,365.43678 Z"
       id="path828"
       inkscape:connector-curvature="0" />
    <path
       style="fill:#000000;fill-rule:evenodd;stroke:none;stroke-width:1px;stroke-linecap:butt;stroke-linejoin:miter;stroke-opacity:1;fill-opacity:1"
       d="M 142.43151,357.35556 148.9975,382.60938 145.96704,452.3099 133.84521,509.38352 V 534.13226 C 133.84521,534.13226 136.87567,543.22363 138.89598,543.22363 140.91628,543.22363 149.50258,537.66779 148.9975,512.91906 148.49242,488.17032 153.54319,446.75406 159.09903,427.56117 164.65486,408.36827 168.69548,381.09415 168.69548,381.09415 L 153.54319,357.86064 Z"
       id="path830"
       inkscape:connector-curvature="0" />
    <path
       style="fill:#000000;fill-rule:evenodd;stroke:none;stroke-width:1px;stroke-linecap:butt;stroke-linejoin:miter;stroke-opacity:1;fill-opacity:1"
       d="M 94.449263,404.83273 C 97.984797,405.33781 105.05586,413.41903 136.87567,397.25659 168.69548,381.09415 189.4036,385.63983 189.4036,385.63983 L 205.06097,394.73121 C 205.06097,394.73121 210.11173,401.80228 182.83761,406.85304 155.56349,411.9038 129.29953,423.01548 129.29953,423.01548 L 118.69292,431.60178 C 118.69292,431.60178 88.893424,424.02563 94.449263,404.83273 Z"
       id="path832"
       inkscape:connector-curvature="0" />
    <path
       style="fill:#000000;fill-rule:evenodd;stroke:none;stroke-width:1px;stroke-linecap:butt;stroke-linejoin:miter;stroke-opacity:1;fill-opacity:1"
       d="M 90.156115,457.6132 C 90.156115,458.62336 95.459416,474.7858 105.3084,478.82641 115.15739,482.86702 121.72338,484.63478 121.72338,484.63478 121.72338,484.63478 125.00638,504.08022 117.93531,501.55484 110.86424,499.02946 96.469568,489.93808 96.469568,489.93808 L 88.13581,474.28072 87.630733,460.39112 Z"
       id="path834"
       inkscape:connector-curvature="0" />
    <path
       style="fill:#000000;fill-rule:evenodd;stroke:none;stroke-width:1px;stroke-linecap:butt;stroke-linejoin:miter;stroke-opacity:1;fill-opacity:1"
       d="M 181.82746,441.19822 C 181.82746,441.19822 184.1003,458.37082 177.53431,469.4825 170.96832,480.59417 171.47339,480.0891 166.67517,486.15001 161.87695,492.21093 160.86679,498.77692 160.86679,498.77692 160.86679,498.77692 167.18025,499.53453 176.7767,490.44316 186.37314,481.35179 206.32366,465.44189 206.32366,465.44189 206.32366,465.44189 210.11173,453.57259 204.05081,448.01675 197.9899,442.46092 189.4036,433.87462 189.4036,433.87462 189.4036,433.87462 180.99641,431.06465 181.82746,441.19822 182.15922,445.24364 181.82746,441.19822 181.82746,441.19822 Z"
       id="path836"
       inkscape:connector-curvature="0"
       sodipodi:nodetypes="csscscscsc" />
    <path
       style="fill:#000000;fill-rule:evenodd;stroke:none;stroke-width:1px;stroke-linecap:butt;stroke-linejoin:miter;stroke-opacity:1;fill-opacity:1"
       d="M 11.111678,532.36449 C 11.111678,532.36449 16.667517,537.16272 23.738585,536.65764 30.809653,536.15256 90.408653,528.32388 90.408653,528.32388 L 141.42136,522.5155 C 141.42136,522.5155 156.32111,523.77819 160.61425,522.01043 164.9074,520.24266 167.43278,512.66652 174.25131,514.68682 181.06984,516.70713 189.4036,519.99012 193.44421,521.25281 197.48482,522.5155 217.94041,538.93048 193.19167,535.64749 168.44294,532.36449 134.09775,532.86957 113.38962,536.91018 92.681496,540.95079 77.024132,542.21348 62.629458,547.76932 48.234784,553.32516 39.901026,558.62846 35.102801,563.17414 30.304576,567.71983 22.98097,573.02313 20.203051,564.43683 17.425131,555.85054 16.162441,546.50663 14.394674,543.98125 12.626907,541.45586 9.8489873,537.92033 9.8489873,537.92033 Z"
       id="path838"
       inkscape:connector-curvature="0" />
    <path
       style="fill:#000000;fill-rule:evenodd;stroke:none;stroke-width:1px;stroke-linecap:butt;stroke-linejoin:miter;stroke-opacity:1;fill-opacity:1"
       d="M 237.14286,248.89045 253.21429,265.67617 C 253.21429,265.67617 261.42857,269.60474 260.35714,288.53331 259.28571,307.46188 256.42857,366.39045 256.42857,366.39045 L 254.28571,390.67617 C 254.28571,390.67617 249.64286,405.67617 270.71429,399.96188 291.78571,394.2476 327.14286,387.81902 327.14286,387.81902 327.14286,387.81902 341.07143,387.10474 348.21429,392.81902 355.35714,398.53331 359.28571,402.46188 359.28571,402.46188 359.28571,402.46188 353.92857,409.60474 333.92857,406.7476 313.92857,403.89045 279.64286,412.46188 279.64286,412.46188 L 256.42857,423.89045 248.92857,443.89045 C 248.92857,443.89045 243.21429,443.17617 239.28571,429.60474 235.35714,416.03331 244.64286,364.96188 245.71429,347.81902 246.78571,330.67617 247.14286,302.81902 247.14286,297.10474 247.14286,291.39045 238.92857,271.03331 238.92857,271.03331 L 231.96429,262.46188 232.67857,253.53331 Z"
       id="path840"
       inkscape:connector-curvature="0" />
    <path
       style="fill:#000000;fill-rule:evenodd;stroke:none;stroke-width:1px;stroke-linecap:butt;stroke-linejoin:miter;stroke-opacity:1;fill-opacity:1"
       d="M 268.95312,252.55224 C 268.95312,252.55224 274.25642,248.00655 287.89348,244.97609 301.53054,241.94563 315.67267,237.39995 315.67267,237.39995 L 328.29958,240.93548 C 328.29958,240.93548 343.7044,249.52178 327.03689,255.07762 310.36937,260.63346 302.79323,264.67407 302.79323,264.67407 L 285.62063,269.72483 C 285.62063,269.72483 265.16504,261.89615 268.95312,252.55224 Z"
       id="path842"
       inkscape:connector-curvature="0" />
    <path
       style="fill:#000000;fill-rule:evenodd;stroke:none;stroke-width:1px;stroke-linecap:butt;stroke-linejoin:miter;stroke-opacity:1;fill-opacity:1"
       d="M 285.62063,269.72483 C 285.62063,269.72483 291.00056,275.43536 291.5463,279.32128 292.63861,287.09894 284.61048,301.54463 284.61048,301.54463 284.61048,301.54463 284.86302,312.15124 286.63079,309.87839 288.39855,307.60555 299.76277,302.04971 299.76277,302.04971 299.76277,302.04971 309.10668,283.61443 307.84399,279.82636 306.5813,276.03828 302.79323,264.67407 302.79323,264.67407 L 286.37825,263.91645 Z"
       id="path844"
       inkscape:connector-curvature="0"
       sodipodi:nodetypes="cscscsccc" />
    <path
       style="fill:#000000;fill-rule:evenodd;stroke:none;stroke-width:1px;stroke-linecap:butt;stroke-linejoin:miter;stroke-opacity:1;fill-opacity:1"
       d="M 266.42773,307.85809 321.73359,296.24133 338.90618,288.16011 C 338.90618,288.16011 354.81608,294.72611 356.07877,298.0091 357.34146,301.2921 345.47217,315.93931 338.14856,325.7883 330.82496,335.63728 322.74374,346.24388 322.74374,346.24388 L 278.54956,357.6081 259.86174,362.40633 251.02291,349.77942 313.9049,335.63728 C 313.9049,335.63728 322.99628,325.53576 326.27927,316.19185 329.56227,306.84794 335.62318,295.9888 311.37952,304.82763 287.13586,313.66647 278.54956,318.96977 278.54956,318.96977 L 267.94296,310.63601 Z"
       id="path846"
       inkscape:connector-curvature="0" />
    <path
       style="fill:#000000;fill-rule:evenodd;stroke:none;stroke-width:1px;stroke-linecap:butt;stroke-linejoin:miter;stroke-opacity:1;fill-opacity:1"
       d="M 297.995,366.95201 C 298.75262,370.99262 301.02546,378.31623 301.02546,378.31623 L 298.75262,397.25659 316.43029,395.48882 C 316.43029,395.48882 322.09952,385.84816 321.73359,380.58907 321.43042,376.232 316.93536,368.2147 315.67267,368.97232 314.40998,369.72993 309.04246,362.31292 304.81353,362.40633 302.08258,362.46665 297.995,366.95201 297.995,366.95201 Z"
       id="path848"
       inkscape:connector-curvature="0"
       sodipodi:nodetypes="ccccscsc" />
    <path
       style="fill:#000000;fill-rule:evenodd;stroke:none;stroke-width:1px;stroke-linecap:butt;stroke-linejoin:miter;stroke-opacity:1;fill-opacity:1"
       d="M 374.76659,207.85299 C 375.01913,208.6106 386.13081,216.18675 397.49503,231.84411 408.85924,247.50147 417.95062,268.2096 413.91001,273.5129 409.8694,278.8162 391.68665,307.60555 391.68665,307.60555 L 369.21076,325.7883 360.877,329.07129 C 360.877,329.07129 371.98868,310.63601 379.81736,291.94819 387.64604,273.26036 390.92904,259.37077 390.92904,259.37077 L 381.58512,242.45071 370.22091,225.78319 368.95822,217.44943 Z"
       id="path850"
       inkscape:connector-curvature="0" />
    <path
       style="fill:#000000;fill-rule:evenodd;stroke:none;stroke-width:1px;stroke-linecap:butt;stroke-linejoin:miter;stroke-opacity:1;fill-opacity:1"
       d="M 400.52548,304.07002 C 400.77802,302.55479 413.15239,297.50402 427.54707,296.74641 441.94174,295.9888 456.58895,301.03956 456.58895,301.03956 L 465.68032,307.60555 C 465.68032,307.60555 465.42779,313.41393 464.41763,313.41393 463.40748,313.41393 441.18412,310.38347 434.11306,314.92916 427.04199,319.47484 416.94046,320.99007 416.94046,320.99007 L 403.80848,315.93931 391.68665,307.60555 Z"
       id="path852"
       inkscape:connector-curvature="0" />
    <path
       style="fill:#000000;fill-rule:evenodd;stroke:none;stroke-width:1px;stroke-linecap:butt;stroke-linejoin:miter;stroke-opacity:1;fill-opacity:1"
       d="M 363.90745,364.67917 404.31356,362.65886 C 404.31356,362.65886 422.4963,363.16394 423.25392,371.4977 424.01153,379.83146 405.07117,380.084 402.04071,380.58907 399.01026,381.09415 380.32243,387.4076 380.32243,387.4076 380.32243,387.4076 371.23106,390.94314 367.44299,383.36699 363.65492,375.79085 361.12954,369.47739 361.12954,369.47739 Z"
       id="path854"
       inkscape:connector-curvature="0" />
    <path
       style="fill:#000000;fill-rule:evenodd;stroke:none;stroke-width:1px;stroke-linecap:butt;stroke-linejoin:miter;stroke-opacity:1;fill-opacity:1"
       d="M 273.24889,460.557 C 271.39331,459.26902 282.84271,451.55229 319.46074,444.9863 356.07877,438.4203 383.85797,436.65254 393.45442,434.63223 403.05087,432.61193 413.40493,430.08655 413.40493,430.08655 413.40493,430.08655 418.20315,428.06624 424.01153,431.85431 429.81991,435.64239 439.6689,447.25914 439.6689,447.25914 439.6689,447.25914 440.42651,456.35051 432.34529,474.53326 424.26407,492.716 412.39478,531.85942 412.39478,531.85942 L 405.82879,552.315 402.04071,557.36577 397.24249,551.30485 C 397.24249,551.30485 391.68665,515.1919 392.6968,515.94951 393.70695,516.70713 399.01026,519.48505 399.01026,519.48505 L 415.93031,472.51295 C 415.93031,472.51295 421.48615,444.22868 399.51533,445.74391 377.54451,447.25914 343.19933,450.79467 326.02673,458.37082 308.85414,465.94696 300.0084,474.06618 289.62535,473.22461 279.24231,472.38304 273.24889,460.557 273.24889,460.557 Z"
       id="path856"
       inkscape:connector-curvature="0"
       sodipodi:nodetypes="ssscccscccccccsszs" />
    <path
       style="fill:#000000;fill-rule:evenodd;stroke:none;stroke-width:1px;stroke-linecap:butt;stroke-linejoin:miter;stroke-opacity:1;fill-opacity:1"
       d="M 219.96072,468.97742 226.77925,483.62463 239.65869,489.43301 256.32621,511.9089 265.41758,529.0815 263.14474,539.18302 268.70058,544.48632 271.73103,529.0815 C 271.73103,529.0815 269.96327,500.29215 264.91251,492.96854 259.86174,485.64494 253.29575,478.06879 240.66884,472.51295 228.04194,466.95711 222.23356,464.43173 222.23356,464.43173 L 220.71833,467.71473 Z"
       id="path858"
       inkscape:connector-curvature="0" />
    <path
       style="fill:#000000;fill-rule:evenodd;stroke:none;stroke-width:1px;stroke-linecap:butt;stroke-linejoin:miter;stroke-opacity:1;fill-opacity:1"
       d="M 297.74246,490.44316 C 297.74246,490.44316 298.75262,505.84799 296.73231,519.73758 294.71201,533.62718 298.24754,537.92033 298.24754,537.92033 298.24754,537.92033 304.56099,539.43556 306.07622,537.92033 307.59145,536.4051 319.46074,523.77819 315.42013,514.43428 311.37952,505.09037 307.33891,493.22108 307.33891,493.22108 L 299.51023,484.88732 Z"
       id="path860"
       inkscape:connector-curvature="0" />
    <path
       style="fill:#000000;fill-rule:evenodd;stroke:none;stroke-width:1px;stroke-linecap:butt;stroke-linejoin:miter;stroke-opacity:1;fill-opacity:1"
       d="M 352.79578,475.03833 C 351.78562,476.04849 350.52293,498.27184 353.04831,509.63606 355.5737,521.00028 356.33131,526.80865 358.09908,526.30358 359.86684,525.7985 362.13969,519.48505 366.43284,508.12083 370.72598,496.75661 372.74629,488.92793 371.98868,487.16017 371.23106,485.3924 365.67522,472.26042 361.38207,472.00788 357.08893,471.75534 352.79578,475.03833 352.79578,475.03833 Z"
       id="path862"
       inkscape:connector-curvature="0" />
    <path
       style="fill:#000000;fill-rule:evenodd;stroke:none;stroke-width:1px;stroke-linecap:butt;stroke-linejoin:miter;stroke-opacity:1;fill-opacity:1"
       d="M 162.14286,557.46188 C 163.98502,556.90923 162.57824,565.61135 165.69262,566.578 168.88546,567.569 160.71429,560.67617 200.35714,553.53331 240,546.39045 296.42857,533.89045 330.71429,533.17617 365,532.46188 417.14286,536.03331 425,536.7476 432.85714,537.46188 447.85714,537.81902 447.85714,537.81902 L 457.14286,529.96188 C 457.14286,529.96188 468.92857,531.7476 483.21429,543.53331 497.5,555.31902 523.57143,585.67617 486.78572,571.03331 450,556.39045 418.57143,544.60474 395.35714,543.17617 372.14286,541.7476 341.42857,544.2476 309.28571,546.39045 277.14286,548.53331 261.78571,551.7476 234.64286,559.60474 207.5,567.46188 196.07143,574.60474 179.64286,582.46188 163.21429,590.31902 157.85714,591.03331 157.85714,591.03331 157.85714,591.03331 145.35714,583.53331 147.5,576.03331 149.64286,568.53331 150.46233,563.56052 155,559.60474 156.87375,557.97127 159.76191,558.17617 162.14286,557.46188 Z"
       id="path864"
       inkscape:connector-curvature="0"
       sodipodi:nodetypes="sssscccsssssscsss" />
  </g>
</svg>
