<?xml version="1.0" encoding="UTF-8" standalone="no"?>
<!-- Created with Inkscape (http://www.inkscape.org/) -->

<svg
   xmlns:dc="http://purl.org/dc/elements/1.1/"
   xmlns:cc="http://creativecommons.org/ns#"
   xmlns:rdf="http://www.w3.org/1999/02/22-rdf-syntax-ns#"
   xmlns:svg="http://www.w3.org/2000/svg"
   xmlns="http://www.w3.org/2000/svg"
   xmlns:sodipodi="http://sodipodi.sourceforge.net/DTD/sodipodi-0.dtd"
   xmlns:inkscape="http://www.inkscape.org/namespaces/inkscape"
   width="512"
   height="512"
   viewBox="0 0 512 512"
   version="1.1"
   id="svg8"
   inkscape:version="0.92.4 (5da689c313, 2019-01-14)"
   sodipodi:docname="U+97F3.svg">
  <defs
     id="defs2" />
  <sodipodi:namedview
     id="base"
     pagecolor="#ffffff"
     bordercolor="#666666"
     borderopacity="1.0"
     inkscape:pageopacity="0.0"
     inkscape:pageshadow="2"
     inkscape:zoom="1.4"
     inkscape:cx="237.66979"
     inkscape:cy="199.88898"
     inkscape:document-units="px"
     inkscape:current-layer="layer1"
     showgrid="false"
     units="px"
     inkscape:window-width="1920"
     inkscape:window-height="1001"
     inkscape:window-x="-9"
     inkscape:window-y="-9"
     inkscape:window-maximized="1" />
  <metadata
     id="metadata5">
    <rdf:RDF>
      <cc:Work
         rdf:about="">
        <dc:format>image/svg+xml</dc:format>
        <dc:type
           rdf:resource="http://purl.org/dc/dcmitype/StillImage" />
        <dc:title></dc:title>
      </cc:Work>
    </rdf:RDF>
  </metadata>
  <g
     inkscape:label="圖層 1"
     inkscape:groupmode="layer"
     id="layer1"
     transform="translate(0,-161.53333)">
    <path
       style="fill:#000000;fill-rule:evenodd;stroke:none;stroke-width:1px;stroke-linecap:butt;stroke-linejoin:miter;stroke-opacity:1;fill-opacity:1"
       d="M 201.02036,217.44946 C 206.5762,218.96468 239.91123,242.70327 239.91123,242.70327 239.91123,242.70327 261.62951,255.83525 264.15489,256.34033 266.68027,256.84541 275.77165,258.36063 275.77165,258.36063 275.77165,258.36063 276.27672,249.26926 275.77165,245.73373 275.26657,242.19819 269.20565,231.08652 267.18535,230.07636 265.16504,229.06621 248.49753,212.90377 248.49753,212.90377 L 241.42646,208.86316 C 241.42646,208.86316 229.30463,208.86316 225.76909,209.87331 222.23356,210.88346 205.06097,213.40885 205.06097,213.40885 Z"
       id="path826"
       inkscape:connector-curvature="0" />
    <path
       style="fill:#000000;fill-rule:evenodd;stroke:none;stroke-width:1px;stroke-linecap:butt;stroke-linejoin:miter;stroke-opacity:1;fill-opacity:1"
       d="M 138.89598,277.04846 C 187.3833,280.07891 154.04826,288.16013 209.10158,276.54338 264.15489,264.92663 317.69298,257.35048 317.69298,257.35048 L 329.81481,251.28957 343.45187,246.2388 344.46202,243.20835 374.26152,256.84541 C 374.26152,256.84541 385.87827,267.45201 383.85797,267.95708 381.83766,268.46216 358.60415,273.00785 343.95694,268.46216 329.30973,263.91647 315.16759,264.42155 312.13714,263.91647 309.10668,263.4114 232.84016,278.56368 232.84016,278.56368 L 204.55589,286.6449 C 204.55589,286.6449 195.46452,290.68552 190.91883,292.20074 186.37314,293.71597 166.67517,302.30227 166.67517,302.30227 L 154.04826,301.79719 144.45181,290.68552 Z"
       id="path830"
       inkscape:connector-curvature="0" />
    <path
       style="fill:#000000;fill-rule:evenodd;stroke:none;stroke-width:1px;stroke-linecap:butt;stroke-linejoin:miter;stroke-opacity:1;fill-opacity:1"
       d="M 184.35284,319.47486 C 184.35284,331.09162 207.08127,389.68046 207.08127,389.68046 L 219.70818,394.73123 C 219.70818,394.73123 224.75894,369.47741 223.74879,364.42665 222.73864,359.37589 226.27417,346.74898 225.26402,342.70837 224.25387,338.66776 184.35284,319.47486 184.35284,319.47486 Z"
       id="path832"
       inkscape:connector-curvature="0" />
    <path
       style="fill:#000000;fill-rule:evenodd;stroke:none;stroke-width:1px;stroke-linecap:butt;stroke-linejoin:miter;stroke-opacity:1;fill-opacity:1"
       d="M 282.84271,280.58399 C 286.88332,284.11952 297.48992,298.76674 297.48992,298.76674 297.48992,298.76674 297.48992,312.40379 292.94424,324.02055 288.39855,335.6373 275.77165,380.08402 275.77165,380.08402 L 287.89348,386.14493 C 287.89348,386.14493 312.64221,344.2236 321.73359,328.56624 330.82496,312.90887 334.86557,303.8175 328.80465,301.79719 322.74374,299.77689 309.35922,285.88729 309.35922,285.88729 309.35922,285.88729 305.82368,284.11952 302.54069,283.36191 299.25769,282.60429 289.66124,279.57384 289.66124,279.57384 Z"
       id="path834"
       inkscape:connector-curvature="0" />
    <path
       style="fill:#000000;fill-rule:evenodd;stroke:none;stroke-width:1px;stroke-linecap:butt;stroke-linejoin:miter;stroke-opacity:1;fill-opacity:1"
       d="M 24.748737,423.52057 C 30.809653,422.00535 45.456866,427.05611 126.26907,408.36829 207.08127,389.68046 336.3808,375.53833 383.85797,373.51802 431.33514,371.49772 441.43666,370.48757 456.08387,377.55863 470.73109,384.6297 485.3783,390.69062 483.35799,401.29722 481.33769,411.90382 428.80976,390.69062 405.07117,390.69062 381.33259,390.69062 281.32748,387.15508 230.81986,397.25661 180.31223,407.35813 111.11678,427.05611 111.11678,427.05611 111.11678,427.05611 72.730983,440.69317 61.114229,445.74393 49.497475,450.79469 28.284271,436.65256 28.284271,436.65256 Z"
       id="path836"
       inkscape:connector-curvature="0" />
    <path
       style="fill:#000000;fill-rule:evenodd;stroke:none;stroke-width:1px;stroke-linecap:butt;stroke-linejoin:miter;stroke-opacity:1;fill-opacity:1"
       d="M 180.81731,448.26931 181.32238,505.34293 184.35284,555.85056 C 184.35284,555.85056 181.32238,565.95208 183.34269,565.95208 185.36299,565.95208 203.92857,561.74762 203.92857,561.74762 L 206.42857,532.4619 211.07143,472.10476 183.92857,446.03333 179.28571,447.81904 Z"
       id="path838"
       inkscape:connector-curvature="0" />
    <path
       style="fill:#000000;fill-rule:evenodd;stroke:none;stroke-width:1px;stroke-linecap:butt;stroke-linejoin:miter;stroke-opacity:1;fill-opacity:1"
       d="M 223.57143,440.67619 C 227.14286,441.03333 312.14286,420.31904 312.14286,420.31904 L 345,445.31904 346.42857,462.10476 C 346.42857,462.10476 333.92857,484.60476 334.64286,540.31904 335.35714,596.03333 339.64286,614.60476 339.64286,614.60476 339.64286,614.60476 333.92857,638.17619 333.92857,639.60476 333.92857,641.03333 324.64286,629.24762 324.64286,629.24762 L 313.57143,593.89047 318.21429,566.03333 320.71429,486.03333 322.14286,461.03333 311.42857,443.17619 C 311.42857,443.17619 305.35714,437.4619 280,448.89047 254.64286,460.31904 245.35714,464.60476 245.35714,464.60476 245.35714,464.60476 239.28571,466.03333 237.5,463.89047 235.71429,461.74762 227.85714,452.4619 227.85714,452.4619 Z"
       id="path840"
       inkscape:connector-curvature="0" />
    <path
       style="fill:#000000;fill-rule:evenodd;stroke:none;stroke-width:1px;stroke-linecap:butt;stroke-linejoin:miter;stroke-opacity:1;fill-opacity:1"
       d="M 224.28571,513.89047 C 227.14286,513.53333 274.64286,498.53333 274.64286,498.53333 L 289.64286,497.81904 C 289.64286,497.81904 297.5,500.31904 297.85714,501.74762 298.21429,503.17619 298.57143,509.60476 297.14286,510.31904 295.71429,511.03333 273.57143,516.03333 270,516.03333 266.42857,516.03333 247.85714,524.9619 247.85714,524.9619 L 237.85714,527.4619 228.21429,523.53333 Z"
       id="path842"
       inkscape:connector-curvature="0" />
    <path
       style="fill:#000000;fill-rule:evenodd;stroke:none;stroke-width:1px;stroke-linecap:butt;stroke-linejoin:miter;stroke-opacity:1;fill-opacity:1"
       d="M 261.78571,570.85476 C 261.78571,570.85476 288.92857,561.56904 288.92857,562.28333 288.92857,562.99762 308.75,561.74762 308.75,561.74762 L 318.21429,566.03333 316.78571,586.74762 C 316.78571,586.74762 302.14286,587.4619 300.35714,587.4619 298.57143,587.4619 277.32143,588.17619 276.25,588.35476 275.17857,588.53333 245.17857,593.17619 244.46429,593.17619 243.75,593.17619 226.42857,592.28333 226.42857,592.28333 L 221.78571,585.31904 V 579.78333 L 245,573.17619 Z"
       id="path846"
       inkscape:connector-curvature="0" />
  </g>
</svg>
