<?xml version="1.0" standalone="no"?>
<!DOCTYPE svg PUBLIC "-//W3C//DTD SVG 1.1//EN" "http://www.w3.org/Graphics/SVG/1.1/DTD/svg11.dtd" >
<svg xmlns="http://www.w3.org/2000/svg" xmlns:xlink="http://www.w3.org/1999/xlink" version="1.1" viewBox="0 0 256 256">
  <g transform="matrix(1 0 0 -1 0 204)">
   <path fill="currentColor"
d="M185 182q8 1 20 -17q0 -2 4 -3h2q3 -1 3 -3q1 -2 -2 -4q-3 -1 -4 -5q-5 -18 -2 -81q4 -59 -2 -76q-4 -7 -9 -3q-6 8 -13 10q-15 10 -24 20q-6 6 1 2q21 -18 34 -20q7 -2 7 4q2 10 3 25q0 15 -2 41q-5 46 -2 89q-1 15 -12 18q-13 2 -29 -5q-11 -5 -26 -4q-6 0 -1 2
q33 14 54 10zM93 168q1 4 22 -19l2 -3q0 -1 -3 -3q-5 -4 -5 -11q-5 -112 -9 -126q-3 -6 -9 -3q-2 3 -11 10q0 -1 -1 1q-7 4 -9 8q-3 4 2 2q11 -10 21 -8q5 -1 6 5q2 17 4 75q-37 -53 -69 -67q-4 -2 -1 1q41 39 70 69v34t-2 21t-9 12q-6 0 -14 -7q-5 -2 -17 -1h-2q0 1 2 3h2
q15 6 30 7zM150 119q15 5 20 3q3 -4 0 -5l-4 -2q-4 -1 -5 -3q-2 -4 -5 -4q-4 -1 -3 0t1 2q1 5 -1 4q-9 -2 -15 0q-4 0 1 2q5 0 11 3zM77 111q3 -3 1 -6q-14 -8 -30 -7h-3q0 1 3 3q20 12 29 10zM169 68q3 -3 1 -4q-6 -5 -32 -4q-12 1 -15 7q-1 5 2 1q-4 -7 44 0z" />
  </g>

</svg>
