<?xml version="1.0" standalone="no"?>
<!DOCTYPE svg PUBLIC "-//W3C//DTD SVG 1.1//EN" "http://www.w3.org/Graphics/SVG/1.1/DTD/svg11.dtd" >
<svg xmlns="http://www.w3.org/2000/svg" xmlns:xlink="http://www.w3.org/1999/xlink" version="1.1" viewBox="0 0 256 256">
  <g transform="matrix(1 0 0 -1 0 204)">
   <path fill="currentColor"
d="M207 161q1 -10 -5 -7q-7 2 -10 1q-11 -3 -30 -4q-3 2 0 4q26 3 34 9q4 2 2 12q-2 6 -15 7q-35 2 -79 -10q-5 -7 -7 -11q-1 -3 0 -3l4 2q9 5 17 8q5 2 1 -2q-12 -6 -21 -13q-5 -3 -3 -7q15 8 40 23q1 1 0 2t-3 1q-5 0 0 2q4 0 8 3q6 3 13 0q1 -1 1 -3q0 -1 -2 -1
q-5 -3 -19 -11q-9 -6 -18 -11h4q12 3 18 6t17 2q4 -3 1 -7q-32 2 -85 -21q-3 -1 -1 4q2 3 6 4q1 0 2 1q2 0 6 1q1 0 2 1q-2 10 4 15q6 4 13 14q-9 -3 -20 -6q-19 -7 -29 -2q-6 -15 9 -27q3 -6 -4 -7q-11 1 -14 15q1 15 8 21q-1 1 4 1q5 -1 40 9q55 13 94 9q10 0 17 -24z
M136 147q1 -2 4 -4t5 -3q4 -3 1 -5q-7 -5 -7 -42q5 -2 25 6q7 2 11 8q2 5 11 5q6 -1 13 -4q3 -7 -2 -7q-4 5 -39 -9q0 -3 3 -6q1 -2 2 -2l2 -4q0 -1 1 -1q10 5 15 4q2 -1 2 -3t-2 -2q-9 -2 -15 -6v-11q8 5 11 2q2 -1 2 -3q1 -2 -1 -2l-4 -2q-5 -2 -8 -3v-15q19 1 26 3
q3 1 7 -1q3 -3 8 -5t9 -4q2 -3 -1 -5q-5 -3 -18 7q-7 3 -22 1q-30 -6 -37 -10q-1 -10 2 -23q-1 -5 6 -13q7 -6 13 -16q1 -4 -4 -6q-11 2 -15 12q-2 5 -8 11q1 -1 -1 2q-5 5 0 7q3 2 5 4q-2 10 -2 23q-9 12 -31 27q-4 3 1 2q19 -6 29 -14q-1 40 1 75q-2 -3 -5 -6
q-12 -17 -17 -22q-4 -4 -2 2q1 2 5 8q2 3 3 5q-9 -2 -15 -9q-11 -11 -25 -34q-4 -6 8 1q7 4 2 -2l-7 -7q-3 -3 -2 -8q4 -4 11 -5q7 -2 12 -11q3 -8 -3 -8q-8 -1 -10 4q-2 2 -3 5q-5 8 -8 13q-5 -2 -6 4q-6 9 22 46q-14 -11 -28 -24q-3 -3 -5 -2q-3 2 -2 6q4 7 7 9q3 1 10 14
q4 12 12 23q2 4 4 14q0 2 1 2q1 1 3 0l2 -2q2 -2 4 -2q2 -3 -1 -8q-6 -2 -9 -8q-11 -16 -18 -31q21 11 27 18q0 12 8 10l10 -4q5 9 8 16q3 6 6 10q2 3 1 14q0 4 2 1zM156 92q-9 -3 -18 -3v-25q5 1 15 7q3 1 6 3q0 12 -3 18zM160 68q-15 -6 -22 -7v-14q10 2 22 10v11zM161 36
v14q-15 -5 -22 -6v-8q2 -6 3 -5q8 1 19 5zM154 134q12 -5 21 -11q1 -4 -1 -5q-6 -3 -11 0q-4 1 -2 3q0 5 -7 10q-2 2 0 3zM59 26q0 -11 3 -14q6 -6 6 -9q-1 -5 -7 -4q-8 1 -9 13q-1 4 5 14q2 3 2 0zM102 74q-2 1 -1 3q2 2 4 1q6 -6 13 -8q3 -5 -2 -7q-6 2 -9 2q-2 -1 -5 -2
q-3 -2 -4 -2q-7 -3 -1 2q1 0 6 5q2 3 -1 6z" />
  </g>

</svg>
