<?xml version="1.0" standalone="no"?>
<!DOCTYPE svg PUBLIC "-//W3C//DTD SVG 1.1//EN" "http://www.w3.org/Graphics/SVG/1.1/DTD/svg11.dtd" >
<svg xmlns="http://www.w3.org/2000/svg" xmlns:xlink="http://www.w3.org/1999/xlink" version="1.1" viewBox="0 0 256 256">
  <g transform="matrix(1 0 0 -1 0 204)">
   <path fill="currentColor"
d="M193 181q0 -1 1 -1q10 -3 16 -5v-2q-3 -3 -5 -2h-6q-5 0 -17 -2q-3 -1 -4 -1q-2 -1 -4 -1q-18 -6 -35 -3q-5 1 1 2h5q15 2 38 9q1 3 4 5t6 1zM208 134q2 1 5 0q10 -2 16 -3q8 -4 12 -8q0 -3 -5 -1q-13 2 -20 3h-15q-1 -1 -2 -1q-9 0 -24 -3q0 -10 -1 -30q-1 -23 0 -34
q-2 -57 2 -60q3 -8 6 -13q2 -6 3 -8q-3 -2 -5 -1l-9 12q-9 14 -13 14q-3 1 0 5q2 1 7 3q2 1 5 2q0 15 -1 62v47q-7 -1 -24 -5q2 0 -5 -1q-7 -2 -15 1q-1 0 1 2q17 1 43 8q-1 24 -5 33v1q1 0 3 -1q1 -2 2 -3q8 -5 7 -10q-2 -8 -1 -19h7q12 2 22 4q1 2 4 4zM87 208q-1 2 1 1
q2 -4 9 -10q2 -2 1 -3q-4 -6 -3 -26q2 0 7 2q6 1 8 3q3 1 14 -2q2 -1 1 -2q-7 -3 -11 -3q-3 -1 -7 -1q-8 -1 -12 -2q-1 -7 -1 -17q1 -4 1 -6q25 7 37 -10q3 -2 0 -4q-1 -1 -1 -2q-2 -2 -4 0q-5 0 -4 -3q-4 -31 -29 -36q0 -2 -1 -5t0 -4q3 0 9 1q21 4 23 8q1 2 4 2t5 -2
q5 -4 12 -9q0 -6 -2 -6q-1 -1 -8 5q-7 5 -17 2q-11 -2 -19 -4q-4 -1 -7 -1v-52q-1 -10 3 -13q4 -8 8 -11q1 -1 0 -2q-2 -3 -4 0q-7 4 -11 11q-3 5 -8 9q0 -1 -1 1q-2 0 -1 3q0 1 1 2q0 1 4 0q2 -2 3 -2q2 1 2 5v48q-15 -2 -44 -11q-16 -6 -27 -5q-3 0 -1 1q8 4 21 7
q5 1 20 5q13 2 31 7v10q-5 1 -6 3q-1 1 1 1l1 -1q1 0 4 1v6q-9 -5 -20 -4q2 -5 0 -4q-9 2 -15 7q-2 0 -3 3v2q-1 2 2 7q-1 2 -2 6q-2 4 -2 8q0 3 1 2q8 -24 17 -29q8 -1 23 7v9q-9 -3 -6 0t0 2q-1 -1 -2 -1q-6 -2 -10 -1q-3 -1 0 1l18 6v18q-7 -2 -10 -4q-5 -3 -13 -1
q-2 0 0 2q4 1 23 8v23q-6 -2 -10 -3q-4 -2 -1 2q-5 -1 -12 -1t-14 2q-3 1 1 2q13 -2 35 3v14q1 5 1 8q0 8 -3 17zM95 137q-2 -10 -1 -17q3 0 9 3q3 0 3 -2q0 -3 -3 -2q-5 -2 -9 -5v-9h3h6t2 -2q-1 -1 -4 -2q-4 -1 -7 -2v-8q20 3 24 33q3 14 -5 16h-2q-8 0 -16 -3z" />
  </g>

</svg>
